<svg xmlns="http://www.w3.org/2000/svg" xmlns:xlink="http://www.w3.org/1999/xlink" contentStyleType="text/css" data-diagram-type="SEQUENCE" height="1087px" preserveAspectRatio="none" style="width:1404px;height:1087px;background:#FFFFFF;" version="1.1" viewBox="0 0 1404 1087" width="1404px" zoomAndPan="magnify"><defs/><g><g><title>&lt;&lt;component user&gt;&gt;</title><rect fill="#FFFFFF" height="964.2734" style="stroke:#181818;stroke-width:1;" width="10" x="72.7344" y="62.5938"/></g><g><title>SOCom</title><rect fill="#FFFFFF" height="890.0078" style="stroke:#181818;stroke-width:1;" width="10" x="436.8325" y="136.8594"/></g><g><title>SOCom</title><rect fill="#FFFFFF" height="29.1328" style="stroke:#181818;stroke-width:1;" width="10" x="441.8325" y="225.75"/></g><g><title>SOCom</title><rect fill="#FFFFFF" height="69.9648" style="stroke:#181818;stroke-width:1;" width="10" x="441.8325" y="284.0156"/></g><g><title>SOCom</title><rect fill="#FFFFFF" height="229.3281" style="stroke:#181818;stroke-width:1;" width="10" x="441.8325" y="467.0781"/></g><g><title>SOCom</title><rect fill="#FFFFFF" height="29.1328" style="stroke:#181818;stroke-width:1;" width="10" x="441.8325" y="865.2031"/></g><g><title>&lt;&lt;component user&gt;&gt;</title><rect fill="#FFFFFF" height="848.7109" style="stroke:#181818;stroke-width:1;" width="10" x="999.8091" y="178.1563"/></g><g><title>&lt;&lt;component user&gt;&gt;</title><rect fill="#FFFFFF" height="171.0625" style="stroke:#181818;stroke-width:1;" width="10" x="1004.8091" y="496.2109"/></g><rect fill="transparent" height="127.9297" style="stroke:#000000;stroke-width:1.5;" width="429.6787" x="908.6797" y="511.2109"/><rect fill="transparent" height="82.5313" style="stroke:#000000;stroke-width:1.5;" width="446.3979" x="908.6797" y="754.5391"/><rect fill="transparent" height="67.3984" style="stroke:#000000;stroke-width:1.5;" width="949.2515" x="398.8901" y="909.3359"/><g><title>&lt;&lt;component user&gt;&gt;</title><rect fill="transparent" height="983.2734" width="8" x="73.7344" y="52.5938"/><line style="stroke:#181818;stroke-width:0.5;stroke-dasharray:5.0,5.0;" x1="77" x2="77" y1="52.5938" y2="1035.8672"/></g><g><title>SOCom</title><rect fill="transparent" height="899.4922" width="8" x="437.8325" y="136.375"/><line style="stroke:#181818;stroke-width:0.5;stroke-dasharray:5.0,5.0;" x1="440.8901" x2="440.8901" y1="136.375" y2="1035.8672"/></g><g><title>&lt;&lt;component user&gt;&gt;</title><rect fill="transparent" height="850.0469" width="8" x="1000.8091" y="185.8203"/><line style="stroke:#181818;stroke-width:0.5;stroke-dasharray:5.0,5.0;" x1="1004.6797" x2="1004.6797" y1="185.8203" y2="1035.8672"/></g><rect fill="#E2E2F0" height="46.5938" rx="2.5" ry="2.5" style="stroke:#181818;stroke-width:0.5;" width="145.4688" x="5" y="5"/><text fill="#000000" font-family="sans-serif" font-size="14" font-style="italic" lengthAdjust="spacing" textLength="131.4688" x="12" y="24.9951">&#171;component user&#187;</text><text fill="#000000" font-family="sans-serif" font-size="14" lengthAdjust="spacing" textLength="78.2236" x="38.6226" y="41.292">Application</text><rect fill="#E2E2F0" height="46.5938" rx="2.5" ry="2.5" style="stroke:#181818;stroke-width:0.5;" width="145.4688" x="5" y="1034.8672"/><text fill="#000000" font-family="sans-serif" font-size="14" font-style="italic" lengthAdjust="spacing" textLength="131.4688" x="12" y="1054.8623">&#171;component user&#187;</text><text fill="#000000" font-family="sans-serif" font-size="14" lengthAdjust="spacing" textLength="78.2236" x="38.6226" y="1071.1592">Application</text><rect fill="#E2E2F0" height="30.2969" rx="2.5" ry="2.5" style="stroke:#181818;stroke-width:0.5;" width="65.8848" x="408.8901" y="1034.8672"/><text fill="#000000" font-family="sans-serif" font-size="14" lengthAdjust="spacing" textLength="51.8848" x="415.8901" y="1054.8623">SOCom</text><rect fill="#E2E2F0" height="46.5938" rx="2.5" ry="2.5" style="stroke:#181818;stroke-width:0.5;" width="172.2588" x="918.6797" y="1034.8672"/><text fill="#000000" font-family="sans-serif" font-size="14" font-style="italic" lengthAdjust="spacing" textLength="131.4688" x="939.0747" y="1054.8623">&#171;component user&#187;</text><text fill="#000000" font-family="sans-serif" font-size="14" lengthAdjust="spacing" textLength="158.2588" x="925.6797" y="1071.1592">Generic service bridge</text><g><title>&lt;&lt;component user&gt;&gt;</title><rect fill="#FFFFFF" height="964.2734" style="stroke:#181818;stroke-width:1;" width="10" x="72.7344" y="62.5938"/></g><g><title>SOCom</title><rect fill="#FFFFFF" height="890.0078" style="stroke:#181818;stroke-width:1;" width="10" x="436.8325" y="136.8594"/></g><g><title>SOCom</title><rect fill="#FFFFFF" height="29.1328" style="stroke:#181818;stroke-width:1;" width="10" x="441.8325" y="225.75"/></g><g><title>SOCom</title><rect fill="#FFFFFF" height="69.9648" style="stroke:#181818;stroke-width:1;" width="10" x="441.8325" y="284.0156"/></g><g><title>SOCom</title><rect fill="#FFFFFF" height="229.3281" style="stroke:#181818;stroke-width:1;" width="10" x="441.8325" y="467.0781"/></g><g><title>SOCom</title><rect fill="#FFFFFF" height="29.1328" style="stroke:#181818;stroke-width:1;" width="10" x="441.8325" y="865.2031"/></g><g><title>&lt;&lt;component user&gt;&gt;</title><rect fill="#FFFFFF" height="848.7109" style="stroke:#181818;stroke-width:1;" width="10" x="999.8091" y="178.1563"/></g><g><title>&lt;&lt;component user&gt;&gt;</title><rect fill="#FFFFFF" height="171.0625" style="stroke:#181818;stroke-width:1;" width="10" x="1004.8091" y="496.2109"/></g><rect fill="#EEEEEE" height="3" style="stroke:#EEEEEE;stroke-width:1;" width="1397.3315" x="0" y="83.1602"/><line style="stroke:#000000;stroke-width:1;" x1="0" x2="1397.3315" y1="83.1602" y2="83.1602"/><line style="stroke:#000000;stroke-width:1;" x1="0" x2="1397.3315" y1="86.1602" y2="86.1602"/><rect fill="#EEEEEE" height="23.1328" style="stroke:#000000;stroke-width:2;" width="110.624" x="643.3538" y="72.5938"/><text fill="#000000" font-family="sans-serif" font-size="13" font-weight="bold" lengthAdjust="spacing" textLength="92.0981" x="649.3538" y="88.6606">Initialization</text><polygon fill="#181818" points="396.8901,122.8594,406.8901,126.8594,396.8901,130.8594,400.8901,126.8594" style="stroke:#181818;stroke-width:1;"/><line style="stroke:#181818;stroke-width:1;" x1="82.7344" x2="402.8901" y1="126.8594" y2="126.8594"/><text fill="#000000" font-family="sans-serif" font-size="13" font-weight="bold" lengthAdjust="spacing" textLength="9.0454" x="89.7344" y="121.7935">1</text><text fill="#000000" font-family="sans-serif" font-size="13" lengthAdjust="spacing" textLength="109.3892" x="102.7798" y="121.7935">create_runtime()</text><rect fill="#E2E2F0" height="30.2969" rx="2.5" ry="2.5" style="stroke:#181818;stroke-width:0.5;" width="65.8848" x="408.8901" y="105.7266"/><text fill="#000000" font-family="sans-serif" font-size="14" lengthAdjust="spacing" textLength="51.8848" x="415.8901" y="125.7217">SOCom</text><polygon fill="#181818" points="906.6797,164.1563,916.6797,168.1563,906.6797,172.1563,910.6797,168.1563" style="stroke:#181818;stroke-width:1;"/><line style="stroke:#181818;stroke-width:1;" x1="82.7344" x2="912.6797" y1="168.1563" y2="168.1563"/><text fill="#000000" font-family="sans-serif" font-size="13" font-weight="bold" lengthAdjust="spacing" textLength="9.0454" x="89.7344" y="163.0903">2</text><text fill="#000000" font-family="sans-serif" font-size="13" lengthAdjust="spacing" textLength="179.9497" x="102.7798" y="163.0903">create_bridge_component()</text><rect fill="#E2E2F0" height="46.5938" rx="2.5" ry="2.5" style="stroke:#181818;stroke-width:0.5;" width="172.2588" x="918.6797" y="147.0234"/><text fill="#000000" font-family="sans-serif" font-size="14" font-style="italic" lengthAdjust="spacing" textLength="131.4688" x="939.0747" y="167.0186">&#171;component user&#187;</text><text fill="#000000" font-family="sans-serif" font-size="14" lengthAdjust="spacing" textLength="158.2588" x="925.6797" y="183.3154">Generic service bridge</text><polygon fill="#181818" points="462.8325,221.75,452.8325,225.75,462.8325,229.75,458.8325,225.75" style="stroke:#181818;stroke-width:1;"/><line style="stroke:#181818;stroke-width:1;" x1="456.8325" x2="998.8091" y1="225.75" y2="225.75"/><text fill="#000000" font-family="sans-serif" font-size="13" font-weight="bold" lengthAdjust="spacing" textLength="9.0454" x="468.8325" y="220.6841">3</text><text fill="#000000" font-family="sans-serif" font-size="13" lengthAdjust="spacing" textLength="515.9312" x="481.8779" y="220.6841">register_service_bridge(bridge_subscribe_find_service, bridge_request_service)</text><polygon fill="#181818" points="987.8091,250.8828,997.8091,254.8828,987.8091,258.8828,991.8091,254.8828" style="stroke:#181818;stroke-width:1;"/><line style="stroke:#181818;stroke-width:1;stroke-dasharray:2.0,2.0;" x1="446.8325" x2="993.8091" y1="254.8828" y2="254.8828"/><text fill="#000000" font-family="sans-serif" font-size="13" font-weight="bold" lengthAdjust="spacing" textLength="9.0454" x="453.8325" y="249.8169">4</text><text fill="#000000" font-family="sans-serif" font-size="13" lengthAdjust="spacing" textLength="4.1323" x="466.8779" y="249.8169">&#160;</text><polygon fill="#181818" points="462.8325,280.0156,452.8325,284.0156,462.8325,288.0156,458.8325,284.0156" style="stroke:#181818;stroke-width:1;"/><line style="stroke:#181818;stroke-width:1;" x1="456.8325" x2="998.8091" y1="284.0156" y2="284.0156"/><text fill="#000000" font-family="sans-serif" font-size="13" font-weight="bold" lengthAdjust="spacing" textLength="9.0454" x="468.8325" y="278.9497">5</text><text fill="#000000" font-family="sans-serif" font-size="13" lengthAdjust="spacing" textLength="289.4023" x="481.8779" y="278.9497">subscribe_find_service(bridge_find_callback)</text><polygon fill="#181818" points="987.8091,349.9805,997.8091,353.9805,987.8091,357.9805,991.8091,353.9805" style="stroke:#181818;stroke-width:1;"/><line style="stroke:#181818;stroke-width:1;stroke-dasharray:2.0,2.0;" x1="446.8325" x2="993.8091" y1="353.9805" y2="353.9805"/><text fill="#000000" font-family="sans-serif" font-size="13" font-weight="bold" lengthAdjust="spacing" textLength="9.0454" x="453.8325" y="348.9146">6</text><text fill="#000000" font-family="sans-serif" font-size="13" lengthAdjust="spacing" textLength="4.1323" x="466.8779" y="348.9146">&#160;</text><path d="M1014,297.0156 L1014,397.0156 L1391,397.0156 L1391,307.0156 L1381,297.0156 L1014,297.0156 " fill="#FEFFDD" style="stroke:#181818;stroke-width:0.5;"/><path d="M1381,297.0156 L1381,307.0156 L1391,307.0156 L1381,297.0156 " fill="#FEFFDD" style="stroke:#181818;stroke-width:0.5;"/><text fill="#000000" font-family="sans-serif" font-size="13" lengthAdjust="spacing" textLength="270.5625" x="1020" y="314.0825">A generic service bridge (e.g. bridge::ipc)</text><text fill="#000000" font-family="sans-serif" font-size="13" lengthAdjust="spacing" textLength="247.6729" x="1020" y="329.2153">is interested in every service instance</text><text fill="#000000" font-family="sans-serif" font-size="13" lengthAdjust="spacing" textLength="157.8281" x="1020" y="344.3481">within the local process.</text><text fill="#000000" font-family="sans-serif" font-size="13" lengthAdjust="spacing" textLength="238.0054" x="1020" y="359.481">This enables a config-free (dynamic)</text><text fill="#000000" font-family="sans-serif" font-size="13" lengthAdjust="spacing" textLength="322.1816" x="1020" y="374.6138">implementation of service discovery functionality</text><text fill="#000000" font-family="sans-serif" font-size="13" lengthAdjust="spacing" textLength="356.5225" x="1020" y="389.7466">based on the pure internal service instance identifiers.</text><rect fill="#EEEEEE" height="3" style="stroke:#EEEEEE;stroke-width:1;" width="1397.3315" x="0" y="423.3789"/><line style="stroke:#000000;stroke-width:1;" x1="0" x2="1397.3315" y1="423.3789" y2="423.3789"/><line style="stroke:#000000;stroke-width:1;" x1="0" x2="1397.3315" y1="426.3789" y2="426.3789"/><rect fill="#EEEEEE" height="23.1328" style="stroke:#000000;stroke-width:2;" width="297.4292" x="549.9512" y="412.8125"/><text fill="#000000" font-family="sans-serif" font-size="13" font-weight="bold" lengthAdjust="spacing" textLength="278.9033" x="555.9512" y="428.8794">Application creates a service instance</text><polygon fill="#181818" points="429.8325,463.0781,439.8325,467.0781,429.8325,471.0781,433.8325,467.0781" style="stroke:#181818;stroke-width:1;"/><line style="stroke:#181818;stroke-width:1;" x1="82.7344" x2="435.8325" y1="467.0781" y2="467.0781"/><text fill="#000000" font-family="sans-serif" font-size="13" font-weight="bold" lengthAdjust="spacing" textLength="9.0454" x="89.7344" y="462.0122">7</text><text fill="#000000" font-family="sans-serif" font-size="13" lengthAdjust="spacing" textLength="317.0527" x="102.7798" y="462.0122">make_server_connector(interface_A, instance_1)</text><polygon fill="#181818" points="992.8091,492.2109,1002.8091,496.2109,992.8091,500.2109,996.8091,496.2109" style="stroke:#181818;stroke-width:1;"/><line style="stroke:#181818;stroke-width:1;" x1="451.8325" x2="998.8091" y1="496.2109" y2="496.2109"/><text fill="#000000" font-family="sans-serif" font-size="13" font-weight="bold" lengthAdjust="spacing" textLength="9.0454" x="458.8325" y="491.145">8</text><text fill="#000000" font-family="sans-serif" font-size="13" lengthAdjust="spacing" textLength="386.4009" x="471.8779" y="491.145">bridge_find_callback(interface_A, instance_1, State::added)</text><path d="M908.6797,511.2109 L1116.6494,511.2109 L1116.6494,518.3438 L1106.6494,528.3438 L908.6797,528.3438 L908.6797,511.2109 " fill="#EEEEEE" style="stroke:#000000;stroke-width:1.5;"/><rect fill="transparent" height="127.9297" style="stroke:#000000;stroke-width:1.5;" width="429.6787" x="908.6797" y="511.2109"/><text fill="#000000" font-family="sans-serif" font-size="13" font-weight="bold" lengthAdjust="spacing" textLength="162.9697" x="923.6797" y="524.2778">Implementation detail</text><line style="stroke:#181818;stroke-width:1;" x1="1014.8091" x2="1056.8091" y1="583.8086" y2="583.8086"/><line style="stroke:#181818;stroke-width:1;" x1="1056.8091" x2="1056.8091" y1="583.8086" y2="596.8086"/><line style="stroke:#181818;stroke-width:1;" x1="1015.8091" x2="1056.8091" y1="596.8086" y2="596.8086"/><polygon fill="#181818" points="1025.8091,592.8086,1015.8091,596.8086,1025.8091,600.8086,1021.8091,596.8086" style="stroke:#181818;stroke-width:1;"/><text fill="#000000" font-family="sans-serif" font-size="13" font-weight="bold" lengthAdjust="spacing" textLength="9.0454" x="1021.8091" y="578.7427">9</text><text fill="#000000" font-family="sans-serif" font-size="13" lengthAdjust="spacing" textLength="4.1323" x="1034.8545" y="578.7427">&#160;</text><path d="M1084,533.3438 L1084,633.3438 L1312,633.3438 L1312,543.3438 L1302,533.3438 L1084,533.3438 " fill="#FEFFDD" style="stroke:#181818;stroke-width:0.5;"/><path d="M1302,533.3438 L1302,543.3438 L1312,543.3438 L1302,533.3438 " fill="#FEFFDD" style="stroke:#181818;stroke-width:0.5;"/><text fill="#000000" font-family="sans-serif" font-size="13" lengthAdjust="spacing" textLength="173.4434" x="1090" y="550.4106">The generic service bridge</text><text fill="#000000" font-family="sans-serif" font-size="13" lengthAdjust="spacing" textLength="207.5493" x="1090" y="565.5435">informs its remote counterparts</text><text fill="#000000" font-family="sans-serif" font-size="13" lengthAdjust="spacing" textLength="137.8013" x="1090" y="580.6763">about the availability</text><text fill="#000000" font-family="sans-serif" font-size="13" lengthAdjust="spacing" textLength="165.5342" x="1090" y="595.8091">of a new service instance</text><text fill="#000000" font-family="sans-serif" font-size="13" lengthAdjust="spacing" textLength="151.4805" x="1090" y="610.9419">interface_A, instance_1</text><text fill="#000000" font-family="sans-serif" font-size="13" lengthAdjust="spacing" textLength="138.8613" x="1090" y="626.0747">at the local endpoint.</text><polygon fill="#181818" points="462.8325,663.2734,452.8325,667.2734,462.8325,671.2734,458.8325,667.2734" style="stroke:#181818;stroke-width:1;"/><line style="stroke:#181818;stroke-width:1;stroke-dasharray:2.0,2.0;" x1="456.8325" x2="998.8091" y1="667.2734" y2="667.2734"/><text fill="#000000" font-family="sans-serif" font-size="13" font-weight="bold" lengthAdjust="spacing" textLength="18.0908" x="468.8325" y="662.2075">10</text><text fill="#000000" font-family="sans-serif" font-size="13" lengthAdjust="spacing" textLength="4.1323" x="490.9233" y="662.2075">&#160;</text><polygon fill="#181818" points="93.7344,692.4063,83.7344,696.4063,93.7344,700.4063,89.7344,696.4063" style="stroke:#181818;stroke-width:1;"/><line style="stroke:#181818;stroke-width:1;stroke-dasharray:2.0,2.0;" x1="87.7344" x2="435.8325" y1="696.4063" y2="696.4063"/><text fill="#000000" font-family="sans-serif" font-size="13" font-weight="bold" lengthAdjust="spacing" textLength="18.0908" x="99.7344" y="691.3403">11</text><text fill="#000000" font-family="sans-serif" font-size="13" lengthAdjust="spacing" textLength="4.1323" x="121.8252" y="691.3403">&#160;</text><rect fill="#EEEEEE" height="3" style="stroke:#EEEEEE;stroke-width:1;" width="1397.3315" x="0" y="724.9727"/><line style="stroke:#000000;stroke-width:1;" x1="0" x2="1397.3315" y1="724.9727" y2="724.9727"/><line style="stroke:#000000;stroke-width:1;" x1="0" x2="1397.3315" y1="727.9727" y2="727.9727"/><rect fill="#EEEEEE" height="23.1328" style="stroke:#000000;stroke-width:2;" width="243.3599" x="576.9858" y="714.4063"/><text fill="#000000" font-family="sans-serif" font-size="13" font-weight="bold" lengthAdjust="spacing" textLength="224.834" x="582.9858" y="730.4731">service instance remote usage</text><path d="M908.6797,754.5391 L1116.6494,754.5391 L1116.6494,761.6719 L1106.6494,771.6719 L908.6797,771.6719 L908.6797,754.5391 " fill="#EEEEEE" style="stroke:#000000;stroke-width:1.5;"/><rect fill="transparent" height="82.5313" style="stroke:#000000;stroke-width:1.5;" width="446.3979" x="908.6797" y="754.5391"/><text fill="#000000" font-family="sans-serif" font-size="13" font-weight="bold" lengthAdjust="spacing" textLength="162.9697" x="923.6797" y="767.606">Implementation detail</text><line style="stroke:#181818;stroke-width:1;" x1="1009.8091" x2="1051.8091" y1="804.4375" y2="804.4375"/><line style="stroke:#181818;stroke-width:1;" x1="1051.8091" x2="1051.8091" y1="804.4375" y2="817.4375"/><line style="stroke:#181818;stroke-width:1;" x1="1010.8091" x2="1051.8091" y1="817.4375" y2="817.4375"/><polygon fill="#181818" points="1020.8091,813.4375,1010.8091,817.4375,1020.8091,821.4375,1016.8091,817.4375" style="stroke:#181818;stroke-width:1;"/><text fill="#000000" font-family="sans-serif" font-size="13" font-weight="bold" lengthAdjust="spacing" textLength="18.0908" x="1016.8091" y="799.3716">12</text><text fill="#000000" font-family="sans-serif" font-size="13" lengthAdjust="spacing" textLength="4.1323" x="1038.8999" y="799.3716">&#160;</text><path d="M1074,776.6719 L1074,831.6719 L1334,831.6719 L1334,786.6719 L1324,776.6719 L1074,776.6719 " fill="#FEFFDD" style="stroke:#181818;stroke-width:0.5;"/><path d="M1324,776.6719 L1324,786.6719 L1334,786.6719 L1324,776.6719 " fill="#FEFFDD" style="stroke:#181818;stroke-width:0.5;"/><text fill="#000000" font-family="sans-serif" font-size="13" lengthAdjust="spacing" textLength="225.9512" x="1080" y="793.7388">A remote counterpart is interested</text><text fill="#000000" font-family="sans-serif" font-size="13" lengthAdjust="spacing" textLength="239.2686" x="1080" y="808.8716">in the local service and informed the</text><text fill="#000000" font-family="sans-serif" font-size="13" lengthAdjust="spacing" textLength="190.9058" x="1080" y="824.0044">generic service bridge about.</text><polygon fill="#181818" points="462.8325,861.2031,452.8325,865.2031,462.8325,869.2031,458.8325,865.2031" style="stroke:#181818;stroke-width:1;"/><line style="stroke:#181818;stroke-width:1;" x1="456.8325" x2="998.8091" y1="865.2031" y2="865.2031"/><text fill="#000000" font-family="sans-serif" font-size="13" font-weight="bold" lengthAdjust="spacing" textLength="18.0908" x="468.8325" y="860.1372">13</text><text fill="#000000" font-family="sans-serif" font-size="13" lengthAdjust="spacing" textLength="311.6064" x="490.9233" y="860.1372">make_client_connector(interface_A, instance_1)</text><polygon fill="#181818" points="987.8091,890.3359,997.8091,894.3359,987.8091,898.3359,991.8091,894.3359" style="stroke:#181818;stroke-width:1;"/><line style="stroke:#181818;stroke-width:1;stroke-dasharray:2.0,2.0;" x1="446.8325" x2="993.8091" y1="894.3359" y2="894.3359"/><text fill="#000000" font-family="sans-serif" font-size="13" font-weight="bold" lengthAdjust="spacing" textLength="18.0908" x="453.8325" y="889.27">14</text><text fill="#000000" font-family="sans-serif" font-size="13" lengthAdjust="spacing" textLength="4.1323" x="475.9233" y="889.27">&#160;</text><path d="M398.8901,909.3359 L657.7554,909.3359 L657.7554,916.4688 L647.7554,926.4688 L398.8901,926.4688 L398.8901,909.3359 " fill="#EEEEEE" style="stroke:#000000;stroke-width:1.5;"/><rect fill="transparent" height="67.3984" style="stroke:#000000;stroke-width:1.5;" width="949.2515" x="398.8901" y="909.3359"/><text fill="#000000" font-family="sans-serif" font-size="13" font-weight="bold" lengthAdjust="spacing" textLength="213.8652" x="413.8901" y="922.4028">!!! Important: break circle !!!</text><line style="stroke:#181818;stroke-width:2;" x1="453.8325" x2="463.8325" y1="953.168" y2="963.168"/><line style="stroke:#181818;stroke-width:2;" x1="453.8325" x2="463.8325" y1="963.168" y2="953.168"/><polygon fill="#181818" points="987.8091,954.168,997.8091,958.168,987.8091,962.168,991.8091,958.168" style="stroke:#181818;stroke-width:1;"/><line style="stroke:#181818;stroke-width:1;stroke-dasharray:2.0,2.0;" x1="458.8325" x2="993.8091" y1="958.168" y2="958.168"/><text fill="#000000" font-family="sans-serif" font-size="13" font-weight="bold" lengthAdjust="spacing" textLength="18.0908" x="463.8325" y="953.1021">15</text><text fill="#000000" font-family="sans-serif" font-size="13" lengthAdjust="spacing" textLength="312.603" x="485.9233" y="953.1021">bridge_request_service(interface_A, instance_1)</text><path d="M1014,931.4688 L1014,971.4688 L1337,971.4688 L1337,941.4688 L1327,931.4688 L1014,931.4688 " fill="#FFAAAA" style="stroke:#181818;stroke-width:0.5;"/><path d="M1327,931.4688 L1327,941.4688 L1337,941.4688 L1327,931.4688 " fill="#FFAAAA" style="stroke:#181818;stroke-width:0.5;"/><text fill="#000000" font-family="sans-serif" font-size="13" lengthAdjust="spacing" textLength="274.2378" x="1020" y="948.5356">SOCom shall call bridge_request_service()</text><text fill="#000000" font-family="sans-serif" font-size="13" lengthAdjust="spacing" textLength="302.3325" x="1020" y="963.6685">only if service instance is locally not available.</text><line style="stroke:#181818;stroke-width:1;" x1="446.8325" x2="488.8325" y1="1004.8672" y2="1004.8672"/><line style="stroke:#181818;stroke-width:1;" x1="488.8325" x2="488.8325" y1="1004.8672" y2="1017.8672"/><line style="stroke:#181818;stroke-width:1;" x1="447.8325" x2="488.8325" y1="1017.8672" y2="1017.8672"/><polygon fill="#181818" points="457.8325,1013.8672,447.8325,1017.8672,457.8325,1021.8672,453.8325,1017.8672" style="stroke:#181818;stroke-width:1;"/><text fill="#000000" font-family="sans-serif" font-size="13" font-weight="bold" lengthAdjust="spacing" textLength="18.0908" x="453.8325" y="999.8013">16</text><text fill="#000000" font-family="sans-serif" font-size="13" lengthAdjust="spacing" textLength="4.1323" x="475.9233" y="999.8013">&#160;</text><path d="M511,992.2344 L511,1017.2344 L892,1017.2344 L892,1002.2344 L882,992.2344 L511,992.2344 " fill="#FEFFDD" style="stroke:#181818;stroke-width:0.5;"/><path d="M882,992.2344 L882,1002.2344 L892,1002.2344 L882,992.2344 " fill="#FEFFDD" style="stroke:#181818;stroke-width:0.5;"/><text fill="#000000" font-family="sans-serif" font-size="13" lengthAdjust="spacing" textLength="360.585" x="517" y="1009.3013">SOCom connects client_connector to server_connector.</text><!--SRC=[dLN1Rjim3BthAzZkaXPjWLs3fK0me4DFExI7tG9QfXsYjgH9SehiwqV9ZkCapgMvn155yl6zHyUXZwpPeOc0pW46k5qxrx36oDRSmeyVshRE6f8BNI3__ApS92TO2UUijzy_RNjx4YmybpNbw2yov5c3LDYnfY4qMnwxQ4tN5kILMgtWrN1aRFXV1WIhbLAe8-ymKaAi4cfuV1wGtD_34hGdYMvyPoAtjBWx9kHBOyg0RvhJ7sr6KDFaFgRKa3RsN09ugZb4yfjXlg7EOYWNkY9epmLjAZRbuTB3K77ZwMz78HxEB_1wYfqtSutd2n_QvZEDJLEW_hXQrLWvybnlerf3FQiJBEYfVXf-B9Viz9tY06naP05EfJm2xSZlnqGs8QBHf3uvRYKQjmID5J3WlDKKmfDwtqeDCbWq5011MrDn_LXvadxbtc3BgKth6cf5YLv-MuqTIWxQvfvLPtIAYalYNXKO193jMxhEKuzJeXVWW4kfp1MJ5pnaIaXagEoxoHOCvaWWBofaFugV9gAq-45P2l6336L8H-iN6KI5uetrmvY- -NuXIr_bwCubpAbvhTm3l0bJeX6M9PKpvgszxHoydh9QKaHk9luQRa-iyIvapfj3iQciRyKECSWYj2b7soxXIo-3eB2mNSngu4xQOC5P9v4ImT3dfMMkpAOmJcmaQZahDoUwoSFewiEtA7cXsG2o2rZt0dwLbFNCl72o6Eh4-WSaQDB69DR4gH9MLzOkCtSsuCnR81jEDopGls2u0rCz2JStDua8w-LwJDuZ_03DNZUKOeCz_ppE6FJiDNOTm951-FRoifQFolyU4BPYRqWUlrRpJbdJx86hcLqEFSiIbWO7hpLqpj-uOFtu4pbx40E30SuPXMZXVAsFnVy3]--></g></svg>