<svg xmlns="http://www.w3.org/2000/svg" xmlns:xlink="http://www.w3.org/1999/xlink" contentStyleType="text/css" data-diagram-type="SEQUENCE" height="607px" preserveAspectRatio="none" style="width:654px;height:607px;background:#FFFFFF;" version="1.1" viewBox="0 0 654 607" width="654px" zoomAndPan="magnify"><title>Current connection and event flow</title><defs/><g><text fill="#000000" font-family="sans-serif" font-size="14" font-weight="bold" lengthAdjust="spacing" textLength="274.0732" x="189.0459" y="27.9951">Current connection and event flow</text><g><title>Gateway_ipc_binding_client side</title><rect fill="transparent" height="498.3906" width="8" x="131.5449" y="73.5938"/><line style="stroke:#181818;stroke-width:0.5;stroke-dasharray:5.0,5.0;" x1="135" x2="135" y1="73.5938" y2="571.9844"/></g><g><title>Gateway_ipc_binding_server side</title><rect fill="transparent" height="498.3906" width="8" x="520.6875" y="73.5938"/><line style="stroke:#181818;stroke-width:0.5;stroke-dasharray:5.0,5.0;" x1="524.21" x2="524.21" y1="73.5938" y2="571.9844"/></g><rect fill="#E2E2F0" height="30.2969" rx="2.5" ry="2.5" style="stroke:#181818;stroke-width:0.5;" width="241.0898" x="15" y="42.2969"/><text fill="#000000" font-family="sans-serif" font-size="14" lengthAdjust="spacing" textLength="227.0898" x="22" y="62.292">Gateway_ipc_binding_client side</text><rect fill="#E2E2F0" height="30.2969" rx="2.5" ry="2.5" style="stroke:#181818;stroke-width:0.5;" width="241.0898" x="15" y="570.9844"/><text fill="#000000" font-family="sans-serif" font-size="14" lengthAdjust="spacing" textLength="227.0898" x="22" y="590.9795">Gateway_ipc_binding_client side</text><rect fill="#E2E2F0" height="30.2969" rx="2.5" ry="2.5" style="stroke:#181818;stroke-width:0.5;" width="246.9551" x="401.21" y="42.2969"/><text fill="#000000" font-family="sans-serif" font-size="14" lengthAdjust="spacing" textLength="232.9551" x="408.21" y="62.292">Gateway_ipc_binding_server side</text><rect fill="#E2E2F0" height="30.2969" rx="2.5" ry="2.5" style="stroke:#181818;stroke-width:0.5;" width="246.9551" x="401.21" y="570.9844"/><text fill="#000000" font-family="sans-serif" font-size="14" lengthAdjust="spacing" textLength="232.9551" x="408.21" y="590.9795">Gateway_ipc_binding_server side</text><polygon fill="#181818" points="512.6875,100.7266,522.6875,104.7266,512.6875,108.7266,516.6875,104.7266" style="stroke:#181818;stroke-width:1;"/><line style="stroke:#181818;stroke-width:1;" x1="135.5449" x2="518.6875" y1="104.7266" y2="104.7266"/><text fill="#000000" font-family="sans-serif" font-size="13" lengthAdjust="spacing" textLength="53.752" x="142.5449" y="99.6606">Connect</text><polygon fill="#181818" points="146.5449,129.8594,136.5449,133.8594,146.5449,137.8594,142.5449,133.8594" style="stroke:#181818;stroke-width:1;"/><line style="stroke:#181818;stroke-width:1;stroke-dasharray:2.0,2.0;" x1="140.5449" x2="523.6875" y1="133.8594" y2="133.8594"/><text fill="#000000" font-family="sans-serif" font-size="13" lengthAdjust="spacing" textLength="180.813" x="152.5449" y="128.7935">Connect_reply(status=true)</text><path d="M16,146.8594 L16,186.8594 L644,186.8594 L644,156.8594 L634,146.8594 L16,146.8594 " fill="#FEFFDD" style="stroke:#181818;stroke-width:0.5;"/><path d="M634,146.8594 L634,156.8594 L644,156.8594 L634,146.8594 " fill="#FEFFDD" style="stroke:#181818;stroke-width:0.5;"/><text fill="#000000" font-family="sans-serif" font-size="13" lengthAdjust="spacing" textLength="300.1616" x="175.5017" y="163.9263">Either side may request or offer services after</text><text fill="#000000" font-family="sans-serif" font-size="13" lengthAdjust="spacing" textLength="186.4243" x="175.5017" y="179.0591">the control channel is ready.</text><polygon fill="#181818" points="512.6875,209.2578,522.6875,213.2578,512.6875,217.2578,516.6875,213.2578" style="stroke:#181818;stroke-width:1;"/><line style="stroke:#181818;stroke-width:1;" x1="135.5449" x2="518.6875" y1="213.2578" y2="213.2578"/><text fill="#000000" font-family="sans-serif" font-size="13" lengthAdjust="spacing" textLength="313.7012" x="142.5449" y="208.1919">Request_service(service, instance, in_use=true)</text><polygon fill="#181818" points="146.5449,238.3906,136.5449,242.3906,146.5449,246.3906,142.5449,242.3906" style="stroke:#181818;stroke-width:1;"/><line style="stroke:#181818;stroke-width:1;stroke-dasharray:2.0,2.0;" x1="140.5449" x2="523.6875" y1="242.3906" y2="242.3906"/><text fill="#000000" font-family="sans-serif" font-size="13" lengthAdjust="spacing" textLength="298.3779" x="152.5449" y="237.3247">Offer_service(service, instance, offered=true)</text><path d="M16,255.3906 L16,295.3906 L644,295.3906 L644,265.3906 L634,255.3906 L16,255.3906 " fill="#FEFFDD" style="stroke:#181818;stroke-width:0.5;"/><path d="M634,255.3906 L634,265.3906 L644,265.3906 L634,255.3906 " fill="#FEFFDD" style="stroke:#181818;stroke-width:0.5;"/><text fill="#000000" font-family="sans-serif" font-size="13" lengthAdjust="spacing" textLength="299.7046" x="175.7302" y="272.4575">When a local request matches a remote offer,</text><text fill="#000000" font-family="sans-serif" font-size="13" lengthAdjust="spacing" textLength="157.7075" x="175.7302" y="287.5903">Connect_service is sent.</text><polygon fill="#181818" points="512.6875,332.9219,522.6875,336.9219,512.6875,340.9219,516.6875,336.9219" style="stroke:#181818;stroke-width:1;"/><line style="stroke:#181818;stroke-width:1;" x1="135.5449" x2="518.6875" y1="336.9219" y2="336.9219"/><text fill="#000000" font-family="sans-serif" font-size="13" lengthAdjust="spacing" textLength="225.9258" x="142.5449" y="316.7231">Connect_service(service, instance,</text><text fill="#000000" font-family="sans-serif" font-size="13" lengthAdjust="spacing" textLength="307.9121" x="142.5449" y="331.856">required_id, local_shm_metadata, in_use=true)</text><polygon fill="#181818" points="146.5449,377.1875,136.5449,381.1875,146.5449,385.1875,142.5449,381.1875" style="stroke:#181818;stroke-width:1;"/><line style="stroke:#181818;stroke-width:1;stroke-dasharray:2.0,2.0;" x1="140.5449" x2="523.6875" y1="381.1875" y2="381.1875"/><text fill="#000000" font-family="sans-serif" font-size="13" lengthAdjust="spacing" textLength="312.8125" x="152.5449" y="360.9888">Connect_service_reply(required_id, provided_id,</text><text fill="#000000" font-family="sans-serif" font-size="13" lengthAdjust="spacing" textLength="344.3984" x="152.5449" y="376.1216">remote_shm_metadata, num_methods, num_events)</text><path d="M16,394.1875 L16,419.1875 L644,419.1875 L644,404.1875 L634,394.1875 L16,394.1875 " fill="#FEFFDD" style="stroke:#181818;stroke-width:0.5;"/><path d="M634,394.1875 L634,404.1875 L644,404.1875 L634,394.1875 " fill="#FEFFDD" style="stroke:#181818;stroke-width:0.5;"/><text fill="#000000" font-family="sans-serif" font-size="13" lengthAdjust="spacing" textLength="379.9199" x="135.6226" y="411.2544">A local SOCom server connector is created from the reply.</text><polygon fill="#181818" points="512.6875,441.4531,522.6875,445.4531,512.6875,449.4531,516.6875,445.4531" style="stroke:#181818;stroke-width:1;"/><line style="stroke:#181818;stroke-width:1;" x1="135.5449" x2="518.6875" y1="445.4531" y2="445.4531"/><text fill="#000000" font-family="sans-serif" font-size="13" lengthAdjust="spacing" textLength="365.1426" x="142.5449" y="440.3872">Subscribe_event(provided_id, event_id, subscribe=true)</text><polygon fill="#181818" points="146.5449,470.5859,136.5449,474.5859,146.5449,478.5859,142.5449,474.5859" style="stroke:#181818;stroke-width:1;"/><line style="stroke:#181818;stroke-width:1;stroke-dasharray:2.0,2.0;" x1="140.5449" x2="523.6875" y1="474.5859" y2="474.5859"/><text fill="#000000" font-family="sans-serif" font-size="13" lengthAdjust="spacing" textLength="347.5151" x="152.5449" y="469.52">Event_update(required_id, event_id, payload_handle)</text><path d="M5,487.5859 L5,527.5859 L267,527.5859 L267,497.5859 L257,487.5859 L5,487.5859 " fill="#FEFFDD" style="stroke:#181818;stroke-width:0.5;"/><path d="M257,487.5859 L257,497.5859 L267,497.5859 L257,487.5859 " fill="#FEFFDD" style="stroke:#181818;stroke-width:0.5;"/><text fill="#000000" font-family="sans-serif" font-size="13" lengthAdjust="spacing" textLength="241.4839" x="11" y="504.6528">Open peer shared memory read-only</text><text fill="#000000" font-family="sans-serif" font-size="13" lengthAdjust="spacing" textLength="120.5166" x="11" y="519.7856">and build payload.</text><polygon fill="#181818" points="512.6875,549.9844,522.6875,553.9844,512.6875,557.9844,516.6875,553.9844" style="stroke:#181818;stroke-width:1;"/><line style="stroke:#181818;stroke-width:1;stroke-dasharray:2.0,2.0;" x1="135.5449" x2="518.6875" y1="553.9844" y2="553.9844"/><text fill="#000000" font-family="sans-serif" font-size="13" lengthAdjust="spacing" textLength="319.3633" x="142.5449" y="548.9185">Payload_consumed(required_id, payload_handle)</text><!--SRC=[ZLHDQoCn3BtxLuYUif3i3oXqeOIonvJsi9S5ezYQZi5Zp_eZPVvzvR6dRSAGx2aZMNfwxrbECiaIx7C8v18exnofPBm3T1heL9ATzUz2Z1YIKMP4pjpznaJlE4apAdaqJXlt9fKrfJeQJNU04MfykozIE57uwgkn40rlzwjbu1xsbPveYHsVjQhFCnbejDCc9amvFgIGwOSGpYS2Nrfg-NOPycHItsR3W1C4-fSf9l01VDUL4wupYY9WbxYUguj7ANWBgaUUQC54RaCz_HJ4bfLHgznVAhHiY9lskmNZcAohNp97QgJND1uAfsi8CsdIDtN_wObl6AnNQ3z53vXKNwHoPfWx2zfMBCwsUKLmPB0RUY-wLjZ-TMMoORxIw6qb8sC_o84IQapu7uvSJ6ctVuOx1d_Y-vs3Ch98knZZyXprNiSQp8iVhpdusCnxFUpziAXkpuUtXprIl1M9D7I12yhYpDnkkFQQZr45SwHAOVETV7sEyrTSogvOypHNvv4bqhaZNpWZJjQZbhpAsgvjZ3YCl2aZbQVG8mF0m0Q6QLxvdNTs4kMFufYDrGlQciJl6f_RK7Ohve7qnNMTK_e0]--></g></svg>