<svg xmlns="http://www.w3.org/2000/svg" xmlns:xlink="http://www.w3.org/1999/xlink" contentStyleType="text/css" data-diagram-type="SEQUENCE" height="819px" preserveAspectRatio="none" style="width:1003px;height:819px;background:#FFFFFF;" version="1.1" viewBox="0 0 1003 819" width="1003px" zoomAndPan="magnify"><defs/><g><g><title>&lt;&lt;component user&gt;&gt;</title><rect fill="#FFFFFF" height="686.9219" style="stroke:#181818;stroke-width:1;" width="10" x="72.7344" y="62.5938"/></g><g><title>&lt;&lt;component user&gt;&gt;</title><rect fill="#FFFFFF" height="29.1328" style="stroke:#181818;stroke-width:1;" width="10" x="77.7344" y="329.7891"/></g><g><title>&lt;&lt;component user&gt;&gt;</title><rect fill="#FFFFFF" height="29.1328" style="stroke:#181818;stroke-width:1;" width="10" x="77.7344" y="531.5859"/></g><g><title>SOCom</title><rect fill="#FFFFFF" height="145.6641" style="stroke:#181818;stroke-width:1;" width="10" x="407.8193" y="125.8594"/></g><g><title>SOCom</title><rect fill="#FFFFFF" height="87.3984" style="stroke:#181818;stroke-width:1;" width="10" x="407.8193" y="300.6563"/></g><g><title>SOCom</title><rect fill="#FFFFFF" height="87.3984" style="stroke:#181818;stroke-width:1;" width="10" x="407.8193" y="502.4531"/></g><g><title>SOCom</title><rect fill="#FFFFFF" height="87.3984" style="stroke:#181818;stroke-width:1;" width="10" x="407.8193" y="662.1172"/></g><g><title>&lt;&lt;component user&gt;&gt;</title><rect fill="#FFFFFF" height="695.9219" style="stroke:#181818;stroke-width:1;" width="10" x="776.9893" y="62.5938"/></g><g><title>&lt;&lt;component user&gt;&gt;</title><rect fill="#FFFFFF" height="29.1328" style="stroke:#181818;stroke-width:1;" width="10" x="781.9893" y="154.9922"/></g><g><title>&lt;&lt;component user&gt;&gt;</title><rect fill="#FFFFFF" height="29.1328" style="stroke:#181818;stroke-width:1;" width="10" x="781.9893" y="213.2578"/></g><g><title>&lt;&lt;component user&gt;&gt;</title><rect fill="#FFFFFF" height="29.1328" style="stroke:#181818;stroke-width:1;" width="10" x="781.9893" y="691.25"/></g><g><title>&lt;&lt;component user&gt;&gt;</title><rect fill="transparent" height="714.9219" width="8" x="73.7344" y="52.5938"/><line style="stroke:#181818;stroke-width:0.5;stroke-dasharray:5.0,5.0;" x1="77" x2="77" y1="52.5938" y2="767.5156"/></g><g><title>SOCom</title><rect fill="transparent" height="714.9219" width="8" x="408.8193" y="52.5938"/><line style="stroke:#181818;stroke-width:0.5;stroke-dasharray:5.0,5.0;" x1="411.877" x2="411.877" y1="52.5938" y2="767.5156"/></g><g><title>&lt;&lt;component user&gt;&gt;</title><rect fill="transparent" height="714.9219" width="8" x="777.9893" y="52.5938"/><line style="stroke:#181818;stroke-width:0.5;stroke-dasharray:5.0,5.0;" x1="781.2549" x2="781.2549" y1="52.5938" y2="767.5156"/></g><rect fill="#E2E2F0" height="46.5938" rx="2.5" ry="2.5" style="stroke:#181818;stroke-width:0.5;" width="145.4688" x="5" y="5"/><text fill="#000000" font-family="sans-serif" font-size="14" font-style="italic" lengthAdjust="spacing" textLength="131.4688" x="12" y="24.9951">&#171;component user&#187;</text><text fill="#000000" font-family="sans-serif" font-size="14" lengthAdjust="spacing" textLength="56.4375" x="49.5156" y="41.292">Client_1</text><rect fill="#E2E2F0" height="46.5938" rx="2.5" ry="2.5" style="stroke:#181818;stroke-width:0.5;" width="145.4688" x="5" y="766.5156"/><text fill="#000000" font-family="sans-serif" font-size="14" font-style="italic" lengthAdjust="spacing" textLength="131.4688" x="12" y="786.5107">&#171;component user&#187;</text><text fill="#000000" font-family="sans-serif" font-size="14" lengthAdjust="spacing" textLength="56.4375" x="49.5156" y="802.8076">Client_1</text><rect fill="#E2E2F0" height="30.2969" rx="2.5" ry="2.5" style="stroke:#181818;stroke-width:0.5;" width="65.8848" x="379.877" y="21.2969"/><text fill="#000000" font-family="sans-serif" font-size="14" lengthAdjust="spacing" textLength="51.8848" x="386.877" y="41.292">SOCom</text><rect fill="#E2E2F0" height="30.2969" rx="2.5" ry="2.5" style="stroke:#181818;stroke-width:0.5;" width="65.8848" x="379.877" y="766.5156"/><text fill="#000000" font-family="sans-serif" font-size="14" lengthAdjust="spacing" textLength="51.8848" x="386.877" y="786.5107">SOCom</text><rect fill="#E2E2F0" height="46.5938" rx="2.5" ry="2.5" style="stroke:#181818;stroke-width:0.5;" width="145.4688" x="709.2549" y="5"/><text fill="#000000" font-family="sans-serif" font-size="14" font-style="italic" lengthAdjust="spacing" textLength="131.4688" x="716.2549" y="24.9951">&#171;component user&#187;</text><text fill="#000000" font-family="sans-serif" font-size="14" lengthAdjust="spacing" textLength="45.9102" x="759.0342" y="41.292">Server</text><rect fill="#E2E2F0" height="46.5938" rx="2.5" ry="2.5" style="stroke:#181818;stroke-width:0.5;" width="145.4688" x="709.2549" y="766.5156"/><text fill="#000000" font-family="sans-serif" font-size="14" font-style="italic" lengthAdjust="spacing" textLength="131.4688" x="716.2549" y="786.5107">&#171;component user&#187;</text><text fill="#000000" font-family="sans-serif" font-size="14" lengthAdjust="spacing" textLength="45.9102" x="759.0342" y="802.8076">Server</text><g><title>&lt;&lt;component user&gt;&gt;</title><rect fill="#FFFFFF" height="686.9219" style="stroke:#181818;stroke-width:1;" width="10" x="72.7344" y="62.5938"/></g><g><title>&lt;&lt;component user&gt;&gt;</title><rect fill="#FFFFFF" height="29.1328" style="stroke:#181818;stroke-width:1;" width="10" x="77.7344" y="329.7891"/></g><g><title>&lt;&lt;component user&gt;&gt;</title><rect fill="#FFFFFF" height="29.1328" style="stroke:#181818;stroke-width:1;" width="10" x="77.7344" y="531.5859"/></g><g><title>SOCom</title><rect fill="#FFFFFF" height="145.6641" style="stroke:#181818;stroke-width:1;" width="10" x="407.8193" y="125.8594"/></g><g><title>SOCom</title><rect fill="#FFFFFF" height="87.3984" style="stroke:#181818;stroke-width:1;" width="10" x="407.8193" y="300.6563"/></g><g><title>SOCom</title><rect fill="#FFFFFF" height="87.3984" style="stroke:#181818;stroke-width:1;" width="10" x="407.8193" y="502.4531"/></g><g><title>SOCom</title><rect fill="#FFFFFF" height="87.3984" style="stroke:#181818;stroke-width:1;" width="10" x="407.8193" y="662.1172"/></g><g><title>&lt;&lt;component user&gt;&gt;</title><rect fill="#FFFFFF" height="695.9219" style="stroke:#181818;stroke-width:1;" width="10" x="776.9893" y="62.5938"/></g><g><title>&lt;&lt;component user&gt;&gt;</title><rect fill="#FFFFFF" height="29.1328" style="stroke:#181818;stroke-width:1;" width="10" x="781.9893" y="154.9922"/></g><g><title>&lt;&lt;component user&gt;&gt;</title><rect fill="#FFFFFF" height="29.1328" style="stroke:#181818;stroke-width:1;" width="10" x="781.9893" y="213.2578"/></g><g><title>&lt;&lt;component user&gt;&gt;</title><rect fill="#FFFFFF" height="29.1328" style="stroke:#181818;stroke-width:1;" width="10" x="781.9893" y="691.25"/></g><line style="stroke:#181818;stroke-width:1;" x1="786.9893" x2="828.9893" y1="83.7266" y2="83.7266"/><line style="stroke:#181818;stroke-width:1;" x1="828.9893" x2="828.9893" y1="83.7266" y2="96.7266"/><line style="stroke:#181818;stroke-width:1;" x1="787.9893" x2="828.9893" y1="96.7266" y2="96.7266"/><polygon fill="#181818" points="797.9893,92.7266,787.9893,96.7266,797.9893,100.7266,793.9893,96.7266" style="stroke:#181818;stroke-width:1;"/><text fill="#000000" font-family="sans-serif" font-size="13" font-weight="bold" lengthAdjust="spacing" textLength="9.0454" x="793.9893" y="78.6606">1</text><text fill="#000000" font-family="sans-serif" font-size="13" lengthAdjust="spacing" textLength="158.1519" x="807.0347" y="78.6606">field_update(x, payload)</text><polygon fill="#181818" points="395.8193,121.8594,405.8193,125.8594,395.8193,129.8594,399.8193,125.8594" style="stroke:#181818;stroke-width:1;"/><line style="stroke:#181818;stroke-width:1;" x1="82.7344" x2="401.8193" y1="125.8594" y2="125.8594"/><text fill="#000000" font-family="sans-serif" font-size="13" font-weight="bold" lengthAdjust="spacing" textLength="9.0454" x="89.7344" y="120.7935">2</text><text fill="#000000" font-family="sans-serif" font-size="13" lengthAdjust="spacing" textLength="293.0396" x="102.7798" y="120.7935">subscribe_event(x, update_and_initial_value)</text><polygon fill="#181818" points="769.9893,150.9922,779.9893,154.9922,769.9893,158.9922,773.9893,154.9922" style="stroke:#181818;stroke-width:1;"/><line style="stroke:#181818;stroke-width:1;" x1="417.8193" x2="775.9893" y1="154.9922" y2="154.9922"/><text fill="#000000" font-family="sans-serif" font-size="13" font-weight="bold" lengthAdjust="spacing" textLength="9.0454" x="424.8193" y="149.9263">3</text><text fill="#000000" font-family="sans-serif" font-size="13" lengthAdjust="spacing" textLength="296.6006" x="437.8647" y="149.9263">on_event_subscription_change(x, subscribed)</text><polygon fill="#181818" points="428.8193,180.125,418.8193,184.125,428.8193,188.125,424.8193,184.125" style="stroke:#181818;stroke-width:1;"/><line style="stroke:#181818;stroke-width:1;stroke-dasharray:2.0,2.0;" x1="422.8193" x2="775.9893" y1="184.125" y2="184.125"/><text fill="#000000" font-family="sans-serif" font-size="13" font-weight="bold" lengthAdjust="spacing" textLength="9.0454" x="434.8193" y="179.0591">4</text><text fill="#000000" font-family="sans-serif" font-size="13" lengthAdjust="spacing" textLength="4.1323" x="447.8647" y="179.0591">&#160;</text><polygon fill="#181818" points="769.9893,209.2578,779.9893,213.2578,769.9893,217.2578,773.9893,213.2578" style="stroke:#181818;stroke-width:1;"/><line style="stroke:#181818;stroke-width:1;" x1="417.8193" x2="775.9893" y1="213.2578" y2="213.2578"/><text fill="#000000" font-family="sans-serif" font-size="13" font-weight="bold" lengthAdjust="spacing" textLength="9.0454" x="424.8193" y="208.1919">5</text><text fill="#000000" font-family="sans-serif" font-size="13" lengthAdjust="spacing" textLength="163.3696" x="437.8647" y="208.1919">request_event_update(x)</text><polygon fill="#181818" points="428.8193,238.3906,418.8193,242.3906,428.8193,246.3906,424.8193,242.3906" style="stroke:#181818;stroke-width:1;"/><line style="stroke:#181818;stroke-width:1;stroke-dasharray:2.0,2.0;" x1="422.8193" x2="775.9893" y1="242.3906" y2="242.3906"/><text fill="#000000" font-family="sans-serif" font-size="13" font-weight="bold" lengthAdjust="spacing" textLength="9.0454" x="434.8193" y="237.3247">6</text><text fill="#000000" font-family="sans-serif" font-size="13" lengthAdjust="spacing" textLength="4.1323" x="447.8647" y="237.3247">&#160;</text><polygon fill="#181818" points="93.7344,267.5234,83.7344,271.5234,93.7344,275.5234,89.7344,271.5234" style="stroke:#181818;stroke-width:1;"/><line style="stroke:#181818;stroke-width:1;stroke-dasharray:2.0,2.0;" x1="87.7344" x2="411.8193" y1="271.5234" y2="271.5234"/><text fill="#000000" font-family="sans-serif" font-size="13" font-weight="bold" lengthAdjust="spacing" textLength="9.0454" x="99.7344" y="266.4575">7</text><text fill="#000000" font-family="sans-serif" font-size="13" lengthAdjust="spacing" textLength="4.1323" x="112.7798" y="266.4575">&#160;</text><polygon fill="#181818" points="428.8193,296.6563,418.8193,300.6563,428.8193,304.6563,424.8193,300.6563" style="stroke:#181818;stroke-width:1;"/><line style="stroke:#181818;stroke-width:1;" x1="422.8193" x2="775.9893" y1="300.6563" y2="300.6563"/><text fill="#000000" font-family="sans-serif" font-size="13" font-weight="bold" lengthAdjust="spacing" textLength="9.0454" x="434.8193" y="295.5903">8</text><text fill="#000000" font-family="sans-serif" font-size="13" lengthAdjust="spacing" textLength="239.5796" x="447.8647" y="295.5903">update_requested_event(x, payload)</text><polygon fill="#181818" points="98.7344,325.7891,88.7344,329.7891,98.7344,333.7891,94.7344,329.7891" style="stroke:#181818;stroke-width:1;"/><line style="stroke:#181818;stroke-width:1;" x1="92.7344" x2="406.8193" y1="329.7891" y2="329.7891"/><text fill="#000000" font-family="sans-serif" font-size="13" font-weight="bold" lengthAdjust="spacing" textLength="9.0454" x="104.7344" y="324.7231">9</text><text fill="#000000" font-family="sans-serif" font-size="13" lengthAdjust="spacing" textLength="262.2725" x="117.7798" y="324.7231">on_requested_event_update(x, payload)</text><polygon fill="#181818" points="395.8193,354.9219,405.8193,358.9219,395.8193,362.9219,399.8193,358.9219" style="stroke:#181818;stroke-width:1;"/><line style="stroke:#181818;stroke-width:1;stroke-dasharray:2.0,2.0;" x1="82.7344" x2="401.8193" y1="358.9219" y2="358.9219"/><text fill="#000000" font-family="sans-serif" font-size="13" font-weight="bold" lengthAdjust="spacing" textLength="18.0908" x="89.7344" y="353.856">10</text><text fill="#000000" font-family="sans-serif" font-size="13" lengthAdjust="spacing" textLength="4.1323" x="111.8252" y="353.856">&#160;</text><polygon fill="#181818" points="764.9893,384.0547,774.9893,388.0547,764.9893,392.0547,768.9893,388.0547" style="stroke:#181818;stroke-width:1;"/><line style="stroke:#181818;stroke-width:1;stroke-dasharray:2.0,2.0;" x1="412.8193" x2="770.9893" y1="388.0547" y2="388.0547"/><text fill="#000000" font-family="sans-serif" font-size="13" font-weight="bold" lengthAdjust="spacing" textLength="18.0908" x="419.8193" y="382.9888">11</text><text fill="#000000" font-family="sans-serif" font-size="13" lengthAdjust="spacing" textLength="4.1323" x="441.9102" y="382.9888">&#160;</text><rect fill="#EEEEEE" height="3" style="stroke:#EEEEEE;stroke-width:1;" width="996.2319" x="0" y="416.6211"/><line style="stroke:#000000;stroke-width:1;" x1="0" x2="996.2319" y1="416.6211" y2="416.6211"/><line style="stroke:#000000;stroke-width:1;" x1="0" x2="996.2319" y1="419.6211" y2="419.6211"/><rect fill="#EEEEEE" height="23.1328" style="stroke:#000000;stroke-width:2;" width="33.3413" x="481.4453" y="406.0547"/><text fill="#000000" font-family="sans-serif" font-size="13" font-weight="bold" lengthAdjust="spacing" textLength="14.8154" x="487.4453" y="422.1216">...</text><line style="stroke:#181818;stroke-width:1;" x1="786.9893" x2="828.9893" y1="460.3203" y2="460.3203"/><line style="stroke:#181818;stroke-width:1;" x1="828.9893" x2="828.9893" y1="460.3203" y2="473.3203"/><line style="stroke:#181818;stroke-width:1;" x1="787.9893" x2="828.9893" y1="473.3203" y2="473.3203"/><polygon fill="#181818" points="797.9893,469.3203,787.9893,473.3203,797.9893,477.3203,793.9893,473.3203" style="stroke:#181818;stroke-width:1;"/><text fill="#000000" font-family="sans-serif" font-size="13" font-weight="bold" lengthAdjust="spacing" textLength="18.0908" x="793.9893" y="455.2544">12</text><text fill="#000000" font-family="sans-serif" font-size="13" lengthAdjust="spacing" textLength="158.1519" x="816.0801" y="455.2544">field_update(x, payload)</text><polygon fill="#181818" points="428.8193,498.4531,418.8193,502.4531,428.8193,506.4531,424.8193,502.4531" style="stroke:#181818;stroke-width:1;"/><line style="stroke:#181818;stroke-width:1;" x1="422.8193" x2="775.9893" y1="502.4531" y2="502.4531"/><text fill="#000000" font-family="sans-serif" font-size="13" font-weight="bold" lengthAdjust="spacing" textLength="18.0908" x="434.8193" y="497.3872">13</text><text fill="#000000" font-family="sans-serif" font-size="13" lengthAdjust="spacing" textLength="167.1274" x="456.9102" y="497.3872">update_event(x, payload)</text><polygon fill="#181818" points="98.7344,527.5859,88.7344,531.5859,98.7344,535.5859,94.7344,531.5859" style="stroke:#181818;stroke-width:1;"/><line style="stroke:#181818;stroke-width:1;" x1="92.7344" x2="406.8193" y1="531.5859" y2="531.5859"/><text fill="#000000" font-family="sans-serif" font-size="13" font-weight="bold" lengthAdjust="spacing" textLength="18.0908" x="104.7344" y="526.52">14</text><text fill="#000000" font-family="sans-serif" font-size="13" lengthAdjust="spacing" textLength="189.8203" x="126.8252" y="526.52">on_event_update(x, payload)</text><polygon fill="#181818" points="395.8193,556.7188,405.8193,560.7188,395.8193,564.7188,399.8193,560.7188" style="stroke:#181818;stroke-width:1;"/><line style="stroke:#181818;stroke-width:1;stroke-dasharray:2.0,2.0;" x1="82.7344" x2="401.8193" y1="560.7188" y2="560.7188"/><text fill="#000000" font-family="sans-serif" font-size="13" font-weight="bold" lengthAdjust="spacing" textLength="18.0908" x="89.7344" y="555.6528">15</text><text fill="#000000" font-family="sans-serif" font-size="13" lengthAdjust="spacing" textLength="4.1323" x="111.8252" y="555.6528">&#160;</text><polygon fill="#181818" points="764.9893,585.8516,774.9893,589.8516,764.9893,593.8516,768.9893,589.8516" style="stroke:#181818;stroke-width:1;"/><line style="stroke:#181818;stroke-width:1;stroke-dasharray:2.0,2.0;" x1="412.8193" x2="770.9893" y1="589.8516" y2="589.8516"/><text fill="#000000" font-family="sans-serif" font-size="13" font-weight="bold" lengthAdjust="spacing" textLength="18.0908" x="419.8193" y="584.7856">16</text><text fill="#000000" font-family="sans-serif" font-size="13" lengthAdjust="spacing" textLength="4.1323" x="441.9102" y="584.7856">&#160;</text><rect fill="#EEEEEE" height="3" style="stroke:#EEEEEE;stroke-width:1;" width="996.2319" x="0" y="618.418"/><line style="stroke:#000000;stroke-width:1;" x1="0" x2="996.2319" y1="618.418" y2="618.418"/><line style="stroke:#000000;stroke-width:1;" x1="0" x2="996.2319" y1="621.418" y2="621.418"/><rect fill="#EEEEEE" height="23.1328" style="stroke:#000000;stroke-width:2;" width="33.3413" x="481.4453" y="607.8516"/><text fill="#000000" font-family="sans-serif" font-size="13" font-weight="bold" lengthAdjust="spacing" textLength="14.8154" x="487.4453" y="623.9185">...</text><polygon fill="#181818" points="395.8193,658.1172,405.8193,662.1172,395.8193,666.1172,399.8193,662.1172" style="stroke:#181818;stroke-width:1;"/><line style="stroke:#181818;stroke-width:1;" x1="82.7344" x2="401.8193" y1="662.1172" y2="662.1172"/><text fill="#000000" font-family="sans-serif" font-size="13" font-weight="bold" lengthAdjust="spacing" textLength="18.0908" x="89.7344" y="657.0513">17</text><text fill="#000000" font-family="sans-serif" font-size="13" lengthAdjust="spacing" textLength="140.2324" x="111.8252" y="657.0513">unsubscribe_event(x)</text><polygon fill="#181818" points="769.9893,687.25,779.9893,691.25,769.9893,695.25,773.9893,691.25" style="stroke:#181818;stroke-width:1;"/><line style="stroke:#181818;stroke-width:1;" x1="417.8193" x2="775.9893" y1="691.25" y2="691.25"/><text fill="#000000" font-family="sans-serif" font-size="13" font-weight="bold" lengthAdjust="spacing" textLength="18.0908" x="424.8193" y="686.1841">18</text><text fill="#000000" font-family="sans-serif" font-size="13" lengthAdjust="spacing" textLength="313.0791" x="446.9102" y="686.1841">on_event_subscription_change(x, unsubscribed)</text><polygon fill="#181818" points="428.8193,716.3828,418.8193,720.3828,428.8193,724.3828,424.8193,720.3828" style="stroke:#181818;stroke-width:1;"/><line style="stroke:#181818;stroke-width:1;stroke-dasharray:2.0,2.0;" x1="422.8193" x2="775.9893" y1="720.3828" y2="720.3828"/><text fill="#000000" font-family="sans-serif" font-size="13" font-weight="bold" lengthAdjust="spacing" textLength="18.0908" x="434.8193" y="715.3169">19</text><text fill="#000000" font-family="sans-serif" font-size="13" lengthAdjust="spacing" textLength="4.1323" x="456.9102" y="715.3169">&#160;</text><polygon fill="#181818" points="88.7344,745.5156,78.7344,749.5156,88.7344,753.5156,84.7344,749.5156" style="stroke:#181818;stroke-width:1;"/><line style="stroke:#181818;stroke-width:1;stroke-dasharray:2.0,2.0;" x1="82.7344" x2="411.8193" y1="749.5156" y2="749.5156"/><text fill="#000000" font-family="sans-serif" font-size="13" font-weight="bold" lengthAdjust="spacing" textLength="18.0908" x="94.7344" y="744.4497">20</text><text fill="#000000" font-family="sans-serif" font-size="13" lengthAdjust="spacing" textLength="4.1323" x="116.8252" y="744.4497">&#160;</text><!--SRC=[hP91ReKW48Rtd89bJLgJRfkdctU0Bde0CiAq9L6W2AQzVL4HhM9UNjATuF3nVyCOi4voQK0vUcqbAiUUwUN2TMUq2YlgUxHrJSocxktrghk_EsW7jBbp1BpJodSDsl3DdHp0OQnVrylDX4JIKxqmN-Yxn5OmRqIeVFX-f0P-MWsY82G57il7KA6wzqtFhMoGuH1-ZWVcemoKO5999w5b0xGUYssYoOdCbEtjMiqW5i76oR35Fq5zJ6dIVI7Gti-YyrRbg1Q_FFOkeXUtSq8YhUs9lb4k0b6isgbFEycK9hLlijmHSWq_lbVCjSIhAbgM9QsgEn_oLEkcp9dD_GuvYTo0UNKOiU8VvcY35JVdGE11unS0]--></g></svg>