<svg xmlns="http://www.w3.org/2000/svg" xmlns:xlink="http://www.w3.org/1999/xlink" contentStyleType="text/css" data-diagram-type="SEQUENCE" height="1042px" preserveAspectRatio="none" style="width:1404px;height:1042px;background:#FFFFFF;" version="1.1" viewBox="0 0 1404 1042" width="1404px" zoomAndPan="magnify"><defs/><g><g><title>&lt;&lt;component user&gt;&gt;</title><rect fill="#FFFFFF" height="918.875" style="stroke:#181818;stroke-width:1;" width="10" x="72.7344" y="62.5938"/></g><g><title>SOCom</title><rect fill="#FFFFFF" height="844.6094" style="stroke:#181818;stroke-width:1;" width="10" x="431.3862" y="136.8594"/></g><g><title>SOCom</title><rect fill="#FFFFFF" height="29.1328" style="stroke:#181818;stroke-width:1;" width="10" x="436.3862" y="240.8828"/></g><g><title>SOCom</title><rect fill="#FFFFFF" height="69.9648" style="stroke:#181818;stroke-width:1;" width="10" x="436.3862" y="299.1484"/></g><g><title>SOCom</title><rect fill="#FFFFFF" height="183.9297" style="stroke:#181818;stroke-width:1;" width="10" x="436.3862" y="482.2109"/></g><g><title>SOCom</title><rect fill="#FFFFFF" height="29.1328" style="stroke:#181818;stroke-width:1;" width="10" x="436.3862" y="819.8047"/></g><g><title>&lt;&lt;component user&gt;&gt;</title><rect fill="#FFFFFF" height="803.3125" style="stroke:#181818;stroke-width:1;" width="10" x="873.8779" y="178.1563"/></g><g><title>&lt;&lt;component user&gt;&gt;</title><rect fill="#FFFFFF" height="125.6641" style="stroke:#181818;stroke-width:1;" width="10" x="878.8779" y="511.3438"/></g><rect fill="transparent" height="82.5313" style="stroke:#000000;stroke-width:1.5;" width="456.3071" x="782.7485" y="526.3438"/><rect fill="transparent" height="67.3984" style="stroke:#000000;stroke-width:1.5;" width="604.5815" x="782.7485" y="724.2734"/><rect fill="transparent" height="67.3984" style="stroke:#000000;stroke-width:1.5;" width="822.0063" x="393.4438" y="863.9375"/><g><title>&lt;&lt;component user&gt;&gt;</title><rect fill="transparent" height="937.875" width="8" x="73.7344" y="52.5938"/><line style="stroke:#181818;stroke-width:0.5;stroke-dasharray:5.0,5.0;" x1="77" x2="77" y1="52.5938" y2="990.4688"/></g><g><title>SOCom</title><rect fill="transparent" height="854.0938" width="8" x="432.3862" y="136.375"/><line style="stroke:#181818;stroke-width:0.5;stroke-dasharray:5.0,5.0;" x1="435.4438" x2="435.4438" y1="136.375" y2="990.4688"/></g><g><title>&lt;&lt;component user&gt;&gt;</title><rect fill="transparent" height="804.6484" width="8" x="874.8779" y="185.8203"/><line style="stroke:#181818;stroke-width:0.5;stroke-dasharray:5.0,5.0;" x1="878.7485" x2="878.7485" y1="185.8203" y2="990.4688"/></g><rect fill="#E2E2F0" height="46.5938" rx="2.5" ry="2.5" style="stroke:#181818;stroke-width:0.5;" width="145.4688" x="5" y="5"/><text fill="#000000" font-family="sans-serif" font-size="14" font-style="italic" lengthAdjust="spacing" textLength="131.4688" x="12" y="24.9951">&#171;component user&#187;</text><text fill="#000000" font-family="sans-serif" font-size="14" lengthAdjust="spacing" textLength="78.2236" x="38.6226" y="41.292">Application</text><rect fill="#E2E2F0" height="46.5938" rx="2.5" ry="2.5" style="stroke:#181818;stroke-width:0.5;" width="145.4688" x="5" y="989.4688"/><text fill="#000000" font-family="sans-serif" font-size="14" font-style="italic" lengthAdjust="spacing" textLength="131.4688" x="12" y="1009.4639">&#171;component user&#187;</text><text fill="#000000" font-family="sans-serif" font-size="14" lengthAdjust="spacing" textLength="78.2236" x="38.6226" y="1025.7607">Application</text><rect fill="#E2E2F0" height="30.2969" rx="2.5" ry="2.5" style="stroke:#181818;stroke-width:0.5;" width="65.8848" x="403.4438" y="989.4688"/><text fill="#000000" font-family="sans-serif" font-size="14" lengthAdjust="spacing" textLength="51.8848" x="410.4438" y="1009.4639">SOCom</text><rect fill="#E2E2F0" height="46.5938" rx="2.5" ry="2.5" style="stroke:#181818;stroke-width:0.5;" width="172.2588" x="792.7485" y="989.4688"/><text fill="#000000" font-family="sans-serif" font-size="14" font-style="italic" lengthAdjust="spacing" textLength="131.4688" x="813.1436" y="1009.4639">&#171;component user&#187;</text><text fill="#000000" font-family="sans-serif" font-size="14" lengthAdjust="spacing" textLength="158.2588" x="799.7485" y="1025.7607">Generic service bridge</text><g><title>&lt;&lt;component user&gt;&gt;</title><rect fill="#FFFFFF" height="918.875" style="stroke:#181818;stroke-width:1;" width="10" x="72.7344" y="62.5938"/></g><g><title>SOCom</title><rect fill="#FFFFFF" height="844.6094" style="stroke:#181818;stroke-width:1;" width="10" x="431.3862" y="136.8594"/></g><g><title>SOCom</title><rect fill="#FFFFFF" height="29.1328" style="stroke:#181818;stroke-width:1;" width="10" x="436.3862" y="240.8828"/></g><g><title>SOCom</title><rect fill="#FFFFFF" height="69.9648" style="stroke:#181818;stroke-width:1;" width="10" x="436.3862" y="299.1484"/></g><g><title>SOCom</title><rect fill="#FFFFFF" height="183.9297" style="stroke:#181818;stroke-width:1;" width="10" x="436.3862" y="482.2109"/></g><g><title>SOCom</title><rect fill="#FFFFFF" height="29.1328" style="stroke:#181818;stroke-width:1;" width="10" x="436.3862" y="819.8047"/></g><g><title>&lt;&lt;component user&gt;&gt;</title><rect fill="#FFFFFF" height="803.3125" style="stroke:#181818;stroke-width:1;" width="10" x="873.8779" y="178.1563"/></g><g><title>&lt;&lt;component user&gt;&gt;</title><rect fill="#FFFFFF" height="125.6641" style="stroke:#181818;stroke-width:1;" width="10" x="878.8779" y="511.3438"/></g><rect fill="#EEEEEE" height="3" style="stroke:#EEEEEE;stroke-width:1;" width="1397.3301" x="0" y="83.1602"/><line style="stroke:#000000;stroke-width:1;" x1="0" x2="1397.3301" y1="83.1602" y2="83.1602"/><line style="stroke:#000000;stroke-width:1;" x1="0" x2="1397.3301" y1="86.1602" y2="86.1602"/><rect fill="#EEEEEE" height="23.1328" style="stroke:#000000;stroke-width:2;" width="110.624" x="643.353" y="72.5938"/><text fill="#000000" font-family="sans-serif" font-size="13" font-weight="bold" lengthAdjust="spacing" textLength="92.0981" x="649.353" y="88.6606">Initialization</text><polygon fill="#181818" points="391.4438,122.8594,401.4438,126.8594,391.4438,130.8594,395.4438,126.8594" style="stroke:#181818;stroke-width:1;"/><line style="stroke:#181818;stroke-width:1;" x1="82.7344" x2="397.4438" y1="126.8594" y2="126.8594"/><text fill="#000000" font-family="sans-serif" font-size="13" font-weight="bold" lengthAdjust="spacing" textLength="9.0454" x="89.7344" y="121.7935">1</text><text fill="#000000" font-family="sans-serif" font-size="13" lengthAdjust="spacing" textLength="109.3892" x="102.7798" y="121.7935">create_runtime()</text><rect fill="#E2E2F0" height="30.2969" rx="2.5" ry="2.5" style="stroke:#181818;stroke-width:0.5;" width="65.8848" x="403.4438" y="105.7266"/><text fill="#000000" font-family="sans-serif" font-size="14" lengthAdjust="spacing" textLength="51.8848" x="410.4438" y="125.7217">SOCom</text><polygon fill="#181818" points="780.7485,164.1563,790.7485,168.1563,780.7485,172.1563,784.7485,168.1563" style="stroke:#181818;stroke-width:1;"/><line style="stroke:#181818;stroke-width:1;" x1="82.7344" x2="786.7485" y1="168.1563" y2="168.1563"/><text fill="#000000" font-family="sans-serif" font-size="13" font-weight="bold" lengthAdjust="spacing" textLength="9.0454" x="89.7344" y="163.0903">2</text><text fill="#000000" font-family="sans-serif" font-size="13" lengthAdjust="spacing" textLength="179.9497" x="102.7798" y="163.0903">create_bridge_component()</text><rect fill="#E2E2F0" height="46.5938" rx="2.5" ry="2.5" style="stroke:#181818;stroke-width:0.5;" width="172.2588" x="792.7485" y="147.0234"/><text fill="#000000" font-family="sans-serif" font-size="14" font-style="italic" lengthAdjust="spacing" textLength="131.4688" x="813.1436" y="167.0186">&#171;component user&#187;</text><text fill="#000000" font-family="sans-serif" font-size="14" lengthAdjust="spacing" textLength="158.2588" x="799.7485" y="183.3154">Generic service bridge</text><polygon fill="#181818" points="457.3862,236.8828,447.3862,240.8828,457.3862,244.8828,453.3862,240.8828" style="stroke:#181818;stroke-width:1;"/><line style="stroke:#181818;stroke-width:1;" x1="451.3862" x2="872.8779" y1="240.8828" y2="240.8828"/><text fill="#000000" font-family="sans-serif" font-size="13" font-weight="bold" lengthAdjust="spacing" textLength="9.0454" x="463.3862" y="228.2505">3</text><text fill="#000000" font-family="sans-serif" font-size="13" lengthAdjust="spacing" textLength="151.6963" x="476.4316" y="220.6841">register_service_bridge</text><text fill="#000000" font-family="sans-serif" font-size="13" lengthAdjust="spacing" textLength="364.2349" x="476.4316" y="235.8169">(bridge_subscribe_find_service, bridge_request_service)</text><polygon fill="#181818" points="861.8779,266.0156,871.8779,270.0156,861.8779,274.0156,865.8779,270.0156" style="stroke:#181818;stroke-width:1;"/><line style="stroke:#181818;stroke-width:1;stroke-dasharray:2.0,2.0;" x1="441.3862" x2="867.8779" y1="270.0156" y2="270.0156"/><text fill="#000000" font-family="sans-serif" font-size="13" font-weight="bold" lengthAdjust="spacing" textLength="9.0454" x="448.3862" y="264.9497">4</text><text fill="#000000" font-family="sans-serif" font-size="13" lengthAdjust="spacing" textLength="4.1323" x="461.4316" y="264.9497">&#160;</text><polygon fill="#181818" points="457.3862,295.1484,447.3862,299.1484,457.3862,303.1484,453.3862,299.1484" style="stroke:#181818;stroke-width:1;"/><line style="stroke:#181818;stroke-width:1;" x1="451.3862" x2="872.8779" y1="299.1484" y2="299.1484"/><text fill="#000000" font-family="sans-serif" font-size="13" font-weight="bold" lengthAdjust="spacing" textLength="9.0454" x="463.3862" y="294.0825">5</text><text fill="#000000" font-family="sans-serif" font-size="13" lengthAdjust="spacing" textLength="289.4023" x="476.4316" y="294.0825">subscribe_find_service(bridge_find_callback)</text><polygon fill="#181818" points="861.8779,365.1133,871.8779,369.1133,861.8779,373.1133,865.8779,369.1133" style="stroke:#181818;stroke-width:1;"/><line style="stroke:#181818;stroke-width:1;stroke-dasharray:2.0,2.0;" x1="441.3862" x2="867.8779" y1="369.1133" y2="369.1133"/><text fill="#000000" font-family="sans-serif" font-size="13" font-weight="bold" lengthAdjust="spacing" textLength="9.0454" x="448.3862" y="364.0474">6</text><text fill="#000000" font-family="sans-serif" font-size="13" lengthAdjust="spacing" textLength="4.1323" x="461.4316" y="364.0474">&#160;</text><path d="M888,312.1484 L888,412.1484 L1265,412.1484 L1265,322.1484 L1255,312.1484 L888,312.1484 " fill="#FEFFDD" style="stroke:#181818;stroke-width:0.5;"/><path d="M1255,312.1484 L1255,322.1484 L1265,322.1484 L1255,312.1484 " fill="#FEFFDD" style="stroke:#181818;stroke-width:0.5;"/><text fill="#000000" font-family="sans-serif" font-size="13" lengthAdjust="spacing" textLength="270.5625" x="894" y="329.2153">A generic service bridge (e.g. bridge::ipc)</text><text fill="#000000" font-family="sans-serif" font-size="13" lengthAdjust="spacing" textLength="247.6729" x="894" y="344.3481">is interested in every service instance</text><text fill="#000000" font-family="sans-serif" font-size="13" lengthAdjust="spacing" textLength="157.8281" x="894" y="359.481">within the local process.</text><text fill="#000000" font-family="sans-serif" font-size="13" lengthAdjust="spacing" textLength="238.0054" x="894" y="374.6138">This enables a config-free (dynamic)</text><text fill="#000000" font-family="sans-serif" font-size="13" lengthAdjust="spacing" textLength="322.1816" x="894" y="389.7466">implementation of service discovery functionality</text><text fill="#000000" font-family="sans-serif" font-size="13" lengthAdjust="spacing" textLength="356.5225" x="894" y="404.8794">based on the pure internal service instance identifiers.</text><rect fill="#EEEEEE" height="3" style="stroke:#EEEEEE;stroke-width:1;" width="1397.3301" x="0" y="438.5117"/><line style="stroke:#000000;stroke-width:1;" x1="0" x2="1397.3301" y1="438.5117" y2="438.5117"/><line style="stroke:#000000;stroke-width:1;" x1="0" x2="1397.3301" y1="441.5117" y2="441.5117"/><rect fill="#EEEEEE" height="23.1328" style="stroke:#000000;stroke-width:2;" width="307.249" x="545.0405" y="427.9453"/><text fill="#000000" font-family="sans-serif" font-size="13" font-weight="bold" lengthAdjust="spacing" textLength="288.7231" x="551.0405" y="444.0122">Application requests a service instance</text><polygon fill="#181818" points="424.3862,478.2109,434.3862,482.2109,424.3862,486.2109,428.3862,482.2109" style="stroke:#181818;stroke-width:1;"/><line style="stroke:#181818;stroke-width:1;" x1="82.7344" x2="430.3862" y1="482.2109" y2="482.2109"/><text fill="#000000" font-family="sans-serif" font-size="13" font-weight="bold" lengthAdjust="spacing" textLength="9.0454" x="89.7344" y="477.145">7</text><text fill="#000000" font-family="sans-serif" font-size="13" lengthAdjust="spacing" textLength="311.6064" x="102.7798" y="477.145">make_client_connector(interface_A, instance_1)</text><polygon fill="#181818" points="866.8779,507.3438,876.8779,511.3438,866.8779,515.3438,870.8779,511.3438" style="stroke:#181818;stroke-width:1;"/><line style="stroke:#181818;stroke-width:1;" x1="446.3862" x2="872.8779" y1="511.3438" y2="511.3438"/><text fill="#000000" font-family="sans-serif" font-size="13" font-weight="bold" lengthAdjust="spacing" textLength="9.0454" x="453.3862" y="506.2778">8</text><text fill="#000000" font-family="sans-serif" font-size="13" lengthAdjust="spacing" textLength="312.603" x="466.4316" y="506.2778">bridge_request_service(interface_A, instance_1)</text><path d="M782.7485,526.3438 L990.7183,526.3438 L990.7183,533.4766 L980.7183,543.4766 L782.7485,543.4766 L782.7485,526.3438 " fill="#EEEEEE" style="stroke:#000000;stroke-width:1.5;"/><rect fill="transparent" height="82.5313" style="stroke:#000000;stroke-width:1.5;" width="456.3071" x="782.7485" y="526.3438"/><text fill="#000000" font-family="sans-serif" font-size="13" font-weight="bold" lengthAdjust="spacing" textLength="162.9697" x="797.7485" y="539.4106">Implementation detail</text><line style="stroke:#181818;stroke-width:1;" x1="888.8779" x2="930.8779" y1="576.2422" y2="576.2422"/><line style="stroke:#181818;stroke-width:1;" x1="930.8779" x2="930.8779" y1="576.2422" y2="589.2422"/><line style="stroke:#181818;stroke-width:1;" x1="889.8779" x2="930.8779" y1="589.2422" y2="589.2422"/><polygon fill="#181818" points="899.8779,585.2422,889.8779,589.2422,899.8779,593.2422,895.8779,589.2422" style="stroke:#181818;stroke-width:1;"/><text fill="#000000" font-family="sans-serif" font-size="13" font-weight="bold" lengthAdjust="spacing" textLength="9.0454" x="895.8779" y="571.1763">9</text><text fill="#000000" font-family="sans-serif" font-size="13" lengthAdjust="spacing" textLength="4.1323" x="908.9233" y="571.1763">&#160;</text><path d="M958,548.4766 L958,603.4766 L1213,603.4766 L1213,558.4766 L1203,548.4766 L958,548.4766 " fill="#FEFFDD" style="stroke:#181818;stroke-width:0.5;"/><path d="M1203,548.4766 L1203,558.4766 L1213,558.4766 L1203,548.4766 " fill="#FEFFDD" style="stroke:#181818;stroke-width:0.5;"/><text fill="#000000" font-family="sans-serif" font-size="13" lengthAdjust="spacing" textLength="173.4434" x="964" y="565.5435">The generic service bridge</text><text fill="#000000" font-family="sans-serif" font-size="13" lengthAdjust="spacing" textLength="234.1777" x="964" y="580.6763">requests for the service instance on</text><text fill="#000000" font-family="sans-serif" font-size="13" lengthAdjust="spacing" textLength="158.3867" x="964" y="595.8091">its remote counterparts.</text><polygon fill="#181818" points="457.3862,633.0078,447.3862,637.0078,457.3862,641.0078,453.3862,637.0078" style="stroke:#181818;stroke-width:1;"/><line style="stroke:#181818;stroke-width:1;stroke-dasharray:2.0,2.0;" x1="451.3862" x2="872.8779" y1="637.0078" y2="637.0078"/><text fill="#000000" font-family="sans-serif" font-size="13" font-weight="bold" lengthAdjust="spacing" textLength="18.0908" x="463.3862" y="631.9419">10</text><text fill="#000000" font-family="sans-serif" font-size="13" lengthAdjust="spacing" textLength="4.1323" x="485.4771" y="631.9419">&#160;</text><polygon fill="#181818" points="93.7344,662.1406,83.7344,666.1406,93.7344,670.1406,89.7344,666.1406" style="stroke:#181818;stroke-width:1;"/><line style="stroke:#181818;stroke-width:1;stroke-dasharray:2.0,2.0;" x1="87.7344" x2="430.3862" y1="666.1406" y2="666.1406"/><text fill="#000000" font-family="sans-serif" font-size="13" font-weight="bold" lengthAdjust="spacing" textLength="18.0908" x="99.7344" y="661.0747">11</text><text fill="#000000" font-family="sans-serif" font-size="13" lengthAdjust="spacing" textLength="4.1323" x="121.8252" y="661.0747">&#160;</text><rect fill="#EEEEEE" height="3" style="stroke:#EEEEEE;stroke-width:1;" width="1397.3301" x="0" y="694.707"/><line style="stroke:#000000;stroke-width:1;" x1="0" x2="1397.3301" y1="694.707" y2="694.707"/><line style="stroke:#000000;stroke-width:1;" x1="0" x2="1397.3301" y1="697.707" y2="697.707"/><rect fill="#EEEEEE" height="23.1328" style="stroke:#000000;stroke-width:2;" width="257.3564" x="569.9868" y="684.1406"/><text fill="#000000" font-family="sans-serif" font-size="13" font-weight="bold" lengthAdjust="spacing" textLength="238.8306" x="575.9868" y="700.2075">remote service instance connect</text><path d="M782.7485,724.2734 L990.7183,724.2734 L990.7183,731.4063 L980.7183,741.4063 L782.7485,741.4063 L782.7485,724.2734 " fill="#EEEEEE" style="stroke:#000000;stroke-width:1.5;"/><rect fill="transparent" height="67.3984" style="stroke:#000000;stroke-width:1.5;" width="604.5815" x="782.7485" y="724.2734"/><text fill="#000000" font-family="sans-serif" font-size="13" font-weight="bold" lengthAdjust="spacing" textLength="162.9697" x="797.7485" y="737.3403">Implementation detail</text><line style="stroke:#181818;stroke-width:1;" x1="883.8779" x2="925.8779" y1="766.6055" y2="766.6055"/><line style="stroke:#181818;stroke-width:1;" x1="925.8779" x2="925.8779" y1="766.6055" y2="779.6055"/><line style="stroke:#181818;stroke-width:1;" x1="884.8779" x2="925.8779" y1="779.6055" y2="779.6055"/><polygon fill="#181818" points="894.8779,775.6055,884.8779,779.6055,894.8779,783.6055,890.8779,779.6055" style="stroke:#181818;stroke-width:1;"/><text fill="#000000" font-family="sans-serif" font-size="13" font-weight="bold" lengthAdjust="spacing" textLength="18.0908" x="890.8779" y="761.5396">12</text><text fill="#000000" font-family="sans-serif" font-size="13" lengthAdjust="spacing" textLength="4.1323" x="912.9688" y="761.5396">&#160;</text><path d="M948,746.4063 L948,786.4063 L1366,786.4063 L1366,756.4063 L1356,746.4063 L948,746.4063 " fill="#FEFFDD" style="stroke:#181818;stroke-width:0.5;"/><path d="M1356,746.4063 L1356,756.4063 L1366,756.4063 L1356,746.4063 " fill="#FEFFDD" style="stroke:#181818;stroke-width:0.5;"/><text fill="#000000" font-family="sans-serif" font-size="13" lengthAdjust="spacing" textLength="397.4521" x="954" y="763.4731">The generic service bridge connects to a remote counterpart</text><text fill="#000000" font-family="sans-serif" font-size="13" lengthAdjust="spacing" textLength="216.3408" x="954" y="778.606">which hosts the service instance.</text><polygon fill="#181818" points="457.3862,815.8047,447.3862,819.8047,457.3862,823.8047,453.3862,819.8047" style="stroke:#181818;stroke-width:1;"/><line style="stroke:#181818;stroke-width:1;" x1="451.3862" x2="872.8779" y1="819.8047" y2="819.8047"/><text fill="#000000" font-family="sans-serif" font-size="13" font-weight="bold" lengthAdjust="spacing" textLength="18.0908" x="463.3862" y="814.7388">13</text><text fill="#000000" font-family="sans-serif" font-size="13" lengthAdjust="spacing" textLength="317.0527" x="485.4771" y="814.7388">make_server_connector(interface_A, instance_1)</text><polygon fill="#181818" points="861.8779,844.9375,871.8779,848.9375,861.8779,852.9375,865.8779,848.9375" style="stroke:#181818;stroke-width:1;"/><line style="stroke:#181818;stroke-width:1;stroke-dasharray:2.0,2.0;" x1="441.3862" x2="867.8779" y1="848.9375" y2="848.9375"/><text fill="#000000" font-family="sans-serif" font-size="13" font-weight="bold" lengthAdjust="spacing" textLength="18.0908" x="448.3862" y="843.8716">14</text><text fill="#000000" font-family="sans-serif" font-size="13" lengthAdjust="spacing" textLength="4.1323" x="470.4771" y="843.8716">&#160;</text><path d="M393.4438,863.9375 L652.3091,863.9375 L652.3091,871.0703 L642.3091,881.0703 L393.4438,881.0703 L393.4438,863.9375 " fill="#EEEEEE" style="stroke:#000000;stroke-width:1.5;"/><rect fill="transparent" height="67.3984" style="stroke:#000000;stroke-width:1.5;" width="822.0063" x="393.4438" y="863.9375"/><text fill="#000000" font-family="sans-serif" font-size="13" font-weight="bold" lengthAdjust="spacing" textLength="213.8652" x="408.4438" y="877.0044">!!! Important: break circle !!!</text><line style="stroke:#181818;stroke-width:2;" x1="855.8779" x2="865.8779" y1="907.7695" y2="917.7695"/><line style="stroke:#181818;stroke-width:2;" x1="855.8779" x2="865.8779" y1="917.7695" y2="907.7695"/><line style="stroke:#181818;stroke-width:1;" x1="441.3862" x2="860.8779" y1="912.7695" y2="912.7695"/><text fill="#000000" font-family="sans-serif" font-size="13" font-weight="bold" lengthAdjust="spacing" textLength="18.0908" x="448.3862" y="907.7036">15</text><text fill="#000000" font-family="sans-serif" font-size="13" lengthAdjust="spacing" textLength="386.4009" x="470.4771" y="907.7036">bridge_find_callback(interface_A, instance_1, State::added)</text><path d="M888,886.0703 L888,926.0703 L1204,926.0703 L1204,896.0703 L1194,886.0703 L888,886.0703 " fill="#FFAAAA" style="stroke:#181818;stroke-width:0.5;"/><path d="M1194,886.0703 L1194,896.0703 L1204,896.0703 L1194,886.0703 " fill="#FFAAAA" style="stroke:#181818;stroke-width:0.5;"/><text fill="#000000" font-family="sans-serif" font-size="13" lengthAdjust="spacing" textLength="265.1353" x="894" y="903.1372">The bridge shall detect that find result is</text><text fill="#000000" font-family="sans-serif" font-size="13" lengthAdjust="spacing" textLength="295.5723" x="894" y="918.27">caused by it's own created server_connector.</text><line style="stroke:#181818;stroke-width:1;" x1="441.3862" x2="483.3862" y1="959.4688" y2="959.4688"/><line style="stroke:#181818;stroke-width:1;" x1="483.3862" x2="483.3862" y1="959.4688" y2="972.4688"/><line style="stroke:#181818;stroke-width:1;" x1="442.3862" x2="483.3862" y1="972.4688" y2="972.4688"/><polygon fill="#181818" points="452.3862,968.4688,442.3862,972.4688,452.3862,976.4688,448.3862,972.4688" style="stroke:#181818;stroke-width:1;"/><text fill="#000000" font-family="sans-serif" font-size="13" font-weight="bold" lengthAdjust="spacing" textLength="18.0908" x="448.3862" y="954.4028">16</text><text fill="#000000" font-family="sans-serif" font-size="13" lengthAdjust="spacing" textLength="4.1323" x="470.4771" y="954.4028">&#160;</text><path d="M506,946.8359 L506,971.8359 L887,971.8359 L887,956.8359 L877,946.8359 L506,946.8359 " fill="#FEFFDD" style="stroke:#181818;stroke-width:0.5;"/><path d="M877,946.8359 L877,956.8359 L887,956.8359 L877,946.8359 " fill="#FEFFDD" style="stroke:#181818;stroke-width:0.5;"/><text fill="#000000" font-family="sans-serif" font-size="13" lengthAdjust="spacing" textLength="360.585" x="512" y="963.9028">SOCom connects client_connector to server_connector.</text><!--SRC=[hLN1Rjim3BthAzZkiAHe2kmQD0M20Hrwsg4zx30Wa6NQ9cfBdYIdoBv-b2oxRkm06x2S4b5yV7nyL5ffFIbgfVOWsnQaW-jzszQaf2UZh-7-NfccDHhvGkVGFZo8TfBZ38TZrlFthwQv_X3CBEKbnkWtr6X90ICSIM4ABSBBpXlTDHbQ8NOxUDBaITRqEnA2tKu8gJmTfSV0M0JMi7b8J6vkO0lA8aSFjjEU6bojtnFY9J7c98BJfFxeCBAQPlSn8LBQM7GBOB4avz4UKeC9vwTU9K3NPKvPol1GaCw7QxS9ys3nLuVE3-SpoXPzP_LIwMNWeMmyKxAkCwbUBw9gmqUMoigBFPIBeu8LtfLtwSTsIwrQ2t90cfjcufZpLy0ZsjEOIDfvgHMAD_8LHts5K1ic0wqr2fsx4oyLOw2MMOqE92YZ2oetXKMkbv-qR2YKQTeQ6vv5xm1JZ1LoSih4caMdLOYoKVn9PD8n8TENR3kBFK-EpiW1vOnC1Q5bFgXp26A8QBt98a0QK60vWuYUP4jDfjB8LpPHJOpDNj8QbJTs5LaKaksnlntJ3rzcS-bHtWswlM2Jlm0SF5jQqxNmz57A7BsaUcAgT7lYXnTMSDaHOfIaC3OgFHF6Q44SjzW4G6MwG3Uy45Ef-SjenA3Y_MQJPCZnV75vA0biLYkf78Vn_viTu1rumnQOToJUAb8LL2O8iYJ6MSSBcnmz4zBu6VbtpmmIzhrVNLs5_etbwpxO1-KhABAgnX0R7FPZvh0F3yQbuhVmpABoCo3p7FFrH4BuzFYuvq-KCc6xYk62_64ylf8UGX7Mq7Mr1t92oIxiQtO2yfyTc3UTNkCSpkKuLt7Sb5w4oIpZ_z7xsCvtCSpnClWV]--></g></svg>