<svg xmlns="http://www.w3.org/2000/svg" xmlns:xlink="http://www.w3.org/1999/xlink" contentStyleType="text/css" data-diagram-type="SEQUENCE" height="1080px" preserveAspectRatio="none" style="width:1270px;height:1080px;background:#FFFFFF;" version="1.1" viewBox="0 0 1270 1080" width="1270px" zoomAndPan="magnify"><defs/><g><g><title>&lt;&lt;component user&gt;&gt;</title><rect fill="#FFFFFF" height="957.4063" style="stroke:#181818;stroke-width:1;" width="10" x="72.7344" y="62.5938"/></g><g><title>&lt;&lt;component user&gt;&gt;</title><rect fill="#FFFFFF" height="29.1328" style="stroke:#181818;stroke-width:1;" width="10" x="77.7344" y="916.4688"/></g><g><title>SOCom</title><rect fill="#FFFFFF" height="29.1328" style="stroke:#181818;stroke-width:1;" width="10" x="400.0498" y="240.8828"/></g><g><title>SOCom</title><rect fill="#FFFFFF" height="69.9648" style="stroke:#181818;stroke-width:1;" width="10" x="400.0498" y="314.2813"/></g><g><title>SOCom</title><rect fill="#FFFFFF" height="199.0625" style="stroke:#181818;stroke-width:1;" width="10" x="400.0498" y="512.4766"/></g><g><title>SOCom</title><rect fill="#FFFFFF" height="120.6641" style="stroke:#181818;stroke-width:1;" width="10" x="400.0498" y="872.2031"/></g><g><title>&lt;&lt;component user&gt;&gt;</title><rect fill="#FFFFFF" height="841.8438" style="stroke:#181818;stroke-width:1;" width="10" x="806.3301" y="178.1563"/></g><g><title>&lt;&lt;component user&gt;&gt;</title><rect fill="#FFFFFF" height="125.6641" style="stroke:#181818;stroke-width:1;" width="10" x="811.3301" y="556.7422"/></g><rect fill="transparent" height="82.5313" style="stroke:#000000;stroke-width:1.5;" width="458.0718" x="715.2007" y="571.7422"/><rect fill="transparent" height="59.2656" style="stroke:#000000;stroke-width:1.5;" width="537.8486" x="715.2007" y="769.6719"/><g><title>&lt;&lt;component user&gt;&gt;</title><rect fill="transparent" height="976.4063" width="8" x="73.7344" y="52.5938"/><line style="stroke:#181818;stroke-width:0.5;stroke-dasharray:5.0,5.0;" x1="77" x2="77" y1="52.5938" y2="1029"/></g><g><title>SOCom</title><rect fill="transparent" height="892.625" width="8" x="401.0498" y="136.375"/><line style="stroke:#181818;stroke-width:0.5;stroke-dasharray:5.0,5.0;" x1="404.1074" x2="404.1074" y1="136.375" y2="1029"/></g><g><title>&lt;&lt;component user&gt;&gt;</title><rect fill="transparent" height="843.1797" width="8" x="807.3301" y="185.8203"/><line style="stroke:#181818;stroke-width:0.5;stroke-dasharray:5.0,5.0;" x1="811.2007" x2="811.2007" y1="185.8203" y2="1029"/></g><rect fill="#E2E2F0" height="46.5938" rx="2.5" ry="2.5" style="stroke:#181818;stroke-width:0.5;" width="145.4688" x="5" y="5"/><text fill="#000000" font-family="sans-serif" font-size="14" font-style="italic" lengthAdjust="spacing" textLength="131.4688" x="12" y="24.9951">&#171;component user&#187;</text><text fill="#000000" font-family="sans-serif" font-size="14" lengthAdjust="spacing" textLength="78.2236" x="38.6226" y="41.292">Application</text><rect fill="#E2E2F0" height="46.5938" rx="2.5" ry="2.5" style="stroke:#181818;stroke-width:0.5;" width="145.4688" x="5" y="1028"/><text fill="#000000" font-family="sans-serif" font-size="14" font-style="italic" lengthAdjust="spacing" textLength="131.4688" x="12" y="1047.9951">&#171;component user&#187;</text><text fill="#000000" font-family="sans-serif" font-size="14" lengthAdjust="spacing" textLength="78.2236" x="38.6226" y="1064.292">Application</text><rect fill="#E2E2F0" height="30.2969" rx="2.5" ry="2.5" style="stroke:#181818;stroke-width:0.5;" width="65.8848" x="372.1074" y="1028"/><text fill="#000000" font-family="sans-serif" font-size="14" lengthAdjust="spacing" textLength="51.8848" x="379.1074" y="1047.9951">SOCom</text><rect fill="#E2E2F0" height="46.5938" rx="2.5" ry="2.5" style="stroke:#181818;stroke-width:0.5;" width="172.2588" x="725.2007" y="1028"/><text fill="#000000" font-family="sans-serif" font-size="14" font-style="italic" lengthAdjust="spacing" textLength="131.4688" x="745.5957" y="1047.9951">&#171;component user&#187;</text><text fill="#000000" font-family="sans-serif" font-size="14" lengthAdjust="spacing" textLength="158.2588" x="732.2007" y="1064.292">Generic service bridge</text><g><title>&lt;&lt;component user&gt;&gt;</title><rect fill="#FFFFFF" height="957.4063" style="stroke:#181818;stroke-width:1;" width="10" x="72.7344" y="62.5938"/></g><g><title>&lt;&lt;component user&gt;&gt;</title><rect fill="#FFFFFF" height="29.1328" style="stroke:#181818;stroke-width:1;" width="10" x="77.7344" y="916.4688"/></g><g><title>SOCom</title><rect fill="#FFFFFF" height="29.1328" style="stroke:#181818;stroke-width:1;" width="10" x="400.0498" y="240.8828"/></g><g><title>SOCom</title><rect fill="#FFFFFF" height="69.9648" style="stroke:#181818;stroke-width:1;" width="10" x="400.0498" y="314.2813"/></g><g><title>SOCom</title><rect fill="#FFFFFF" height="199.0625" style="stroke:#181818;stroke-width:1;" width="10" x="400.0498" y="512.4766"/></g><g><title>SOCom</title><rect fill="#FFFFFF" height="120.6641" style="stroke:#181818;stroke-width:1;" width="10" x="400.0498" y="872.2031"/></g><g><title>&lt;&lt;component user&gt;&gt;</title><rect fill="#FFFFFF" height="841.8438" style="stroke:#181818;stroke-width:1;" width="10" x="806.3301" y="178.1563"/></g><g><title>&lt;&lt;component user&gt;&gt;</title><rect fill="#FFFFFF" height="125.6641" style="stroke:#181818;stroke-width:1;" width="10" x="811.3301" y="556.7422"/></g><rect fill="#EEEEEE" height="3" style="stroke:#EEEEEE;stroke-width:1;" width="1263.0493" x="0" y="83.1602"/><line style="stroke:#000000;stroke-width:1;" x1="0" x2="1263.0493" y1="83.1602" y2="83.1602"/><line style="stroke:#000000;stroke-width:1;" x1="0" x2="1263.0493" y1="86.1602" y2="86.1602"/><rect fill="#EEEEEE" height="23.1328" style="stroke:#000000;stroke-width:2;" width="110.624" x="576.2126" y="72.5938"/><text fill="#000000" font-family="sans-serif" font-size="13" font-weight="bold" lengthAdjust="spacing" textLength="92.0981" x="582.2126" y="88.6606">Initialization</text><polygon fill="#181818" points="360.1074,122.8594,370.1074,126.8594,360.1074,130.8594,364.1074,126.8594" style="stroke:#181818;stroke-width:1;"/><line style="stroke:#181818;stroke-width:1;" x1="82.7344" x2="366.1074" y1="126.8594" y2="126.8594"/><text fill="#000000" font-family="sans-serif" font-size="13" font-weight="bold" lengthAdjust="spacing" textLength="9.0454" x="89.7344" y="121.7935">1</text><text fill="#000000" font-family="sans-serif" font-size="13" lengthAdjust="spacing" textLength="109.3892" x="102.7798" y="121.7935">create_runtime()</text><rect fill="#E2E2F0" height="30.2969" rx="2.5" ry="2.5" style="stroke:#181818;stroke-width:0.5;" width="65.8848" x="372.1074" y="105.7266"/><text fill="#000000" font-family="sans-serif" font-size="14" lengthAdjust="spacing" textLength="51.8848" x="379.1074" y="125.7217">SOCom</text><polygon fill="#181818" points="713.2007,164.1563,723.2007,168.1563,713.2007,172.1563,717.2007,168.1563" style="stroke:#181818;stroke-width:1;"/><line style="stroke:#181818;stroke-width:1;" x1="82.7344" x2="719.2007" y1="168.1563" y2="168.1563"/><text fill="#000000" font-family="sans-serif" font-size="13" font-weight="bold" lengthAdjust="spacing" textLength="9.0454" x="89.7344" y="163.0903">2</text><text fill="#000000" font-family="sans-serif" font-size="13" lengthAdjust="spacing" textLength="179.9497" x="102.7798" y="163.0903">create_bridge_component()</text><rect fill="#E2E2F0" height="46.5938" rx="2.5" ry="2.5" style="stroke:#181818;stroke-width:0.5;" width="172.2588" x="725.2007" y="147.0234"/><text fill="#000000" font-family="sans-serif" font-size="14" font-style="italic" lengthAdjust="spacing" textLength="131.4688" x="745.5957" y="167.0186">&#171;component user&#187;</text><text fill="#000000" font-family="sans-serif" font-size="14" lengthAdjust="spacing" textLength="158.2588" x="732.2007" y="183.3154">Generic service bridge</text><polygon fill="#181818" points="421.0498,236.8828,411.0498,240.8828,421.0498,244.8828,417.0498,240.8828" style="stroke:#181818;stroke-width:1;"/><line style="stroke:#181818;stroke-width:1;" x1="415.0498" x2="805.3301" y1="240.8828" y2="240.8828"/><text fill="#000000" font-family="sans-serif" font-size="13" font-weight="bold" lengthAdjust="spacing" textLength="9.0454" x="427.0498" y="228.2505">3</text><text fill="#000000" font-family="sans-serif" font-size="13" lengthAdjust="spacing" textLength="151.6963" x="440.0952" y="220.6841">register_service_bridge</text><text fill="#000000" font-family="sans-serif" font-size="13" lengthAdjust="spacing" textLength="364.2349" x="440.0952" y="235.8169">(bridge_subscribe_find_service, bridge_request_service)</text><polygon fill="#181818" points="794.3301,266.0156,804.3301,270.0156,794.3301,274.0156,798.3301,270.0156" style="stroke:#181818;stroke-width:1;"/><line style="stroke:#181818;stroke-width:1;stroke-dasharray:2.0,2.0;" x1="405.0498" x2="800.3301" y1="270.0156" y2="270.0156"/><text fill="#000000" font-family="sans-serif" font-size="13" font-weight="bold" lengthAdjust="spacing" textLength="9.0454" x="412.0498" y="264.9497">4</text><text fill="#000000" font-family="sans-serif" font-size="13" lengthAdjust="spacing" textLength="4.1323" x="425.0952" y="264.9497">&#160;</text><polygon fill="#181818" points="421.0498,310.2813,411.0498,314.2813,421.0498,318.2813,417.0498,314.2813" style="stroke:#181818;stroke-width:1;"/><line style="stroke:#181818;stroke-width:1;" x1="415.0498" x2="805.3301" y1="314.2813" y2="314.2813"/><text fill="#000000" font-family="sans-serif" font-size="13" font-weight="bold" lengthAdjust="spacing" textLength="9.0454" x="427.0498" y="301.6489">5</text><text fill="#000000" font-family="sans-serif" font-size="13" lengthAdjust="spacing" textLength="146.6372" x="440.0952" y="294.0825">subscribe_find_service</text><text fill="#000000" font-family="sans-serif" font-size="13" lengthAdjust="spacing" textLength="142.7651" x="440.0952" y="309.2153">(bridge_find_callback)</text><polygon fill="#181818" points="794.3301,380.2461,804.3301,384.2461,794.3301,388.2461,798.3301,384.2461" style="stroke:#181818;stroke-width:1;"/><line style="stroke:#181818;stroke-width:1;stroke-dasharray:2.0,2.0;" x1="405.0498" x2="800.3301" y1="384.2461" y2="384.2461"/><text fill="#000000" font-family="sans-serif" font-size="13" font-weight="bold" lengthAdjust="spacing" textLength="9.0454" x="412.0498" y="379.1802">6</text><text fill="#000000" font-family="sans-serif" font-size="13" lengthAdjust="spacing" textLength="4.1323" x="425.0952" y="379.1802">&#160;</text><path d="M821,327.2813 L821,427.2813 L1198,427.2813 L1198,337.2813 L1188,327.2813 L821,327.2813 " fill="#FEFFDD" style="stroke:#181818;stroke-width:0.5;"/><path d="M1188,327.2813 L1188,337.2813 L1198,337.2813 L1188,327.2813 " fill="#FEFFDD" style="stroke:#181818;stroke-width:0.5;"/><text fill="#000000" font-family="sans-serif" font-size="13" lengthAdjust="spacing" textLength="270.5625" x="827" y="344.3481">A generic service bridge (e.g. bridge::ipc)</text><text fill="#000000" font-family="sans-serif" font-size="13" lengthAdjust="spacing" textLength="247.6729" x="827" y="359.481">is interested in every service instance</text><text fill="#000000" font-family="sans-serif" font-size="13" lengthAdjust="spacing" textLength="157.8281" x="827" y="374.6138">within the local process.</text><text fill="#000000" font-family="sans-serif" font-size="13" lengthAdjust="spacing" textLength="238.0054" x="827" y="389.7466">This enables a config-free (dynamic)</text><text fill="#000000" font-family="sans-serif" font-size="13" lengthAdjust="spacing" textLength="322.1816" x="827" y="404.8794">implementation of service discovery functionality</text><text fill="#000000" font-family="sans-serif" font-size="13" lengthAdjust="spacing" textLength="356.5225" x="827" y="420.0122">based on the pure internal service instance identifiers.</text><rect fill="#EEEEEE" height="3" style="stroke:#EEEEEE;stroke-width:1;" width="1263.0493" x="0" y="453.6445"/><line style="stroke:#000000;stroke-width:1;" x1="0" x2="1263.0493" y1="453.6445" y2="453.6445"/><line style="stroke:#000000;stroke-width:1;" x1="0" x2="1263.0493" y1="456.6445" y2="456.6445"/><rect fill="#EEEEEE" height="23.1328" style="stroke:#000000;stroke-width:2;" width="333.7314" x="464.6589" y="443.0781"/><text fill="#000000" font-family="sans-serif" font-size="13" font-weight="bold" lengthAdjust="spacing" textLength="315.2056" x="470.6589" y="459.145">Application searches for a service instance</text><polygon fill="#181818" points="388.0498,508.4766,398.0498,512.4766,388.0498,516.4766,392.0498,512.4766" style="stroke:#181818;stroke-width:1;"/><line style="stroke:#181818;stroke-width:1;" x1="82.7344" x2="394.0498" y1="512.4766" y2="512.4766"/><text fill="#000000" font-family="sans-serif" font-size="13" font-weight="bold" lengthAdjust="spacing" textLength="9.0454" x="89.7344" y="499.8442">7</text><text fill="#000000" font-family="sans-serif" font-size="13" lengthAdjust="spacing" textLength="146.6372" x="102.7798" y="492.2778">subscribe_find_service</text><text fill="#000000" font-family="sans-serif" font-size="13" lengthAdjust="spacing" textLength="285.27" x="102.7798" y="507.4106">(app_find_callback, interface_A, instance_1)</text><polygon fill="#181818" points="799.3301,552.7422,809.3301,556.7422,799.3301,560.7422,803.3301,556.7422" style="stroke:#181818;stroke-width:1;"/><line style="stroke:#181818;stroke-width:1;" x1="410.0498" x2="805.3301" y1="556.7422" y2="556.7422"/><text fill="#000000" font-family="sans-serif" font-size="13" font-weight="bold" lengthAdjust="spacing" textLength="9.0454" x="417.0498" y="544.1099">8</text><text fill="#000000" font-family="sans-serif" font-size="13" lengthAdjust="spacing" textLength="194.8477" x="430.0952" y="536.5435">bridge_subscribe_find_service</text><text fill="#000000" font-family="sans-serif" font-size="13" lengthAdjust="spacing" textLength="303.291" x="430.0952" y="551.6763">(socom_find_callback, interface_A, instance_1)</text><path d="M715.2007,571.7422 L923.1704,571.7422 L923.1704,578.875 L913.1704,588.875 L715.2007,588.875 L715.2007,571.7422 " fill="#EEEEEE" style="stroke:#000000;stroke-width:1.5;"/><rect fill="transparent" height="82.5313" style="stroke:#000000;stroke-width:1.5;" width="458.0718" x="715.2007" y="571.7422"/><text fill="#000000" font-family="sans-serif" font-size="13" font-weight="bold" lengthAdjust="spacing" textLength="162.9697" x="730.2007" y="584.8091">Implementation detail</text><line style="stroke:#181818;stroke-width:1;" x1="821.3301" x2="863.3301" y1="621.6406" y2="621.6406"/><line style="stroke:#181818;stroke-width:1;" x1="863.3301" x2="863.3301" y1="621.6406" y2="634.6406"/><line style="stroke:#181818;stroke-width:1;" x1="822.3301" x2="863.3301" y1="634.6406" y2="634.6406"/><polygon fill="#181818" points="832.3301,630.6406,822.3301,634.6406,832.3301,638.6406,828.3301,634.6406" style="stroke:#181818;stroke-width:1;"/><text fill="#000000" font-family="sans-serif" font-size="13" font-weight="bold" lengthAdjust="spacing" textLength="9.0454" x="828.3301" y="616.5747">9</text><text fill="#000000" font-family="sans-serif" font-size="13" lengthAdjust="spacing" textLength="4.1323" x="841.3755" y="616.5747">&#160;</text><path d="M891,593.875 L891,648.875 L1147,648.875 L1147,603.875 L1137,593.875 L891,593.875 " fill="#FEFFDD" style="stroke:#181818;stroke-width:0.5;"/><path d="M1137,593.875 L1137,603.875 L1147,603.875 L1137,593.875 " fill="#FEFFDD" style="stroke:#181818;stroke-width:0.5;"/><text fill="#000000" font-family="sans-serif" font-size="13" lengthAdjust="spacing" textLength="173.4434" x="897" y="610.9419">The generic service bridge</text><text fill="#000000" font-family="sans-serif" font-size="13" lengthAdjust="spacing" textLength="235.9424" x="897" y="626.0747">searches for the service instance on</text><text fill="#000000" font-family="sans-serif" font-size="13" lengthAdjust="spacing" textLength="158.3867" x="897" y="641.2075">its remote counterparts.</text><polygon fill="#181818" points="421.0498,678.4063,411.0498,682.4063,421.0498,686.4063,417.0498,682.4063" style="stroke:#181818;stroke-width:1;"/><line style="stroke:#181818;stroke-width:1;stroke-dasharray:2.0,2.0;" x1="415.0498" x2="805.3301" y1="682.4063" y2="682.4063"/><text fill="#000000" font-family="sans-serif" font-size="13" font-weight="bold" lengthAdjust="spacing" textLength="18.0908" x="427.0498" y="677.3403">10</text><text fill="#000000" font-family="sans-serif" font-size="13" lengthAdjust="spacing" textLength="4.1323" x="449.1406" y="677.3403">&#160;</text><polygon fill="#181818" points="93.7344,707.5391,83.7344,711.5391,93.7344,715.5391,89.7344,711.5391" style="stroke:#181818;stroke-width:1;"/><line style="stroke:#181818;stroke-width:1;stroke-dasharray:2.0,2.0;" x1="87.7344" x2="404.0498" y1="711.5391" y2="711.5391"/><text fill="#000000" font-family="sans-serif" font-size="13" font-weight="bold" lengthAdjust="spacing" textLength="18.0908" x="99.7344" y="706.4731">11</text><text fill="#000000" font-family="sans-serif" font-size="13" lengthAdjust="spacing" textLength="4.1323" x="121.8252" y="706.4731">&#160;</text><rect fill="#EEEEEE" height="3" style="stroke:#EEEEEE;stroke-width:1;" width="1263.0493" x="0" y="740.1055"/><line style="stroke:#000000;stroke-width:1;" x1="0" x2="1263.0493" y1="740.1055" y2="740.1055"/><line style="stroke:#000000;stroke-width:1;" x1="0" x2="1263.0493" y1="743.1055" y2="743.1055"/><rect fill="#EEEEEE" height="23.1328" style="stroke:#000000;stroke-width:2;" width="419.9199" x="421.5647" y="729.5391"/><text fill="#000000" font-family="sans-serif" font-size="13" font-weight="bold" lengthAdjust="spacing" textLength="405.9199" x="427.5647" y="745.606">service instance remote search result changed (added)</text><path d="M715.2007,769.6719 L923.1704,769.6719 L923.1704,776.8047 L913.1704,786.8047 L715.2007,786.8047 L715.2007,769.6719 " fill="#EEEEEE" style="stroke:#000000;stroke-width:1.5;"/><rect fill="transparent" height="59.2656" style="stroke:#000000;stroke-width:1.5;" width="537.8486" x="715.2007" y="769.6719"/><text fill="#000000" font-family="sans-serif" font-size="13" font-weight="bold" lengthAdjust="spacing" textLength="162.9697" x="730.2007" y="782.7388">Implementation detail</text><line style="stroke:#181818;stroke-width:1;" x1="816.3301" x2="858.3301" y1="807.9375" y2="807.9375"/><line style="stroke:#181818;stroke-width:1;" x1="858.3301" x2="858.3301" y1="807.9375" y2="820.9375"/><line style="stroke:#181818;stroke-width:1;" x1="817.3301" x2="858.3301" y1="820.9375" y2="820.9375"/><polygon fill="#181818" points="827.3301,816.9375,817.3301,820.9375,827.3301,824.9375,823.3301,820.9375" style="stroke:#181818;stroke-width:1;"/><text fill="#000000" font-family="sans-serif" font-size="13" font-weight="bold" lengthAdjust="spacing" textLength="18.0908" x="823.3301" y="802.8716">12</text><text fill="#000000" font-family="sans-serif" font-size="13" lengthAdjust="spacing" textLength="4.1323" x="845.4209" y="802.8716">&#160;</text><path d="M881,795.3047 L881,820.3047 L1232,820.3047 L1232,805.3047 L1222,795.3047 L881,795.3047 " fill="#FEFFDD" style="stroke:#181818;stroke-width:0.5;"/><path d="M1222,795.3047 L1222,805.3047 L1232,805.3047 L1222,795.3047 " fill="#FEFFDD" style="stroke:#181818;stroke-width:0.5;"/><text fill="#000000" font-family="sans-serif" font-size="13" lengthAdjust="spacing" textLength="330.7192" x="887" y="812.3716">Found a service instance on a remote counterpart.</text><polygon fill="#181818" points="421.0498,868.2031,411.0498,872.2031,421.0498,876.2031,417.0498,872.2031" style="stroke:#181818;stroke-width:1;"/><line style="stroke:#181818;stroke-width:1;" x1="415.0498" x2="805.3301" y1="872.2031" y2="872.2031"/><text fill="#000000" font-family="sans-serif" font-size="13" font-weight="bold" lengthAdjust="spacing" textLength="18.0908" x="427.0498" y="859.5708">13</text><text fill="#000000" font-family="sans-serif" font-size="13" lengthAdjust="spacing" textLength="133.4023" x="449.1406" y="852.0044">socom_find_callback</text><text fill="#000000" font-family="sans-serif" font-size="13" lengthAdjust="spacing" textLength="253.7793" x="449.1406" y="867.1372">(interface_A, instance_1, State::added)</text><polygon fill="#181818" points="98.7344,912.4688,88.7344,916.4688,98.7344,920.4688,94.7344,916.4688" style="stroke:#181818;stroke-width:1;"/><line style="stroke:#181818;stroke-width:1;" x1="92.7344" x2="399.0498" y1="916.4688" y2="916.4688"/><text fill="#000000" font-family="sans-serif" font-size="13" font-weight="bold" lengthAdjust="spacing" textLength="18.0908" x="104.7344" y="903.8364">14</text><text fill="#000000" font-family="sans-serif" font-size="13" lengthAdjust="spacing" textLength="115.3813" x="126.8252" y="896.27">app_find_callback</text><text fill="#000000" font-family="sans-serif" font-size="13" lengthAdjust="spacing" textLength="253.7793" x="126.8252" y="911.4028">(interface_A, instance_1, State::added)</text><polygon fill="#181818" points="388.0498,941.6016,398.0498,945.6016,388.0498,949.6016,392.0498,945.6016" style="stroke:#181818;stroke-width:1;"/><line style="stroke:#181818;stroke-width:1;stroke-dasharray:2.0,2.0;" x1="82.7344" x2="394.0498" y1="945.6016" y2="945.6016"/><text fill="#000000" font-family="sans-serif" font-size="13" font-weight="bold" lengthAdjust="spacing" textLength="18.0908" x="89.7344" y="940.5356">15</text><text fill="#000000" font-family="sans-serif" font-size="13" lengthAdjust="spacing" textLength="4.1323" x="111.8252" y="940.5356">&#160;</text><polygon fill="#181818" points="794.3301,988.8672,804.3301,992.8672,794.3301,996.8672,798.3301,992.8672" style="stroke:#181818;stroke-width:1;"/><line style="stroke:#181818;stroke-width:1;stroke-dasharray:2.0,2.0;" x1="405.0498" x2="800.3301" y1="992.8672" y2="992.8672"/><text fill="#000000" font-family="sans-serif" font-size="13" font-weight="bold" lengthAdjust="spacing" textLength="18.0908" x="412.0498" y="987.8013">16</text><text fill="#000000" font-family="sans-serif" font-size="13" lengthAdjust="spacing" textLength="4.1323" x="434.1406" y="987.8013">&#160;</text><path d="M821,958.6016 L821,1013.6016 L1171,1013.6016 L1171,968.6016 L1161,958.6016 L821,958.6016 " fill="#FEFFDD" style="stroke:#181818;stroke-width:0.5;"/><path d="M1161,958.6016 L1161,968.6016 L1171,968.6016 L1161,958.6016 " fill="#FEFFDD" style="stroke:#181818;stroke-width:0.5;"/><text fill="#000000" font-family="sans-serif" font-size="13" lengthAdjust="spacing" textLength="329.8369" x="827" y="975.6685">Important: SOCom does not forward find results to</text><text fill="#000000" font-family="sans-serif" font-size="13" lengthAdjust="spacing" textLength="203.7725" x="827" y="990.8013">service-interface wildcard finds</text><text fill="#000000" font-family="sans-serif" font-size="13" lengthAdjust="spacing" textLength="224.2881" x="827" y="1005.9341">(subscribe_find_service(callback)).</text><!--SRC=[dLN1Rjim3BthAuYUaY89iAlH12W6REXfX_Ou890bsY5cIveaj-Y-VfIjE4xj3brFiKNoyP7lMN7IHrBaf8aWdGCPuERUkOQKZ6JD3TpTATiwQv0Jke3-S11kKXCiX_kgnnzVRNjp5ImzwHhxw7Sqw4a18poJmXnQX9TTjAPhI_H2xFVmO2YIREXFJmZsUo6aYlGi8oR68h66xI4pkRs50fH7ZXvzPoArk5gBCIapccODHyUH1gUF-4DCY5msTYa0FDOK8lfZdYZZ_3Ih31YwCYXF9HuhClgSjicOHu-_EmpnV3vfshSG7cFdpLBhPU1Bu_vKoQOffVhrBgwnVEIfFaLn3_MYEh32NRtBBqL1Jgq51I33OpDrrFm8-8p-TIma4w8q2iKBnHD7umcXiKm6dBSAGzY9fnDZe95bWm4aA6igghULH-wdNuriARLfNOCjgp68RgknWwQWRD-pwenAKVP6V1Mb34p83YrTvt7WoT4PEI3Do5GHUkQ3HaDQXkZTDl4-rqclJiooifwPpc1wAxAnFg8DvrqBinduLPAjSxyPGOzVPeeDs1Vp5l1FXt6plkB_svtTNdlRENYuba1ZbDHCx9Yp9pvwuiqlEqbShJ8fD5kcDO9YuC-gJO3ATebkkaoc4l73QE3pRr9jXfPXXhRy5hecWZf9KxD9Lb9hrEiatsT7_SRyz98dk5mk3F5cXgMlUguPA_cEQ1juPAxyJGwJlEkOvCu2Pjxx172wQTzkVh8Ftg3rZ14BwFy7G5iMcnEIu2_IQqW4iX01eXLvSzkH2BnGezKvDOZLihrNuysslYprBm00]--></g></svg>