<svg xmlns="http://www.w3.org/2000/svg" xmlns:xlink="http://www.w3.org/1999/xlink" contentStyleType="text/css" data-diagram-type="SEQUENCE" height="912px" preserveAspectRatio="none" style="width:1166px;height:912px;background:#FFFFFF;" version="1.1" viewBox="0 0 1166 912" width="1166px" zoomAndPan="magnify"><defs/><g><g><title>&lt;&lt;component user&gt;&gt;</title><rect fill="#FFFFFF" height="789.3203" style="stroke:#181818;stroke-width:1;" width="10" x="72.7344" y="62.5938"/></g><g><title>&lt;&lt;component user&gt;&gt;</title><rect fill="#FFFFFF" height="29.1328" style="stroke:#181818;stroke-width:1;" width="10" x="77.7344" y="466.3203"/></g><g><title>SOCom</title><rect fill="#FFFFFF" height="87.3984" style="stroke:#181818;stroke-width:1;" width="10" x="377.4014" y="126.8594"/></g><g><title>SOCom</title><rect fill="#FFFFFF" height="129.5313" style="stroke:#181818;stroke-width:1;" width="10" x="377.4014" y="243.3906"/></g><g><title>SOCom</title><rect fill="#FFFFFF" height="87.3984" style="stroke:#181818;stroke-width:1;" width="10" x="377.4014" y="437.1875"/></g><g><title>SOCom</title><rect fill="#FFFFFF" height="87.3984" style="stroke:#181818;stroke-width:1;" width="10" x="377.4014" y="596.8516"/></g><g><title>SOCom</title><rect fill="#FFFFFF" height="129.5313" style="stroke:#181818;stroke-width:1;" width="10" x="377.4014" y="713.3828"/></g><g><title>&lt;&lt;component user&gt;&gt;</title><rect fill="#FFFFFF" height="789.3203" style="stroke:#181818;stroke-width:1;" width="10" x="767.9902" y="62.5938"/></g><g><title>&lt;&lt;component user&gt;&gt;</title><rect fill="#FFFFFF" height="29.1328" style="stroke:#181818;stroke-width:1;" width="10" x="772.9902" y="155.9922"/></g><g><title>&lt;&lt;component user&gt;&gt;</title><rect fill="#FFFFFF" height="71.2656" style="stroke:#181818;stroke-width:1;" width="10" x="772.9902" y="272.5234"/></g><g><title>&lt;&lt;component user&gt;&gt;</title><rect fill="#FFFFFF" height="29.1328" style="stroke:#181818;stroke-width:1;" width="10" x="772.9902" y="625.9844"/></g><g><title>&lt;&lt;component user&gt;&gt;</title><rect fill="#FFFFFF" height="71.2656" style="stroke:#181818;stroke-width:1;" width="10" x="772.9902" y="742.5156"/></g><g><title>&lt;&lt;component user&gt;&gt;</title><rect fill="transparent" height="808.3203" width="8" x="73.7344" y="52.5938"/><line style="stroke:#181818;stroke-width:0.5;stroke-dasharray:5.0,5.0;" x1="77" x2="77" y1="52.5938" y2="860.9141"/></g><g><title>SOCom</title><rect fill="transparent" height="808.3203" width="8" x="378.4014" y="52.5938"/><line style="stroke:#181818;stroke-width:0.5;stroke-dasharray:5.0,5.0;" x1="381.459" x2="381.459" y1="52.5938" y2="860.9141"/></g><g><title>&lt;&lt;component user&gt;&gt;</title><rect fill="transparent" height="808.3203" width="8" x="768.9902" y="52.5938"/><line style="stroke:#181818;stroke-width:0.5;stroke-dasharray:5.0,5.0;" x1="772.2559" x2="772.2559" y1="52.5938" y2="860.9141"/></g><rect fill="#E2E2F0" height="46.5938" rx="2.5" ry="2.5" style="stroke:#181818;stroke-width:0.5;" width="145.4688" x="5" y="5"/><text fill="#000000" font-family="sans-serif" font-size="14" font-style="italic" lengthAdjust="spacing" textLength="131.4688" x="12" y="24.9951">&#171;component user&#187;</text><text fill="#000000" font-family="sans-serif" font-size="14" lengthAdjust="spacing" textLength="56.4375" x="49.5156" y="41.292">Client_1</text><rect fill="#E2E2F0" height="46.5938" rx="2.5" ry="2.5" style="stroke:#181818;stroke-width:0.5;" width="145.4688" x="5" y="859.9141"/><text fill="#000000" font-family="sans-serif" font-size="14" font-style="italic" lengthAdjust="spacing" textLength="131.4688" x="12" y="879.9092">&#171;component user&#187;</text><text fill="#000000" font-family="sans-serif" font-size="14" lengthAdjust="spacing" textLength="56.4375" x="49.5156" y="896.2061">Client_1</text><rect fill="#E2E2F0" height="30.2969" rx="2.5" ry="2.5" style="stroke:#181818;stroke-width:0.5;" width="65.8848" x="349.459" y="21.2969"/><text fill="#000000" font-family="sans-serif" font-size="14" lengthAdjust="spacing" textLength="51.8848" x="356.459" y="41.292">SOCom</text><rect fill="#E2E2F0" height="30.2969" rx="2.5" ry="2.5" style="stroke:#181818;stroke-width:0.5;" width="65.8848" x="349.459" y="859.9141"/><text fill="#000000" font-family="sans-serif" font-size="14" lengthAdjust="spacing" textLength="51.8848" x="356.459" y="879.9092">SOCom</text><rect fill="#E2E2F0" height="46.5938" rx="2.5" ry="2.5" style="stroke:#181818;stroke-width:0.5;" width="145.4688" x="700.2559" y="5"/><text fill="#000000" font-family="sans-serif" font-size="14" font-style="italic" lengthAdjust="spacing" textLength="131.4688" x="707.2559" y="24.9951">&#171;component user&#187;</text><text fill="#000000" font-family="sans-serif" font-size="14" lengthAdjust="spacing" textLength="45.9102" x="750.0352" y="41.292">Server</text><rect fill="#E2E2F0" height="46.5938" rx="2.5" ry="2.5" style="stroke:#181818;stroke-width:0.5;" width="145.4688" x="700.2559" y="859.9141"/><text fill="#000000" font-family="sans-serif" font-size="14" font-style="italic" lengthAdjust="spacing" textLength="131.4688" x="707.2559" y="879.9092">&#171;component user&#187;</text><text fill="#000000" font-family="sans-serif" font-size="14" lengthAdjust="spacing" textLength="45.9102" x="750.0352" y="896.2061">Server</text><g><title>&lt;&lt;component user&gt;&gt;</title><rect fill="#FFFFFF" height="789.3203" style="stroke:#181818;stroke-width:1;" width="10" x="72.7344" y="62.5938"/></g><g><title>&lt;&lt;component user&gt;&gt;</title><rect fill="#FFFFFF" height="29.1328" style="stroke:#181818;stroke-width:1;" width="10" x="77.7344" y="466.3203"/></g><g><title>SOCom</title><rect fill="#FFFFFF" height="87.3984" style="stroke:#181818;stroke-width:1;" width="10" x="377.4014" y="126.8594"/></g><g><title>SOCom</title><rect fill="#FFFFFF" height="129.5313" style="stroke:#181818;stroke-width:1;" width="10" x="377.4014" y="243.3906"/></g><g><title>SOCom</title><rect fill="#FFFFFF" height="87.3984" style="stroke:#181818;stroke-width:1;" width="10" x="377.4014" y="437.1875"/></g><g><title>SOCom</title><rect fill="#FFFFFF" height="87.3984" style="stroke:#181818;stroke-width:1;" width="10" x="377.4014" y="596.8516"/></g><g><title>SOCom</title><rect fill="#FFFFFF" height="129.5313" style="stroke:#181818;stroke-width:1;" width="10" x="377.4014" y="713.3828"/></g><g><title>&lt;&lt;component user&gt;&gt;</title><rect fill="#FFFFFF" height="789.3203" style="stroke:#181818;stroke-width:1;" width="10" x="767.9902" y="62.5938"/></g><g><title>&lt;&lt;component user&gt;&gt;</title><rect fill="#FFFFFF" height="29.1328" style="stroke:#181818;stroke-width:1;" width="10" x="772.9902" y="155.9922"/></g><g><title>&lt;&lt;component user&gt;&gt;</title><rect fill="#FFFFFF" height="71.2656" style="stroke:#181818;stroke-width:1;" width="10" x="772.9902" y="272.5234"/></g><g><title>&lt;&lt;component user&gt;&gt;</title><rect fill="#FFFFFF" height="29.1328" style="stroke:#181818;stroke-width:1;" width="10" x="772.9902" y="625.9844"/></g><g><title>&lt;&lt;component user&gt;&gt;</title><rect fill="#FFFFFF" height="71.2656" style="stroke:#181818;stroke-width:1;" width="10" x="772.9902" y="742.5156"/></g><rect fill="#EEEEEE" height="3" style="stroke:#EEEEEE;stroke-width:1;" width="1159.9331" x="0" y="83.1602"/><line style="stroke:#000000;stroke-width:1;" x1="0" x2="1159.9331" y1="83.1602" y2="83.1602"/><line style="stroke:#000000;stroke-width:1;" x1="0" x2="1159.9331" y1="86.1602" y2="86.1602"/><rect fill="#EEEEEE" height="23.1328" style="stroke:#000000;stroke-width:2;" width="138.7949" x="510.5691" y="72.5938"/><text fill="#000000" font-family="sans-serif" font-size="13" font-weight="bold" lengthAdjust="spacing" textLength="120.269" x="516.5691" y="88.6606">Reply requested</text><polygon fill="#181818" points="365.4014,122.8594,375.4014,126.8594,365.4014,130.8594,369.4014,126.8594" style="stroke:#181818;stroke-width:1;"/><line style="stroke:#181818;stroke-width:1;" x1="82.7344" x2="371.4014" y1="126.8594" y2="126.8594"/><text fill="#000000" font-family="sans-serif" font-size="13" font-weight="bold" lengthAdjust="spacing" textLength="9.0454" x="89.7344" y="121.7935">1</text><text fill="#000000" font-family="sans-serif" font-size="13" lengthAdjust="spacing" textLength="212.9258" x="102.7798" y="121.7935">allocate_method_call_payload(x)</text><polygon fill="#181818" points="760.9902,151.9922,770.9902,155.9922,760.9902,159.9922,764.9902,155.9922" style="stroke:#181818;stroke-width:1;"/><line style="stroke:#181818;stroke-width:1;" x1="387.4014" x2="766.9902" y1="155.9922" y2="155.9922"/><text fill="#000000" font-family="sans-serif" font-size="13" font-weight="bold" lengthAdjust="spacing" textLength="9.0454" x="394.4014" y="150.9263">2</text><text fill="#000000" font-family="sans-serif" font-size="13" lengthAdjust="spacing" textLength="235.6187" x="407.4468" y="150.9263">on_method_call_payload_allocate(x)</text><polygon fill="#181818" points="398.4014,181.125,388.4014,185.125,398.4014,189.125,394.4014,185.125" style="stroke:#181818;stroke-width:1;"/><line style="stroke:#181818;stroke-width:1;stroke-dasharray:2.0,2.0;" x1="392.4014" x2="766.9902" y1="185.125" y2="185.125"/><text fill="#000000" font-family="sans-serif" font-size="13" font-weight="bold" lengthAdjust="spacing" textLength="9.0454" x="404.4014" y="180.0591">3</text><text fill="#000000" font-family="sans-serif" font-size="13" lengthAdjust="spacing" textLength="110.7095" x="417.4468" y="180.0591">writable_payload</text><polygon fill="#181818" points="93.7344,210.2578,83.7344,214.2578,93.7344,218.2578,89.7344,214.2578" style="stroke:#181818;stroke-width:1;"/><line style="stroke:#181818;stroke-width:1;stroke-dasharray:2.0,2.0;" x1="87.7344" x2="381.4014" y1="214.2578" y2="214.2578"/><text fill="#000000" font-family="sans-serif" font-size="13" font-weight="bold" lengthAdjust="spacing" textLength="9.0454" x="99.7344" y="209.1919">4</text><text fill="#000000" font-family="sans-serif" font-size="13" lengthAdjust="spacing" textLength="110.7095" x="112.7798" y="209.1919">writable_payload</text><polygon fill="#181818" points="365.4014,239.3906,375.4014,243.3906,365.4014,247.3906,369.4014,243.3906" style="stroke:#181818;stroke-width:1;"/><line style="stroke:#181818;stroke-width:1;" x1="82.7344" x2="371.4014" y1="243.3906" y2="243.3906"/><text fill="#000000" font-family="sans-serif" font-size="13" font-weight="bold" lengthAdjust="spacing" textLength="9.0454" x="89.7344" y="238.3247">5</text><text fill="#000000" font-family="sans-serif" font-size="13" lengthAdjust="spacing" textLength="262.6216" x="102.7798" y="238.3247">call_method(x, call_payload, reply_data)</text><polygon fill="#181818" points="760.9902,268.5234,770.9902,272.5234,760.9902,276.5234,764.9902,272.5234" style="stroke:#181818;stroke-width:1;"/><line style="stroke:#181818;stroke-width:1;" x1="387.4014" x2="766.9902" y1="272.5234" y2="272.5234"/><text fill="#000000" font-family="sans-serif" font-size="13" font-weight="bold" lengthAdjust="spacing" textLength="9.0454" x="394.4014" y="267.4575">6</text><text fill="#000000" font-family="sans-serif" font-size="13" lengthAdjust="spacing" textLength="285.3145" x="407.4468" y="267.4575">on_method_call(x, call_payload, reply_data)</text><line style="stroke:#181818;stroke-width:1;" x1="782.9902" x2="824.9902" y1="301.6563" y2="301.6563"/><line style="stroke:#181818;stroke-width:1;" x1="824.9902" x2="824.9902" y1="301.6563" y2="314.6563"/><line style="stroke:#181818;stroke-width:1;" x1="783.9902" x2="824.9902" y1="314.6563" y2="314.6563"/><polygon fill="#181818" points="793.9902,310.6563,783.9902,314.6563,793.9902,318.6563,789.9902,314.6563" style="stroke:#181818;stroke-width:1;"/><text fill="#000000" font-family="sans-serif" font-size="13" font-weight="bold" lengthAdjust="spacing" textLength="9.0454" x="789.9902" y="296.5903">7</text><text fill="#000000" font-family="sans-serif" font-size="13" lengthAdjust="spacing" textLength="116.4033" x="803.0356" y="296.5903">process method x</text><polygon fill="#181818" points="398.4014,339.7891,388.4014,343.7891,398.4014,347.7891,394.4014,343.7891" style="stroke:#181818;stroke-width:1;"/><line style="stroke:#181818;stroke-width:1;stroke-dasharray:2.0,2.0;" x1="392.4014" x2="766.9902" y1="343.7891" y2="343.7891"/><text fill="#000000" font-family="sans-serif" font-size="13" font-weight="bold" lengthAdjust="spacing" textLength="9.0454" x="404.4014" y="338.7231">8</text><text fill="#000000" font-family="sans-serif" font-size="13" lengthAdjust="spacing" textLength="4.1323" x="417.4468" y="338.7231">&#160;</text><polygon fill="#181818" points="93.7344,368.9219,83.7344,372.9219,93.7344,376.9219,89.7344,372.9219" style="stroke:#181818;stroke-width:1;"/><line style="stroke:#181818;stroke-width:1;stroke-dasharray:2.0,2.0;" x1="87.7344" x2="381.4014" y1="372.9219" y2="372.9219"/><text fill="#000000" font-family="sans-serif" font-size="13" font-weight="bold" lengthAdjust="spacing" textLength="9.0454" x="99.7344" y="367.856">9</text><text fill="#000000" font-family="sans-serif" font-size="13" lengthAdjust="spacing" textLength="4.1323" x="112.7798" y="367.856">&#160;</text><path d="M782,385.9219 L782,410.9219 L1154,410.9219 L1154,395.9219 L1144,385.9219 L782,385.9219 " fill="#FEFFDD" style="stroke:#181818;stroke-width:0.5;"/><path d="M1144,385.9219 L1144,395.9219 L1154,395.9219 L1144,385.9219 " fill="#FEFFDD" style="stroke:#181818;stroke-width:0.5;"/><text fill="#000000" font-family="sans-serif" font-size="13" lengthAdjust="spacing" textLength="351.9331" x="788" y="402.9888">Server might write data into reply_data.reply_payload</text><polygon fill="#181818" points="398.4014,433.1875,388.4014,437.1875,398.4014,441.1875,394.4014,437.1875" style="stroke:#181818;stroke-width:1;"/><line style="stroke:#181818;stroke-width:1;" x1="392.4014" x2="766.9902" y1="437.1875" y2="437.1875"/><text fill="#000000" font-family="sans-serif" font-size="13" font-weight="bold" lengthAdjust="spacing" textLength="18.0908" x="404.4014" y="432.1216">10</text><text fill="#000000" font-family="sans-serif" font-size="13" lengthAdjust="spacing" textLength="339.498" x="426.4922" y="432.1216">reply_data.reply_callback(reply_data.reply_payload)</text><polygon fill="#181818" points="98.7344,462.3203,88.7344,466.3203,98.7344,470.3203,94.7344,466.3203" style="stroke:#181818;stroke-width:1;"/><line style="stroke:#181818;stroke-width:1;" x1="92.7344" x2="376.4014" y1="466.3203" y2="466.3203"/><text fill="#000000" font-family="sans-serif" font-size="13" font-weight="bold" lengthAdjust="spacing" textLength="18.0908" x="104.7344" y="461.2544">11</text><text fill="#000000" font-family="sans-serif" font-size="13" lengthAdjust="spacing" textLength="229.4932" x="126.8252" y="461.2544">on_method_reply(x, reply_payload)</text><polygon fill="#181818" points="365.4014,491.4531,375.4014,495.4531,365.4014,499.4531,369.4014,495.4531" style="stroke:#181818;stroke-width:1;"/><line style="stroke:#181818;stroke-width:1;stroke-dasharray:2.0,2.0;" x1="82.7344" x2="371.4014" y1="495.4531" y2="495.4531"/><text fill="#000000" font-family="sans-serif" font-size="13" font-weight="bold" lengthAdjust="spacing" textLength="18.0908" x="89.7344" y="490.3872">12</text><text fill="#000000" font-family="sans-serif" font-size="13" lengthAdjust="spacing" textLength="4.1323" x="111.8252" y="490.3872">&#160;</text><polygon fill="#181818" points="755.9902,520.5859,765.9902,524.5859,755.9902,528.5859,759.9902,524.5859" style="stroke:#181818;stroke-width:1;"/><line style="stroke:#181818;stroke-width:1;stroke-dasharray:2.0,2.0;" x1="382.4014" x2="761.9902" y1="524.5859" y2="524.5859"/><text fill="#000000" font-family="sans-serif" font-size="13" font-weight="bold" lengthAdjust="spacing" textLength="18.0908" x="389.4014" y="519.52">13</text><text fill="#000000" font-family="sans-serif" font-size="13" lengthAdjust="spacing" textLength="4.1323" x="411.4922" y="519.52">&#160;</text><rect fill="#EEEEEE" height="3" style="stroke:#EEEEEE;stroke-width:1;" width="1159.9331" x="0" y="553.1523"/><line style="stroke:#000000;stroke-width:1;" x1="0" x2="1159.9331" y1="553.1523" y2="553.1523"/><line style="stroke:#000000;stroke-width:1;" x1="0" x2="1159.9331" y1="556.1523" y2="556.1523"/><rect fill="#EEEEEE" height="23.1328" style="stroke:#000000;stroke-width:2;" width="205.3945" x="477.2693" y="542.5859"/><text fill="#000000" font-family="sans-serif" font-size="13" font-weight="bold" lengthAdjust="spacing" textLength="186.8687" x="483.2693" y="558.6528">Fire and forget (no reply)</text><polygon fill="#181818" points="365.4014,592.8516,375.4014,596.8516,365.4014,600.8516,369.4014,596.8516" style="stroke:#181818;stroke-width:1;"/><line style="stroke:#181818;stroke-width:1;" x1="82.7344" x2="371.4014" y1="596.8516" y2="596.8516"/><text fill="#000000" font-family="sans-serif" font-size="13" font-weight="bold" lengthAdjust="spacing" textLength="18.0908" x="89.7344" y="591.7856">14</text><text fill="#000000" font-family="sans-serif" font-size="13" lengthAdjust="spacing" textLength="212.9258" x="111.8252" y="591.7856">allocate_method_call_payload(x)</text><polygon fill="#181818" points="760.9902,621.9844,770.9902,625.9844,760.9902,629.9844,764.9902,625.9844" style="stroke:#181818;stroke-width:1;"/><line style="stroke:#181818;stroke-width:1;" x1="387.4014" x2="766.9902" y1="625.9844" y2="625.9844"/><text fill="#000000" font-family="sans-serif" font-size="13" font-weight="bold" lengthAdjust="spacing" textLength="18.0908" x="394.4014" y="620.9185">15</text><text fill="#000000" font-family="sans-serif" font-size="13" lengthAdjust="spacing" textLength="235.6187" x="416.4922" y="620.9185">on_method_call_payload_allocate(x)</text><polygon fill="#181818" points="398.4014,651.1172,388.4014,655.1172,398.4014,659.1172,394.4014,655.1172" style="stroke:#181818;stroke-width:1;"/><line style="stroke:#181818;stroke-width:1;stroke-dasharray:2.0,2.0;" x1="392.4014" x2="766.9902" y1="655.1172" y2="655.1172"/><text fill="#000000" font-family="sans-serif" font-size="13" font-weight="bold" lengthAdjust="spacing" textLength="18.0908" x="404.4014" y="650.0513">16</text><text fill="#000000" font-family="sans-serif" font-size="13" lengthAdjust="spacing" textLength="110.7095" x="426.4922" y="650.0513">writable_payload</text><polygon fill="#181818" points="93.7344,680.25,83.7344,684.25,93.7344,688.25,89.7344,684.25" style="stroke:#181818;stroke-width:1;"/><line style="stroke:#181818;stroke-width:1;stroke-dasharray:2.0,2.0;" x1="87.7344" x2="381.4014" y1="684.25" y2="684.25"/><text fill="#000000" font-family="sans-serif" font-size="13" font-weight="bold" lengthAdjust="spacing" textLength="18.0908" x="99.7344" y="679.1841">17</text><text fill="#000000" font-family="sans-serif" font-size="13" lengthAdjust="spacing" textLength="110.7095" x="121.8252" y="679.1841">writable_payload</text><polygon fill="#181818" points="365.4014,709.3828,375.4014,713.3828,365.4014,717.3828,369.4014,713.3828" style="stroke:#181818;stroke-width:1;"/><line style="stroke:#181818;stroke-width:1;" x1="82.7344" x2="371.4014" y1="713.3828" y2="713.3828"/><text fill="#000000" font-family="sans-serif" font-size="13" font-weight="bold" lengthAdjust="spacing" textLength="18.0908" x="89.7344" y="708.3169">18</text><text fill="#000000" font-family="sans-serif" font-size="13" lengthAdjust="spacing" textLength="238.9448" x="111.8252" y="708.3169">call_method(x, call_payload, nullopt)</text><polygon fill="#181818" points="760.9902,738.5156,770.9902,742.5156,760.9902,746.5156,764.9902,742.5156" style="stroke:#181818;stroke-width:1;"/><line style="stroke:#181818;stroke-width:1;" x1="387.4014" x2="766.9902" y1="742.5156" y2="742.5156"/><text fill="#000000" font-family="sans-serif" font-size="13" font-weight="bold" lengthAdjust="spacing" textLength="18.0908" x="394.4014" y="737.4497">19</text><text fill="#000000" font-family="sans-serif" font-size="13" lengthAdjust="spacing" textLength="261.6377" x="416.4922" y="737.4497">on_method_call(x, call_payload, nullopt)</text><line style="stroke:#181818;stroke-width:1;" x1="782.9902" x2="824.9902" y1="771.6484" y2="771.6484"/><line style="stroke:#181818;stroke-width:1;" x1="824.9902" x2="824.9902" y1="771.6484" y2="784.6484"/><line style="stroke:#181818;stroke-width:1;" x1="783.9902" x2="824.9902" y1="784.6484" y2="784.6484"/><polygon fill="#181818" points="793.9902,780.6484,783.9902,784.6484,793.9902,788.6484,789.9902,784.6484" style="stroke:#181818;stroke-width:1;"/><text fill="#000000" font-family="sans-serif" font-size="13" font-weight="bold" lengthAdjust="spacing" textLength="18.0908" x="789.9902" y="766.5825">20</text><text fill="#000000" font-family="sans-serif" font-size="13" lengthAdjust="spacing" textLength="116.4033" x="812.0811" y="766.5825">process method x</text><polygon fill="#181818" points="398.4014,809.7813,388.4014,813.7813,398.4014,817.7813,394.4014,813.7813" style="stroke:#181818;stroke-width:1;"/><line style="stroke:#181818;stroke-width:1;stroke-dasharray:2.0,2.0;" x1="392.4014" x2="766.9902" y1="813.7813" y2="813.7813"/><text fill="#000000" font-family="sans-serif" font-size="13" font-weight="bold" lengthAdjust="spacing" textLength="18.0908" x="404.4014" y="808.7153">21</text><text fill="#000000" font-family="sans-serif" font-size="13" lengthAdjust="spacing" textLength="4.1323" x="426.4922" y="808.7153">&#160;</text><polygon fill="#181818" points="93.7344,838.9141,83.7344,842.9141,93.7344,846.9141,89.7344,842.9141" style="stroke:#181818;stroke-width:1;"/><line style="stroke:#181818;stroke-width:1;stroke-dasharray:2.0,2.0;" x1="87.7344" x2="381.4014" y1="842.9141" y2="842.9141"/><text fill="#000000" font-family="sans-serif" font-size="13" font-weight="bold" lengthAdjust="spacing" textLength="18.0908" x="99.7344" y="837.8481">22</text><text fill="#000000" font-family="sans-serif" font-size="13" lengthAdjust="spacing" textLength="4.1323" x="121.8252" y="837.8481">&#160;</text><!--SRC=[vLAzReCm4Dxz53SIAQtKDGfP8dMjr3u0SimbiGe-rnnfylOrs50dWKhjMXQmyVVhizAnLjfAmx2jD1ekdc2zLbHRCdu5RODkin4sEVVsigNwUWVT2TqKJhPCfgrtw8HKh4-ICPx-NW-wGkGvlAAjBk3meyM6iOGy5s8qzh09uh02MLMaFBgeaOzK5ifl55PUAf9bTbuaQhtR0ElmmUeAo4n1Yu7tcYCuTiYjC_3fDCjTXGDcTd_IUAyMbBFp4bBnfS_jqnUbPBaGlutmCzjjbaYIqbb72fi60YUSOwxX9GnvkDE78mFj1nxmJsIe-rzT2mYTA6Z3b9Xu39z3EsXAw2X5wYMMT0VgWksaUi_cwEPlVBo4jB0UspKsHp8EPKmVwSQ-X2ZnHj5FxxDs2D87svCx84DcOW6BVpR8flNobk_i_s6A9wZY3VnwXhy0]--></g></svg>