<svg xmlns="http://www.w3.org/2000/svg" xmlns:xlink="http://www.w3.org/1999/xlink" contentStyleType="text/css" data-diagram-type="SEQUENCE" height="968px" preserveAspectRatio="none" style="width:1347px;height:968px;background:#FFFFFF;" version="1.1" viewBox="0 0 1347 968" width="1347px" zoomAndPan="magnify"><defs/><g><g><title>&lt;&lt;component user&gt;&gt;</title><rect fill="#FFFFFF" height="845.4766" style="stroke:#181818;stroke-width:1;" width="10" x="72.7344" y="62.5938"/></g><g><title>SOCom</title><rect fill="#FFFFFF" height="771.2109" style="stroke:#181818;stroke-width:1;" width="10" x="436.8325" y="136.8594"/></g><g><title>SOCom</title><rect fill="#FFFFFF" height="39.6992" style="stroke:#181818;stroke-width:1;" width="10" x="441.8325" y="225.75"/></g><g><title>SOCom</title><rect fill="#FFFFFF" height="29.1328" style="stroke:#181818;stroke-width:1;" width="10" x="441.8325" y="444.8125"/></g><g><title>SOCom</title><rect fill="#FFFFFF" height="271.4609" style="stroke:#181818;stroke-width:1;" width="10" x="441.8325" y="627.6094"/></g><g><title>&lt;&lt;component user&gt;&gt;</title><rect fill="#FFFFFF" height="729.9141" style="stroke:#181818;stroke-width:1;" width="10" x="982.5479" y="178.1563"/></g><g><title>&lt;&lt;component user&gt;&gt;</title><rect fill="#FFFFFF" height="171.0625" style="stroke:#181818;stroke-width:1;" width="10" x="987.5479" y="698.875"/></g><rect fill="transparent" height="82.5313" style="stroke:#000000;stroke-width:1.5;" width="433.0806" x="891.4185" y="334.1484"/><rect fill="transparent" height="67.3984" style="stroke:#000000;stroke-width:1.5;" width="931.9902" x="398.8901" y="488.9453"/><rect fill="transparent" height="127.9297" style="stroke:#000000;stroke-width:1.5;" width="429.6787" x="891.4185" y="713.875"/><g><title>&lt;&lt;component user&gt;&gt;</title><rect fill="transparent" height="864.4766" width="8" x="73.7344" y="52.5938"/><line style="stroke:#181818;stroke-width:0.5;stroke-dasharray:5.0,5.0;" x1="77" x2="77" y1="52.5938" y2="917.0703"/></g><g><title>SOCom</title><rect fill="transparent" height="780.6953" width="8" x="437.8325" y="136.375"/><line style="stroke:#181818;stroke-width:0.5;stroke-dasharray:5.0,5.0;" x1="440.8901" x2="440.8901" y1="136.375" y2="917.0703"/></g><g><title>&lt;&lt;component user&gt;&gt;</title><rect fill="transparent" height="731.25" width="8" x="983.5479" y="185.8203"/><line style="stroke:#181818;stroke-width:0.5;stroke-dasharray:5.0,5.0;" x1="987.4185" x2="987.4185" y1="185.8203" y2="917.0703"/></g><rect fill="#E2E2F0" height="46.5938" rx="2.5" ry="2.5" style="stroke:#181818;stroke-width:0.5;" width="145.4688" x="5" y="5"/><text fill="#000000" font-family="sans-serif" font-size="14" font-style="italic" lengthAdjust="spacing" textLength="131.4688" x="12" y="24.9951">&#171;component user&#187;</text><text fill="#000000" font-family="sans-serif" font-size="14" lengthAdjust="spacing" textLength="78.2236" x="38.6226" y="41.292">Application</text><rect fill="#E2E2F0" height="46.5938" rx="2.5" ry="2.5" style="stroke:#181818;stroke-width:0.5;" width="145.4688" x="5" y="916.0703"/><text fill="#000000" font-family="sans-serif" font-size="14" font-style="italic" lengthAdjust="spacing" textLength="131.4688" x="12" y="936.0654">&#171;component user&#187;</text><text fill="#000000" font-family="sans-serif" font-size="14" lengthAdjust="spacing" textLength="78.2236" x="38.6226" y="952.3623">Application</text><rect fill="#E2E2F0" height="30.2969" rx="2.5" ry="2.5" style="stroke:#181818;stroke-width:0.5;" width="65.8848" x="408.8901" y="916.0703"/><text fill="#000000" font-family="sans-serif" font-size="14" lengthAdjust="spacing" textLength="51.8848" x="415.8901" y="936.0654">SOCom</text><rect fill="#E2E2F0" height="46.5938" rx="2.5" ry="2.5" style="stroke:#181818;stroke-width:0.5;" width="172.2588" x="901.4185" y="916.0703"/><text fill="#000000" font-family="sans-serif" font-size="14" font-style="italic" lengthAdjust="spacing" textLength="131.4688" x="921.8135" y="936.0654">&#171;component user&#187;</text><text fill="#000000" font-family="sans-serif" font-size="14" lengthAdjust="spacing" textLength="158.2588" x="908.4185" y="952.3623">Generic service bridge</text><g><title>&lt;&lt;component user&gt;&gt;</title><rect fill="#FFFFFF" height="845.4766" style="stroke:#181818;stroke-width:1;" width="10" x="72.7344" y="62.5938"/></g><g><title>SOCom</title><rect fill="#FFFFFF" height="771.2109" style="stroke:#181818;stroke-width:1;" width="10" x="436.8325" y="136.8594"/></g><g><title>SOCom</title><rect fill="#FFFFFF" height="39.6992" style="stroke:#181818;stroke-width:1;" width="10" x="441.8325" y="225.75"/></g><g><title>SOCom</title><rect fill="#FFFFFF" height="29.1328" style="stroke:#181818;stroke-width:1;" width="10" x="441.8325" y="444.8125"/></g><g><title>SOCom</title><rect fill="#FFFFFF" height="271.4609" style="stroke:#181818;stroke-width:1;" width="10" x="441.8325" y="627.6094"/></g><g><title>&lt;&lt;component user&gt;&gt;</title><rect fill="#FFFFFF" height="729.9141" style="stroke:#181818;stroke-width:1;" width="10" x="982.5479" y="178.1563"/></g><g><title>&lt;&lt;component user&gt;&gt;</title><rect fill="#FFFFFF" height="171.0625" style="stroke:#181818;stroke-width:1;" width="10" x="987.5479" y="698.875"/></g><rect fill="#EEEEEE" height="3" style="stroke:#EEEEEE;stroke-width:1;" width="1340.8804" x="0" y="83.1602"/><line style="stroke:#000000;stroke-width:1;" x1="0" x2="1340.8804" y1="83.1602" y2="83.1602"/><line style="stroke:#000000;stroke-width:1;" x1="0" x2="1340.8804" y1="86.1602" y2="86.1602"/><rect fill="#EEEEEE" height="23.1328" style="stroke:#000000;stroke-width:2;" width="110.624" x="615.1282" y="72.5938"/><text fill="#000000" font-family="sans-serif" font-size="13" font-weight="bold" lengthAdjust="spacing" textLength="92.0981" x="621.1282" y="88.6606">Initialization</text><polygon fill="#181818" points="396.8901,122.8594,406.8901,126.8594,396.8901,130.8594,400.8901,126.8594" style="stroke:#181818;stroke-width:1;"/><line style="stroke:#181818;stroke-width:1;" x1="82.7344" x2="402.8901" y1="126.8594" y2="126.8594"/><text fill="#000000" font-family="sans-serif" font-size="13" font-weight="bold" lengthAdjust="spacing" textLength="9.0454" x="89.7344" y="121.7935">1</text><text fill="#000000" font-family="sans-serif" font-size="13" lengthAdjust="spacing" textLength="109.3892" x="102.7798" y="121.7935">create_runtime()</text><rect fill="#E2E2F0" height="30.2969" rx="2.5" ry="2.5" style="stroke:#181818;stroke-width:0.5;" width="65.8848" x="408.8901" y="105.7266"/><text fill="#000000" font-family="sans-serif" font-size="14" lengthAdjust="spacing" textLength="51.8848" x="415.8901" y="125.7217">SOCom</text><polygon fill="#181818" points="889.4185,164.1563,899.4185,168.1563,889.4185,172.1563,893.4185,168.1563" style="stroke:#181818;stroke-width:1;"/><line style="stroke:#181818;stroke-width:1;" x1="82.7344" x2="895.4185" y1="168.1563" y2="168.1563"/><text fill="#000000" font-family="sans-serif" font-size="13" font-weight="bold" lengthAdjust="spacing" textLength="9.0454" x="89.7344" y="163.0903">2</text><text fill="#000000" font-family="sans-serif" font-size="13" lengthAdjust="spacing" textLength="179.9497" x="102.7798" y="163.0903">create_bridge_component()</text><rect fill="#E2E2F0" height="46.5938" rx="2.5" ry="2.5" style="stroke:#181818;stroke-width:0.5;" width="172.2588" x="901.4185" y="147.0234"/><text fill="#000000" font-family="sans-serif" font-size="14" font-style="italic" lengthAdjust="spacing" textLength="131.4688" x="921.8135" y="167.0186">&#171;component user&#187;</text><text fill="#000000" font-family="sans-serif" font-size="14" lengthAdjust="spacing" textLength="158.2588" x="908.4185" y="183.3154">Generic service bridge</text><polygon fill="#181818" points="462.8325,221.75,452.8325,225.75,462.8325,229.75,458.8325,225.75" style="stroke:#181818;stroke-width:1;"/><line style="stroke:#181818;stroke-width:1;" x1="456.8325" x2="981.5479" y1="225.75" y2="225.75"/><text fill="#000000" font-family="sans-serif" font-size="13" font-weight="bold" lengthAdjust="spacing" textLength="9.0454" x="468.8325" y="220.6841">3</text><text fill="#000000" font-family="sans-serif" font-size="13" lengthAdjust="spacing" textLength="312.8188" x="481.8779" y="220.6841">register_service_bridge(bridge_request_service)</text><polygon fill="#181818" points="970.5479,261.4492,980.5479,265.4492,970.5479,269.4492,974.5479,265.4492" style="stroke:#181818;stroke-width:1;"/><line style="stroke:#181818;stroke-width:1;stroke-dasharray:2.0,2.0;" x1="446.8325" x2="976.5479" y1="265.4492" y2="265.4492"/><text fill="#000000" font-family="sans-serif" font-size="13" font-weight="bold" lengthAdjust="spacing" textLength="9.0454" x="453.8325" y="260.3833">4</text><text fill="#000000" font-family="sans-serif" font-size="13" lengthAdjust="spacing" textLength="4.1323" x="466.8779" y="260.3833">&#160;</text><path d="M997,238.75 L997,278.75 L1291,278.75 L1291,248.75 L1281,238.75 L997,238.75 " fill="#FEFFDD" style="stroke:#181818;stroke-width:0.5;"/><path d="M1281,238.75 L1281,248.75 L1291,248.75 L1281,238.75 " fill="#FEFFDD" style="stroke:#181818;stroke-width:0.5;"/><text fill="#000000" font-family="sans-serif" font-size="13" lengthAdjust="spacing" textLength="245.3433" x="1003" y="255.8169">To get information about services the</text><text fill="#000000" font-family="sans-serif" font-size="13" lengthAdjust="spacing" textLength="273.292" x="1003" y="270.9497">bridge needs to create a client connector.</text><rect fill="#EEEEEE" height="3" style="stroke:#EEEEEE;stroke-width:1;" width="1340.8804" x="0" y="304.582"/><line style="stroke:#000000;stroke-width:1;" x1="0" x2="1340.8804" y1="304.582" y2="304.582"/><line style="stroke:#000000;stroke-width:1;" x1="0" x2="1340.8804" y1="307.582" y2="307.582"/><rect fill="#EEEEEE" height="23.1328" style="stroke:#000000;stroke-width:2;" width="243.3599" x="548.7603" y="294.0156"/><text fill="#000000" font-family="sans-serif" font-size="13" font-weight="bold" lengthAdjust="spacing" textLength="224.834" x="554.7603" y="310.0825">service instance remote usage</text><path d="M891.4185,334.1484 L1099.3882,334.1484 L1099.3882,341.2813 L1089.3882,351.2813 L891.4185,351.2813 L891.4185,334.1484 " fill="#EEEEEE" style="stroke:#000000;stroke-width:1.5;"/><rect fill="transparent" height="82.5313" style="stroke:#000000;stroke-width:1.5;" width="433.0806" x="891.4185" y="334.1484"/><text fill="#000000" font-family="sans-serif" font-size="13" font-weight="bold" lengthAdjust="spacing" textLength="162.9697" x="906.4185" y="347.2153">Implementation detail</text><line style="stroke:#181818;stroke-width:1;" x1="992.5479" x2="1034.5479" y1="384.0469" y2="384.0469"/><line style="stroke:#181818;stroke-width:1;" x1="1034.5479" x2="1034.5479" y1="384.0469" y2="397.0469"/><line style="stroke:#181818;stroke-width:1;" x1="993.5479" x2="1034.5479" y1="397.0469" y2="397.0469"/><polygon fill="#181818" points="1003.5479,393.0469,993.5479,397.0469,1003.5479,401.0469,999.5479,397.0469" style="stroke:#181818;stroke-width:1;"/><text fill="#000000" font-family="sans-serif" font-size="13" font-weight="bold" lengthAdjust="spacing" textLength="9.0454" x="999.5479" y="378.981">5</text><text fill="#000000" font-family="sans-serif" font-size="13" lengthAdjust="spacing" textLength="4.1323" x="1012.5933" y="378.981">&#160;</text><path d="M1057,356.2813 L1057,411.2813 L1303,411.2813 L1303,366.2813 L1293,356.2813 L1057,356.2813 " fill="#FEFFDD" style="stroke:#181818;stroke-width:0.5;"/><path d="M1293,356.2813 L1293,366.2813 L1303,366.2813 L1293,356.2813 " fill="#FEFFDD" style="stroke:#181818;stroke-width:0.5;"/><text fill="#000000" font-family="sans-serif" font-size="13" lengthAdjust="spacing" textLength="225.9512" x="1063" y="373.3481">A remote counterpart is interested</text><text fill="#000000" font-family="sans-serif" font-size="13" lengthAdjust="spacing" textLength="191.4771" x="1063" y="388.481">in a service and informed the</text><text fill="#000000" font-family="sans-serif" font-size="13" lengthAdjust="spacing" textLength="138.1821" x="1063" y="403.6138">service bridge about.</text><polygon fill="#181818" points="462.8325,440.8125,452.8325,444.8125,462.8325,448.8125,458.8325,444.8125" style="stroke:#181818;stroke-width:1;"/><line style="stroke:#181818;stroke-width:1;" x1="456.8325" x2="981.5479" y1="444.8125" y2="444.8125"/><text fill="#000000" font-family="sans-serif" font-size="13" font-weight="bold" lengthAdjust="spacing" textLength="9.0454" x="468.8325" y="439.7466">6</text><text fill="#000000" font-family="sans-serif" font-size="13" lengthAdjust="spacing" textLength="311.6064" x="481.8779" y="439.7466">make_client_connector(interface_A, instance_1)</text><polygon fill="#181818" points="970.5479,469.9453,980.5479,473.9453,970.5479,477.9453,974.5479,473.9453" style="stroke:#181818;stroke-width:1;"/><line style="stroke:#181818;stroke-width:1;stroke-dasharray:2.0,2.0;" x1="446.8325" x2="976.5479" y1="473.9453" y2="473.9453"/><text fill="#000000" font-family="sans-serif" font-size="13" font-weight="bold" lengthAdjust="spacing" textLength="9.0454" x="453.8325" y="468.8794">7</text><text fill="#000000" font-family="sans-serif" font-size="13" lengthAdjust="spacing" textLength="4.1323" x="466.8779" y="468.8794">&#160;</text><path d="M398.8901,488.9453 L657.7554,488.9453 L657.7554,496.0781 L647.7554,506.0781 L398.8901,506.0781 L398.8901,488.9453 " fill="#EEEEEE" style="stroke:#000000;stroke-width:1.5;"/><rect fill="transparent" height="67.3984" style="stroke:#000000;stroke-width:1.5;" width="931.9902" x="398.8901" y="488.9453"/><text fill="#000000" font-family="sans-serif" font-size="13" font-weight="bold" lengthAdjust="spacing" textLength="213.8652" x="413.8901" y="502.0122">!!! Important: break circle !!!</text><line style="stroke:#181818;stroke-width:2;" x1="453.8325" x2="463.8325" y1="532.7773" y2="542.7773"/><line style="stroke:#181818;stroke-width:2;" x1="453.8325" x2="463.8325" y1="542.7773" y2="532.7773"/><polygon fill="#181818" points="970.5479,533.7773,980.5479,537.7773,970.5479,541.7773,974.5479,537.7773" style="stroke:#181818;stroke-width:1;"/><line style="stroke:#181818;stroke-width:1;stroke-dasharray:2.0,2.0;" x1="458.8325" x2="976.5479" y1="537.7773" y2="537.7773"/><text fill="#000000" font-family="sans-serif" font-size="13" font-weight="bold" lengthAdjust="spacing" textLength="9.0454" x="463.8325" y="532.7114">8</text><text fill="#000000" font-family="sans-serif" font-size="13" lengthAdjust="spacing" textLength="312.603" x="476.8779" y="532.7114">bridge_request_service(interface_A, instance_1)</text><path d="M997,511.0781 L997,551.0781 L1320,551.0781 L1320,521.0781 L1310,511.0781 L997,511.0781 " fill="#FFAAAA" style="stroke:#181818;stroke-width:0.5;"/><path d="M1310,511.0781 L1310,521.0781 L1320,521.0781 L1310,511.0781 " fill="#FFAAAA" style="stroke:#181818;stroke-width:0.5;"/><text fill="#000000" font-family="sans-serif" font-size="13" lengthAdjust="spacing" textLength="274.2378" x="1003" y="528.145">SOCom shall call bridge_request_service()</text><text fill="#000000" font-family="sans-serif" font-size="13" lengthAdjust="spacing" textLength="302.3325" x="1003" y="543.2778">only if service instance is locally not available.</text><rect fill="#EEEEEE" height="3" style="stroke:#EEEEEE;stroke-width:1;" width="1340.8804" x="0" y="583.9102"/><line style="stroke:#000000;stroke-width:1;" x1="0" x2="1340.8804" y1="583.9102" y2="583.9102"/><line style="stroke:#000000;stroke-width:1;" x1="0" x2="1340.8804" y1="586.9102" y2="586.9102"/><rect fill="#EEEEEE" height="23.1328" style="stroke:#000000;stroke-width:2;" width="297.4292" x="521.7256" y="573.3438"/><text fill="#000000" font-family="sans-serif" font-size="13" font-weight="bold" lengthAdjust="spacing" textLength="278.9033" x="527.7256" y="589.4106">Application creates a service instance</text><polygon fill="#181818" points="429.8325,623.6094,439.8325,627.6094,429.8325,631.6094,433.8325,627.6094" style="stroke:#181818;stroke-width:1;"/><line style="stroke:#181818;stroke-width:1;" x1="82.7344" x2="435.8325" y1="627.6094" y2="627.6094"/><text fill="#000000" font-family="sans-serif" font-size="13" font-weight="bold" lengthAdjust="spacing" textLength="9.0454" x="89.7344" y="622.5435">9</text><text fill="#000000" font-family="sans-serif" font-size="13" lengthAdjust="spacing" textLength="317.0527" x="102.7798" y="622.5435">make_server_connector(interface_A, instance_1)</text><line style="stroke:#181818;stroke-width:1;" x1="451.8325" x2="493.8325" y1="656.7422" y2="656.7422"/><line style="stroke:#181818;stroke-width:1;" x1="493.8325" x2="493.8325" y1="656.7422" y2="669.7422"/><line style="stroke:#181818;stroke-width:1;" x1="452.8325" x2="493.8325" y1="669.7422" y2="669.7422"/><polygon fill="#181818" points="462.8325,665.7422,452.8325,669.7422,462.8325,673.7422,458.8325,669.7422" style="stroke:#181818;stroke-width:1;"/><text fill="#000000" font-family="sans-serif" font-size="13" font-weight="bold" lengthAdjust="spacing" textLength="18.0908" x="458.8325" y="651.6763">10</text><text fill="#000000" font-family="sans-serif" font-size="13" lengthAdjust="spacing" textLength="4.1323" x="480.9233" y="651.6763">&#160;</text><path d="M521,644.1094 L521,669.1094 L902,669.1094 L902,654.1094 L892,644.1094 L521,644.1094 " fill="#FEFFDD" style="stroke:#181818;stroke-width:0.5;"/><path d="M892,644.1094 L892,654.1094 L902,654.1094 L892,644.1094 " fill="#FEFFDD" style="stroke:#181818;stroke-width:0.5;"/><text fill="#000000" font-family="sans-serif" font-size="13" lengthAdjust="spacing" textLength="360.585" x="527" y="661.1763">SOCom connects client_connector to server_connector.</text><polygon fill="#181818" points="975.5479,694.875,985.5479,698.875,975.5479,702.875,979.5479,698.875" style="stroke:#181818;stroke-width:1;"/><line style="stroke:#181818;stroke-width:1;" x1="451.8325" x2="981.5479" y1="698.875" y2="698.875"/><text fill="#000000" font-family="sans-serif" font-size="13" font-weight="bold" lengthAdjust="spacing" textLength="18.0908" x="458.8325" y="693.8091">11</text><text fill="#000000" font-family="sans-serif" font-size="13" lengthAdjust="spacing" textLength="484.6245" x="480.9233" y="693.8091">Client_connector::Service_state_change_callback(Service_state::available)</text><path d="M891.4185,713.875 L1099.3882,713.875 L1099.3882,721.0078 L1089.3882,731.0078 L891.4185,731.0078 L891.4185,713.875 " fill="#EEEEEE" style="stroke:#000000;stroke-width:1.5;"/><rect fill="transparent" height="127.9297" style="stroke:#000000;stroke-width:1.5;" width="429.6787" x="891.4185" y="713.875"/><text fill="#000000" font-family="sans-serif" font-size="13" font-weight="bold" lengthAdjust="spacing" textLength="162.9697" x="906.4185" y="726.9419">Implementation detail</text><line style="stroke:#181818;stroke-width:1;" x1="997.5479" x2="1039.5479" y1="786.4727" y2="786.4727"/><line style="stroke:#181818;stroke-width:1;" x1="1039.5479" x2="1039.5479" y1="786.4727" y2="799.4727"/><line style="stroke:#181818;stroke-width:1;" x1="998.5479" x2="1039.5479" y1="799.4727" y2="799.4727"/><polygon fill="#181818" points="1008.5479,795.4727,998.5479,799.4727,1008.5479,803.4727,1004.5479,799.4727" style="stroke:#181818;stroke-width:1;"/><text fill="#000000" font-family="sans-serif" font-size="13" font-weight="bold" lengthAdjust="spacing" textLength="18.0908" x="1004.5479" y="781.4067">12</text><text fill="#000000" font-family="sans-serif" font-size="13" lengthAdjust="spacing" textLength="4.1323" x="1026.6387" y="781.4067">&#160;</text><path d="M1067,736.0078 L1067,836.0078 L1295,836.0078 L1295,746.0078 L1285,736.0078 L1067,736.0078 " fill="#FEFFDD" style="stroke:#181818;stroke-width:0.5;"/><path d="M1285,736.0078 L1285,746.0078 L1295,746.0078 L1285,736.0078 " fill="#FEFFDD" style="stroke:#181818;stroke-width:0.5;"/><text fill="#000000" font-family="sans-serif" font-size="13" lengthAdjust="spacing" textLength="173.4434" x="1073" y="753.0747">The generic service bridge</text><text fill="#000000" font-family="sans-serif" font-size="13" lengthAdjust="spacing" textLength="207.5493" x="1073" y="768.2075">informs its remote counterparts</text><text fill="#000000" font-family="sans-serif" font-size="13" lengthAdjust="spacing" textLength="137.8013" x="1073" y="783.3403">about the availability</text><text fill="#000000" font-family="sans-serif" font-size="13" lengthAdjust="spacing" textLength="165.5342" x="1073" y="798.4731">of a new service instance</text><text fill="#000000" font-family="sans-serif" font-size="13" lengthAdjust="spacing" textLength="151.4805" x="1073" y="813.606">interface_A, instance_1</text><text fill="#000000" font-family="sans-serif" font-size="13" lengthAdjust="spacing" textLength="138.8613" x="1073" y="828.7388">at the local endpoint.</text><polygon fill="#181818" points="462.8325,865.9375,452.8325,869.9375,462.8325,873.9375,458.8325,869.9375" style="stroke:#181818;stroke-width:1;"/><line style="stroke:#181818;stroke-width:1;stroke-dasharray:2.0,2.0;" x1="456.8325" x2="981.5479" y1="869.9375" y2="869.9375"/><text fill="#000000" font-family="sans-serif" font-size="13" font-weight="bold" lengthAdjust="spacing" textLength="18.0908" x="468.8325" y="864.8716">13</text><text fill="#000000" font-family="sans-serif" font-size="13" lengthAdjust="spacing" textLength="4.1323" x="490.9233" y="864.8716">&#160;</text><polygon fill="#181818" points="93.7344,895.0703,83.7344,899.0703,93.7344,903.0703,89.7344,899.0703" style="stroke:#181818;stroke-width:1;"/><line style="stroke:#181818;stroke-width:1;stroke-dasharray:2.0,2.0;" x1="87.7344" x2="435.8325" y1="899.0703" y2="899.0703"/><text fill="#000000" font-family="sans-serif" font-size="13" font-weight="bold" lengthAdjust="spacing" textLength="18.0908" x="99.7344" y="894.0044">14</text><text fill="#000000" font-family="sans-serif" font-size="13" lengthAdjust="spacing" textLength="4.1323" x="121.8252" y="894.0044">&#160;</text><!--SRC=[dLHDZzem4BtxLmpqmgwwbNgD5YIqqbPxwc7tq1iQp00Z4Zkr7IhwwpkEdH027BOS-CXudj-yDuyQNM3DDPe0MDU07gRBkYvPOs1hfl3yh6rLMqDoeF7a5WjL3tgybNBRzVxpnLRJY-BQyMP7RVK76NAiGH2Eh2cNRi9Z4wnfgZKvfUPpU3CS64l-snA2-Lmfr86F62WoLf4rF2qoayT7A40xakhADIPmHRE7SqDxg6_9_8OzwT6g9pLiJZMbSbj_Pm7WQCS-a5lb-JBEBCCv-jsG3rtrYf2Zq3YZbB7ooF5k7zI7XHq5OBErhagZuzeseLFGGzXJHyKGRUI1pLC0WYuvIggjCQI3TTyKcGr4_5RKpWOsFg2HBuwgU7VZKU2YnZjdcnhUghgaIf0IWmq5v78WG9Pam7lPGMahyfEB-m3ivIRv8HhGHh6CqZD0ePM6f4qxqkM6fA47xENBBGSgF8XhxT2hVkXPU-aMnO_brtxMrVUx-gUX9vD97DmwEHuA8K9u0CrEbnHhAjtvw-cyGGNSDle-WRDYyENrTIalrGO8_1xB4dHykuFveAmfJy3RQnT5vzB6tbCK2_0eRk6wfB5-iW63aEUjyGDNUiGsRXANiTJneApxvwLEA1tSS7FI_1dHmzZCkDxZMuTRtGFtdhoC48hYFQTJs4dMzHvDpBhejKPzc5rKYw9NxyPVmF-cusDF4kjRVuKgXK228hDVHyYhb7v9I6ShbnnEocx5DaD_hgnJTnnHc53QHG7HhxPoShGXNI3ovpy0]--></g></svg>