<svg xmlns="http://www.w3.org/2000/svg" xmlns:xlink="http://www.w3.org/1999/xlink" contentStyleType="text/css" data-diagram-type="SEQUENCE" height="908px" preserveAspectRatio="none" style="width:1404px;height:908px;background:#FFFFFF;" version="1.1" viewBox="0 0 1404 908" width="1404px" zoomAndPan="magnify"><defs/><g><g><title>&lt;&lt;component user&gt;&gt;</title><rect fill="#FFFFFF" height="784.9453" style="stroke:#181818;stroke-width:1;" width="10" x="72.7344" y="62.5938"/></g><g><title>SOCom</title><rect fill="#FFFFFF" height="710.6797" style="stroke:#181818;stroke-width:1;" width="10" x="431.3862" y="136.8594"/></g><g><title>SOCom</title><rect fill="#FFFFFF" height="39.6992" style="stroke:#181818;stroke-width:1;" width="10" x="436.3862" y="225.75"/></g><g><title>SOCom</title><rect fill="#FFFFFF" height="183.9297" style="stroke:#181818;stroke-width:1;" width="10" x="436.3862" y="348.2813"/></g><g><title>SOCom</title><rect fill="#FFFFFF" height="29.1328" style="stroke:#181818;stroke-width:1;" width="10" x="436.3862" y="685.875"/></g><g><title>&lt;&lt;component user&gt;&gt;</title><rect fill="#FFFFFF" height="669.3828" style="stroke:#181818;stroke-width:1;" width="10" x="873.8779" y="178.1563"/></g><g><title>&lt;&lt;component user&gt;&gt;</title><rect fill="#FFFFFF" height="125.6641" style="stroke:#181818;stroke-width:1;" width="10" x="878.8779" y="377.4141"/></g><rect fill="transparent" height="82.5313" style="stroke:#000000;stroke-width:1.5;" width="456.3071" x="782.7485" y="392.4141"/><rect fill="transparent" height="67.3984" style="stroke:#000000;stroke-width:1.5;" width="604.5815" x="782.7485" y="590.3438"/><rect fill="transparent" height="67.3984" style="stroke:#000000;stroke-width:1.5;" width="822.0063" x="393.4438" y="730.0078"/><g><title>&lt;&lt;component user&gt;&gt;</title><rect fill="transparent" height="803.9453" width="8" x="73.7344" y="52.5938"/><line style="stroke:#181818;stroke-width:0.5;stroke-dasharray:5.0,5.0;" x1="77" x2="77" y1="52.5938" y2="856.5391"/></g><g><title>SOCom</title><rect fill="transparent" height="720.1641" width="8" x="432.3862" y="136.375"/><line style="stroke:#181818;stroke-width:0.5;stroke-dasharray:5.0,5.0;" x1="435.4438" x2="435.4438" y1="136.375" y2="856.5391"/></g><g><title>&lt;&lt;component user&gt;&gt;</title><rect fill="transparent" height="670.7188" width="8" x="874.8779" y="185.8203"/><line style="stroke:#181818;stroke-width:0.5;stroke-dasharray:5.0,5.0;" x1="878.7485" x2="878.7485" y1="185.8203" y2="856.5391"/></g><rect fill="#E2E2F0" height="46.5938" rx="2.5" ry="2.5" style="stroke:#181818;stroke-width:0.5;" width="145.4688" x="5" y="5"/><text fill="#000000" font-family="sans-serif" font-size="14" font-style="italic" lengthAdjust="spacing" textLength="131.4688" x="12" y="24.9951">&#171;component user&#187;</text><text fill="#000000" font-family="sans-serif" font-size="14" lengthAdjust="spacing" textLength="78.2236" x="38.6226" y="41.292">Application</text><rect fill="#E2E2F0" height="46.5938" rx="2.5" ry="2.5" style="stroke:#181818;stroke-width:0.5;" width="145.4688" x="5" y="855.5391"/><text fill="#000000" font-family="sans-serif" font-size="14" font-style="italic" lengthAdjust="spacing" textLength="131.4688" x="12" y="875.5342">&#171;component user&#187;</text><text fill="#000000" font-family="sans-serif" font-size="14" lengthAdjust="spacing" textLength="78.2236" x="38.6226" y="891.8311">Application</text><rect fill="#E2E2F0" height="30.2969" rx="2.5" ry="2.5" style="stroke:#181818;stroke-width:0.5;" width="65.8848" x="403.4438" y="855.5391"/><text fill="#000000" font-family="sans-serif" font-size="14" lengthAdjust="spacing" textLength="51.8848" x="410.4438" y="875.5342">SOCom</text><rect fill="#E2E2F0" height="46.5938" rx="2.5" ry="2.5" style="stroke:#181818;stroke-width:0.5;" width="172.2588" x="792.7485" y="855.5391"/><text fill="#000000" font-family="sans-serif" font-size="14" font-style="italic" lengthAdjust="spacing" textLength="131.4688" x="813.1436" y="875.5342">&#171;component user&#187;</text><text fill="#000000" font-family="sans-serif" font-size="14" lengthAdjust="spacing" textLength="158.2588" x="799.7485" y="891.8311">Generic service bridge</text><g><title>&lt;&lt;component user&gt;&gt;</title><rect fill="#FFFFFF" height="784.9453" style="stroke:#181818;stroke-width:1;" width="10" x="72.7344" y="62.5938"/></g><g><title>SOCom</title><rect fill="#FFFFFF" height="710.6797" style="stroke:#181818;stroke-width:1;" width="10" x="431.3862" y="136.8594"/></g><g><title>SOCom</title><rect fill="#FFFFFF" height="39.6992" style="stroke:#181818;stroke-width:1;" width="10" x="436.3862" y="225.75"/></g><g><title>SOCom</title><rect fill="#FFFFFF" height="183.9297" style="stroke:#181818;stroke-width:1;" width="10" x="436.3862" y="348.2813"/></g><g><title>SOCom</title><rect fill="#FFFFFF" height="29.1328" style="stroke:#181818;stroke-width:1;" width="10" x="436.3862" y="685.875"/></g><g><title>&lt;&lt;component user&gt;&gt;</title><rect fill="#FFFFFF" height="669.3828" style="stroke:#181818;stroke-width:1;" width="10" x="873.8779" y="178.1563"/></g><g><title>&lt;&lt;component user&gt;&gt;</title><rect fill="#FFFFFF" height="125.6641" style="stroke:#181818;stroke-width:1;" width="10" x="878.8779" y="377.4141"/></g><rect fill="#EEEEEE" height="3" style="stroke:#EEEEEE;stroke-width:1;" width="1397.3301" x="0" y="83.1602"/><line style="stroke:#000000;stroke-width:1;" x1="0" x2="1397.3301" y1="83.1602" y2="83.1602"/><line style="stroke:#000000;stroke-width:1;" x1="0" x2="1397.3301" y1="86.1602" y2="86.1602"/><rect fill="#EEEEEE" height="23.1328" style="stroke:#000000;stroke-width:2;" width="110.624" x="643.353" y="72.5938"/><text fill="#000000" font-family="sans-serif" font-size="13" font-weight="bold" lengthAdjust="spacing" textLength="92.0981" x="649.353" y="88.6606">Initialization</text><polygon fill="#181818" points="391.4438,122.8594,401.4438,126.8594,391.4438,130.8594,395.4438,126.8594" style="stroke:#181818;stroke-width:1;"/><line style="stroke:#181818;stroke-width:1;" x1="82.7344" x2="397.4438" y1="126.8594" y2="126.8594"/><text fill="#000000" font-family="sans-serif" font-size="13" font-weight="bold" lengthAdjust="spacing" textLength="9.0454" x="89.7344" y="121.7935">1</text><text fill="#000000" font-family="sans-serif" font-size="13" lengthAdjust="spacing" textLength="109.3892" x="102.7798" y="121.7935">create_runtime()</text><rect fill="#E2E2F0" height="30.2969" rx="2.5" ry="2.5" style="stroke:#181818;stroke-width:0.5;" width="65.8848" x="403.4438" y="105.7266"/><text fill="#000000" font-family="sans-serif" font-size="14" lengthAdjust="spacing" textLength="51.8848" x="410.4438" y="125.7217">SOCom</text><polygon fill="#181818" points="780.7485,164.1563,790.7485,168.1563,780.7485,172.1563,784.7485,168.1563" style="stroke:#181818;stroke-width:1;"/><line style="stroke:#181818;stroke-width:1;" x1="82.7344" x2="786.7485" y1="168.1563" y2="168.1563"/><text fill="#000000" font-family="sans-serif" font-size="13" font-weight="bold" lengthAdjust="spacing" textLength="9.0454" x="89.7344" y="163.0903">2</text><text fill="#000000" font-family="sans-serif" font-size="13" lengthAdjust="spacing" textLength="179.9497" x="102.7798" y="163.0903">create_bridge_component()</text><rect fill="#E2E2F0" height="46.5938" rx="2.5" ry="2.5" style="stroke:#181818;stroke-width:0.5;" width="172.2588" x="792.7485" y="147.0234"/><text fill="#000000" font-family="sans-serif" font-size="14" font-style="italic" lengthAdjust="spacing" textLength="131.4688" x="813.1436" y="167.0186">&#171;component user&#187;</text><text fill="#000000" font-family="sans-serif" font-size="14" lengthAdjust="spacing" textLength="158.2588" x="799.7485" y="183.3154">Generic service bridge</text><polygon fill="#181818" points="457.3862,221.75,447.3862,225.75,457.3862,229.75,453.3862,225.75" style="stroke:#181818;stroke-width:1;"/><line style="stroke:#181818;stroke-width:1;" x1="451.3862" x2="872.8779" y1="225.75" y2="225.75"/><text fill="#000000" font-family="sans-serif" font-size="13" font-weight="bold" lengthAdjust="spacing" textLength="9.0454" x="463.3862" y="220.6841">3</text><text fill="#000000" font-family="sans-serif" font-size="13" lengthAdjust="spacing" textLength="312.8188" x="476.4316" y="220.6841">register_service_bridge(bridge_request_service)</text><polygon fill="#181818" points="861.8779,261.4492,871.8779,265.4492,861.8779,269.4492,865.8779,265.4492" style="stroke:#181818;stroke-width:1;"/><line style="stroke:#181818;stroke-width:1;stroke-dasharray:2.0,2.0;" x1="441.3862" x2="867.8779" y1="265.4492" y2="265.4492"/><text fill="#000000" font-family="sans-serif" font-size="13" font-weight="bold" lengthAdjust="spacing" textLength="9.0454" x="448.3862" y="260.3833">4</text><text fill="#000000" font-family="sans-serif" font-size="13" lengthAdjust="spacing" textLength="4.1323" x="461.4316" y="260.3833">&#160;</text><path d="M888,238.75 L888,278.75 L1182,278.75 L1182,248.75 L1172,238.75 L888,238.75 " fill="#FEFFDD" style="stroke:#181818;stroke-width:0.5;"/><path d="M1172,238.75 L1172,248.75 L1182,248.75 L1172,238.75 " fill="#FEFFDD" style="stroke:#181818;stroke-width:0.5;"/><text fill="#000000" font-family="sans-serif" font-size="13" lengthAdjust="spacing" textLength="245.3433" x="894" y="255.8169">To get information about services the</text><text fill="#000000" font-family="sans-serif" font-size="13" lengthAdjust="spacing" textLength="273.292" x="894" y="270.9497">bridge needs to create a client connector.</text><rect fill="#EEEEEE" height="3" style="stroke:#EEEEEE;stroke-width:1;" width="1397.3301" x="0" y="304.582"/><line style="stroke:#000000;stroke-width:1;" x1="0" x2="1397.3301" y1="304.582" y2="304.582"/><line style="stroke:#000000;stroke-width:1;" x1="0" x2="1397.3301" y1="307.582" y2="307.582"/><rect fill="#EEEEEE" height="23.1328" style="stroke:#000000;stroke-width:2;" width="307.249" x="545.0405" y="294.0156"/><text fill="#000000" font-family="sans-serif" font-size="13" font-weight="bold" lengthAdjust="spacing" textLength="288.7231" x="551.0405" y="310.0825">Application requests a service instance</text><polygon fill="#181818" points="424.3862,344.2813,434.3862,348.2813,424.3862,352.2813,428.3862,348.2813" style="stroke:#181818;stroke-width:1;"/><line style="stroke:#181818;stroke-width:1;" x1="82.7344" x2="430.3862" y1="348.2813" y2="348.2813"/><text fill="#000000" font-family="sans-serif" font-size="13" font-weight="bold" lengthAdjust="spacing" textLength="9.0454" x="89.7344" y="343.2153">5</text><text fill="#000000" font-family="sans-serif" font-size="13" lengthAdjust="spacing" textLength="311.6064" x="102.7798" y="343.2153">make_client_connector(interface_A, instance_1)</text><polygon fill="#181818" points="866.8779,373.4141,876.8779,377.4141,866.8779,381.4141,870.8779,377.4141" style="stroke:#181818;stroke-width:1;"/><line style="stroke:#181818;stroke-width:1;" x1="446.3862" x2="872.8779" y1="377.4141" y2="377.4141"/><text fill="#000000" font-family="sans-serif" font-size="13" font-weight="bold" lengthAdjust="spacing" textLength="9.0454" x="453.3862" y="372.3481">6</text><text fill="#000000" font-family="sans-serif" font-size="13" lengthAdjust="spacing" textLength="312.603" x="466.4316" y="372.3481">bridge_request_service(interface_A, instance_1)</text><path d="M782.7485,392.4141 L990.7183,392.4141 L990.7183,399.5469 L980.7183,409.5469 L782.7485,409.5469 L782.7485,392.4141 " fill="#EEEEEE" style="stroke:#000000;stroke-width:1.5;"/><rect fill="transparent" height="82.5313" style="stroke:#000000;stroke-width:1.5;" width="456.3071" x="782.7485" y="392.4141"/><text fill="#000000" font-family="sans-serif" font-size="13" font-weight="bold" lengthAdjust="spacing" textLength="162.9697" x="797.7485" y="405.481">Implementation detail</text><line style="stroke:#181818;stroke-width:1;" x1="888.8779" x2="930.8779" y1="442.3125" y2="442.3125"/><line style="stroke:#181818;stroke-width:1;" x1="930.8779" x2="930.8779" y1="442.3125" y2="455.3125"/><line style="stroke:#181818;stroke-width:1;" x1="889.8779" x2="930.8779" y1="455.3125" y2="455.3125"/><polygon fill="#181818" points="899.8779,451.3125,889.8779,455.3125,899.8779,459.3125,895.8779,455.3125" style="stroke:#181818;stroke-width:1;"/><text fill="#000000" font-family="sans-serif" font-size="13" font-weight="bold" lengthAdjust="spacing" textLength="9.0454" x="895.8779" y="437.2466">7</text><text fill="#000000" font-family="sans-serif" font-size="13" lengthAdjust="spacing" textLength="4.1323" x="908.9233" y="437.2466">&#160;</text><path d="M958,414.5469 L958,469.5469 L1213,469.5469 L1213,424.5469 L1203,414.5469 L958,414.5469 " fill="#FEFFDD" style="stroke:#181818;stroke-width:0.5;"/><path d="M1203,414.5469 L1203,424.5469 L1213,424.5469 L1203,414.5469 " fill="#FEFFDD" style="stroke:#181818;stroke-width:0.5;"/><text fill="#000000" font-family="sans-serif" font-size="13" lengthAdjust="spacing" textLength="173.4434" x="964" y="431.6138">The generic service bridge</text><text fill="#000000" font-family="sans-serif" font-size="13" lengthAdjust="spacing" textLength="234.1777" x="964" y="446.7466">requests for the service instance on</text><text fill="#000000" font-family="sans-serif" font-size="13" lengthAdjust="spacing" textLength="158.3867" x="964" y="461.8794">its remote counterparts.</text><polygon fill="#181818" points="457.3862,499.0781,447.3862,503.0781,457.3862,507.0781,453.3862,503.0781" style="stroke:#181818;stroke-width:1;"/><line style="stroke:#181818;stroke-width:1;stroke-dasharray:2.0,2.0;" x1="451.3862" x2="872.8779" y1="503.0781" y2="503.0781"/><text fill="#000000" font-family="sans-serif" font-size="13" font-weight="bold" lengthAdjust="spacing" textLength="9.0454" x="463.3862" y="498.0122">8</text><text fill="#000000" font-family="sans-serif" font-size="13" lengthAdjust="spacing" textLength="4.1323" x="476.4316" y="498.0122">&#160;</text><polygon fill="#181818" points="93.7344,528.2109,83.7344,532.2109,93.7344,536.2109,89.7344,532.2109" style="stroke:#181818;stroke-width:1;"/><line style="stroke:#181818;stroke-width:1;stroke-dasharray:2.0,2.0;" x1="87.7344" x2="430.3862" y1="532.2109" y2="532.2109"/><text fill="#000000" font-family="sans-serif" font-size="13" font-weight="bold" lengthAdjust="spacing" textLength="9.0454" x="99.7344" y="527.145">9</text><text fill="#000000" font-family="sans-serif" font-size="13" lengthAdjust="spacing" textLength="4.1323" x="112.7798" y="527.145">&#160;</text><rect fill="#EEEEEE" height="3" style="stroke:#EEEEEE;stroke-width:1;" width="1397.3301" x="0" y="560.7773"/><line style="stroke:#000000;stroke-width:1;" x1="0" x2="1397.3301" y1="560.7773" y2="560.7773"/><line style="stroke:#000000;stroke-width:1;" x1="0" x2="1397.3301" y1="563.7773" y2="563.7773"/><rect fill="#EEEEEE" height="23.1328" style="stroke:#000000;stroke-width:2;" width="257.3564" x="569.9868" y="550.2109"/><text fill="#000000" font-family="sans-serif" font-size="13" font-weight="bold" lengthAdjust="spacing" textLength="238.8306" x="575.9868" y="566.2778">remote service instance connect</text><path d="M782.7485,590.3438 L990.7183,590.3438 L990.7183,597.4766 L980.7183,607.4766 L782.7485,607.4766 L782.7485,590.3438 " fill="#EEEEEE" style="stroke:#000000;stroke-width:1.5;"/><rect fill="transparent" height="67.3984" style="stroke:#000000;stroke-width:1.5;" width="604.5815" x="782.7485" y="590.3438"/><text fill="#000000" font-family="sans-serif" font-size="13" font-weight="bold" lengthAdjust="spacing" textLength="162.9697" x="797.7485" y="603.4106">Implementation detail</text><line style="stroke:#181818;stroke-width:1;" x1="883.8779" x2="925.8779" y1="632.6758" y2="632.6758"/><line style="stroke:#181818;stroke-width:1;" x1="925.8779" x2="925.8779" y1="632.6758" y2="645.6758"/><line style="stroke:#181818;stroke-width:1;" x1="884.8779" x2="925.8779" y1="645.6758" y2="645.6758"/><polygon fill="#181818" points="894.8779,641.6758,884.8779,645.6758,894.8779,649.6758,890.8779,645.6758" style="stroke:#181818;stroke-width:1;"/><text fill="#000000" font-family="sans-serif" font-size="13" font-weight="bold" lengthAdjust="spacing" textLength="18.0908" x="890.8779" y="627.6099">10</text><text fill="#000000" font-family="sans-serif" font-size="13" lengthAdjust="spacing" textLength="4.1323" x="912.9688" y="627.6099">&#160;</text><path d="M948,612.4766 L948,652.4766 L1366,652.4766 L1366,622.4766 L1356,612.4766 L948,612.4766 " fill="#FEFFDD" style="stroke:#181818;stroke-width:0.5;"/><path d="M1356,612.4766 L1356,622.4766 L1366,622.4766 L1356,612.4766 " fill="#FEFFDD" style="stroke:#181818;stroke-width:0.5;"/><text fill="#000000" font-family="sans-serif" font-size="13" lengthAdjust="spacing" textLength="397.4521" x="954" y="629.5435">The generic service bridge connects to a remote counterpart</text><text fill="#000000" font-family="sans-serif" font-size="13" lengthAdjust="spacing" textLength="216.3408" x="954" y="644.6763">which hosts the service instance.</text><polygon fill="#181818" points="457.3862,681.875,447.3862,685.875,457.3862,689.875,453.3862,685.875" style="stroke:#181818;stroke-width:1;"/><line style="stroke:#181818;stroke-width:1;" x1="451.3862" x2="872.8779" y1="685.875" y2="685.875"/><text fill="#000000" font-family="sans-serif" font-size="13" font-weight="bold" lengthAdjust="spacing" textLength="18.0908" x="463.3862" y="680.8091">11</text><text fill="#000000" font-family="sans-serif" font-size="13" lengthAdjust="spacing" textLength="317.0527" x="485.4771" y="680.8091">make_server_connector(interface_A, instance_1)</text><polygon fill="#181818" points="861.8779,711.0078,871.8779,715.0078,861.8779,719.0078,865.8779,715.0078" style="stroke:#181818;stroke-width:1;"/><line style="stroke:#181818;stroke-width:1;stroke-dasharray:2.0,2.0;" x1="441.3862" x2="867.8779" y1="715.0078" y2="715.0078"/><text fill="#000000" font-family="sans-serif" font-size="13" font-weight="bold" lengthAdjust="spacing" textLength="18.0908" x="448.3862" y="709.9419">12</text><text fill="#000000" font-family="sans-serif" font-size="13" lengthAdjust="spacing" textLength="4.1323" x="470.4771" y="709.9419">&#160;</text><path d="M393.4438,730.0078 L652.3091,730.0078 L652.3091,737.1406 L642.3091,747.1406 L393.4438,747.1406 L393.4438,730.0078 " fill="#EEEEEE" style="stroke:#000000;stroke-width:1.5;"/><rect fill="transparent" height="67.3984" style="stroke:#000000;stroke-width:1.5;" width="822.0063" x="393.4438" y="730.0078"/><text fill="#000000" font-family="sans-serif" font-size="13" font-weight="bold" lengthAdjust="spacing" textLength="213.8652" x="408.4438" y="743.0747">!!! Important: break circle !!!</text><line style="stroke:#181818;stroke-width:2;" x1="855.8779" x2="865.8779" y1="773.8398" y2="783.8398"/><line style="stroke:#181818;stroke-width:2;" x1="855.8779" x2="865.8779" y1="783.8398" y2="773.8398"/><line style="stroke:#181818;stroke-width:1;" x1="441.3862" x2="860.8779" y1="778.8398" y2="778.8398"/><text fill="#000000" font-family="sans-serif" font-size="13" font-weight="bold" lengthAdjust="spacing" textLength="18.0908" x="448.3862" y="773.7739">13</text><text fill="#000000" font-family="sans-serif" font-size="13" lengthAdjust="spacing" textLength="386.4009" x="470.4771" y="773.7739">bridge_find_callback(interface_A, instance_1, State::added)</text><path d="M888,752.1406 L888,792.1406 L1204,792.1406 L1204,762.1406 L1194,752.1406 L888,752.1406 " fill="#FFAAAA" style="stroke:#181818;stroke-width:0.5;"/><path d="M1194,752.1406 L1194,762.1406 L1204,762.1406 L1194,752.1406 " fill="#FFAAAA" style="stroke:#181818;stroke-width:0.5;"/><text fill="#000000" font-family="sans-serif" font-size="13" lengthAdjust="spacing" textLength="265.1353" x="894" y="769.2075">The bridge shall detect that find result is</text><text fill="#000000" font-family="sans-serif" font-size="13" lengthAdjust="spacing" textLength="295.5723" x="894" y="784.3403">caused by it's own created server_connector.</text><line style="stroke:#181818;stroke-width:1;" x1="441.3862" x2="483.3862" y1="825.5391" y2="825.5391"/><line style="stroke:#181818;stroke-width:1;" x1="483.3862" x2="483.3862" y1="825.5391" y2="838.5391"/><line style="stroke:#181818;stroke-width:1;" x1="442.3862" x2="483.3862" y1="838.5391" y2="838.5391"/><polygon fill="#181818" points="452.3862,834.5391,442.3862,838.5391,452.3862,842.5391,448.3862,838.5391" style="stroke:#181818;stroke-width:1;"/><text fill="#000000" font-family="sans-serif" font-size="13" font-weight="bold" lengthAdjust="spacing" textLength="18.0908" x="448.3862" y="820.4731">14</text><text fill="#000000" font-family="sans-serif" font-size="13" lengthAdjust="spacing" textLength="4.1323" x="470.4771" y="820.4731">&#160;</text><path d="M506,812.9063 L506,837.9063 L887,837.9063 L887,822.9063 L877,812.9063 L506,812.9063 " fill="#FEFFDD" style="stroke:#181818;stroke-width:0.5;"/><path d="M877,812.9063 L877,822.9063 L887,822.9063 L877,812.9063 " fill="#FEFFDD" style="stroke:#181818;stroke-width:0.5;"/><text fill="#000000" font-family="sans-serif" font-size="13" lengthAdjust="spacing" textLength="360.585" x="512" y="829.9731">SOCom connects client_connector to server_connector.</text><!--SRC=[hPJ1Rjim38RlUWecEomjcW6x1ac0O427ddRe3hiPYiJ4H6p9a-GMszEFacN7YrsW0-QJOOg_-7yatKWNI54ZJG3PD20zB0zDKv6IWQnPmdQhRDrOWtoWzUZsUz6CShpbSCfw_lR5rik_WaT7-emf-XKDEbB02Y-aC8TcvMKRh6dh8peXTZjuCXH8LlGx5GIxdH1I1NgH0MF58bODwtskvFuUDg0SShHmhGbKu-hkcf0EYI4d5pXEwZuLGrNZx2ucH4uRBjq0E3oJ3-YAR33hhBASmvyj-j179nKv3AqpGXZBdnoToo2-MpXZ038dw-hEkppQDlG8FOGI-r8CekOFDhi02QgYo5HPOr05wpu9D1gYVg8wwZ7auZndzUqXuuCq_99mCwsHrrfUc4-IBmRv5HbsVvBi_F0mf1UV9quxbIlx3SmZUeTWtuwpisq3JtLJOSr5TQOq1adLg5Nvz9XmYOnuRYx5W8JXHyvJCDO8uhZ3EWegsyPou_3x4Mb-6LeRAMxNwun1u-rCSbEosEIkJ3aru_-RxUNJ_CWPH-Ar95L2QIEGEHWtZcVs8yrCJECD-VUPwH5stXUBHVHl7HyFSNnGNa2HKnN6M3zXFoOJTYAZ2oMhwYZLvQtB7-2PeU9c8xL6VJT221yU7m_y99HPsvSi5_77zeHI1eYNC4FVLhoxNYZ9VpKDnrz0uQC7-shoYcgunN5BSTYK3iAeb-bNUstRxIx6Fhuj_WS0]--></g></svg>