<svg xmlns="http://www.w3.org/2000/svg" xmlns:xlink="http://www.w3.org/1999/xlink" contentStyleType="text/css" data-diagram-type="SEQUENCE" height="718px" preserveAspectRatio="none" style="width:842px;height:718px;background:#FFFFFF;" version="1.1" viewBox="0 0 842 718" width="842px" zoomAndPan="magnify"><defs/><g><g><title>&lt;&lt;component user&gt;&gt;</title><rect fill="#FFFFFF" height="595.5234" style="stroke:#181818;stroke-width:1;" width="10" x="72.7344" y="62.5938"/></g><g><title>&lt;&lt;component user&gt;&gt;</title><rect fill="#FFFFFF" height="29.1328" style="stroke:#181818;stroke-width:1;" width="10" x="77.7344" y="314.6563"/></g><g><title>&lt;&lt;component user&gt;&gt;</title><rect fill="#FFFFFF" height="29.1328" style="stroke:#181818;stroke-width:1;" width="10" x="77.7344" y="431.1875"/></g><g><title>SOCom</title><rect fill="#FFFFFF" height="87.3984" style="stroke:#181818;stroke-width:1;" width="10" x="318.6455" y="83.7266"/></g><g><title>SOCom</title><rect fill="#FFFFFF" height="87.3984" style="stroke:#181818;stroke-width:1;" width="10" x="318.6455" y="285.5234"/></g><g><title>SOCom</title><rect fill="#FFFFFF" height="87.3984" style="stroke:#181818;stroke-width:1;" width="10" x="318.6455" y="402.0547"/></g><g><title>SOCom</title><rect fill="#FFFFFF" height="87.3984" style="stroke:#181818;stroke-width:1;" width="10" x="318.6455" y="561.7188"/></g><g><title>&lt;&lt;component user&gt;&gt;</title><rect fill="#FFFFFF" height="595.5234" style="stroke:#181818;stroke-width:1;" width="10" x="687.8154" y="62.5938"/></g><g><title>&lt;&lt;component user&gt;&gt;</title><rect fill="#FFFFFF" height="29.1328" style="stroke:#181818;stroke-width:1;" width="10" x="692.8154" y="112.8594"/></g><g><title>&lt;&lt;component user&gt;&gt;</title><rect fill="#FFFFFF" height="29.1328" style="stroke:#181818;stroke-width:1;" width="10" x="692.8154" y="590.8516"/></g><g><title>&lt;&lt;component user&gt;&gt;</title><rect fill="transparent" height="614.5234" width="8" x="73.7344" y="52.5938"/><line style="stroke:#181818;stroke-width:0.5;stroke-dasharray:5.0,5.0;" x1="77" x2="77" y1="52.5938" y2="667.1172"/></g><g><title>SOCom</title><rect fill="transparent" height="614.5234" width="8" x="319.6455" y="52.5938"/><line style="stroke:#181818;stroke-width:0.5;stroke-dasharray:5.0,5.0;" x1="322.7031" x2="322.7031" y1="52.5938" y2="667.1172"/></g><g><title>&lt;&lt;component user&gt;&gt;</title><rect fill="transparent" height="614.5234" width="8" x="688.8154" y="52.5938"/><line style="stroke:#181818;stroke-width:0.5;stroke-dasharray:5.0,5.0;" x1="692.0811" x2="692.0811" y1="52.5938" y2="667.1172"/></g><rect fill="#E2E2F0" height="46.5938" rx="2.5" ry="2.5" style="stroke:#181818;stroke-width:0.5;" width="145.4688" x="5" y="5"/><text fill="#000000" font-family="sans-serif" font-size="14" font-style="italic" lengthAdjust="spacing" textLength="131.4688" x="12" y="24.9951">&#171;component user&#187;</text><text fill="#000000" font-family="sans-serif" font-size="14" lengthAdjust="spacing" textLength="56.4375" x="49.5156" y="41.292">Client_1</text><rect fill="#E2E2F0" height="46.5938" rx="2.5" ry="2.5" style="stroke:#181818;stroke-width:0.5;" width="145.4688" x="5" y="666.1172"/><text fill="#000000" font-family="sans-serif" font-size="14" font-style="italic" lengthAdjust="spacing" textLength="131.4688" x="12" y="686.1123">&#171;component user&#187;</text><text fill="#000000" font-family="sans-serif" font-size="14" lengthAdjust="spacing" textLength="56.4375" x="49.5156" y="702.4092">Client_1</text><rect fill="#E2E2F0" height="30.2969" rx="2.5" ry="2.5" style="stroke:#181818;stroke-width:0.5;" width="65.8848" x="290.7031" y="21.2969"/><text fill="#000000" font-family="sans-serif" font-size="14" lengthAdjust="spacing" textLength="51.8848" x="297.7031" y="41.292">SOCom</text><rect fill="#E2E2F0" height="30.2969" rx="2.5" ry="2.5" style="stroke:#181818;stroke-width:0.5;" width="65.8848" x="290.7031" y="666.1172"/><text fill="#000000" font-family="sans-serif" font-size="14" lengthAdjust="spacing" textLength="51.8848" x="297.7031" y="686.1123">SOCom</text><rect fill="#E2E2F0" height="46.5938" rx="2.5" ry="2.5" style="stroke:#181818;stroke-width:0.5;" width="145.4688" x="620.0811" y="5"/><text fill="#000000" font-family="sans-serif" font-size="14" font-style="italic" lengthAdjust="spacing" textLength="131.4688" x="627.0811" y="24.9951">&#171;component user&#187;</text><text fill="#000000" font-family="sans-serif" font-size="14" lengthAdjust="spacing" textLength="45.9102" x="669.8604" y="41.292">Server</text><rect fill="#E2E2F0" height="46.5938" rx="2.5" ry="2.5" style="stroke:#181818;stroke-width:0.5;" width="145.4688" x="620.0811" y="666.1172"/><text fill="#000000" font-family="sans-serif" font-size="14" font-style="italic" lengthAdjust="spacing" textLength="131.4688" x="627.0811" y="686.1123">&#171;component user&#187;</text><text fill="#000000" font-family="sans-serif" font-size="14" lengthAdjust="spacing" textLength="45.9102" x="669.8604" y="702.4092">Server</text><g><title>&lt;&lt;component user&gt;&gt;</title><rect fill="#FFFFFF" height="595.5234" style="stroke:#181818;stroke-width:1;" width="10" x="72.7344" y="62.5938"/></g><g><title>&lt;&lt;component user&gt;&gt;</title><rect fill="#FFFFFF" height="29.1328" style="stroke:#181818;stroke-width:1;" width="10" x="77.7344" y="314.6563"/></g><g><title>&lt;&lt;component user&gt;&gt;</title><rect fill="#FFFFFF" height="29.1328" style="stroke:#181818;stroke-width:1;" width="10" x="77.7344" y="431.1875"/></g><g><title>SOCom</title><rect fill="#FFFFFF" height="87.3984" style="stroke:#181818;stroke-width:1;" width="10" x="318.6455" y="83.7266"/></g><g><title>SOCom</title><rect fill="#FFFFFF" height="87.3984" style="stroke:#181818;stroke-width:1;" width="10" x="318.6455" y="285.5234"/></g><g><title>SOCom</title><rect fill="#FFFFFF" height="87.3984" style="stroke:#181818;stroke-width:1;" width="10" x="318.6455" y="402.0547"/></g><g><title>SOCom</title><rect fill="#FFFFFF" height="87.3984" style="stroke:#181818;stroke-width:1;" width="10" x="318.6455" y="561.7188"/></g><g><title>&lt;&lt;component user&gt;&gt;</title><rect fill="#FFFFFF" height="595.5234" style="stroke:#181818;stroke-width:1;" width="10" x="687.8154" y="62.5938"/></g><g><title>&lt;&lt;component user&gt;&gt;</title><rect fill="#FFFFFF" height="29.1328" style="stroke:#181818;stroke-width:1;" width="10" x="692.8154" y="112.8594"/></g><g><title>&lt;&lt;component user&gt;&gt;</title><rect fill="#FFFFFF" height="29.1328" style="stroke:#181818;stroke-width:1;" width="10" x="692.8154" y="590.8516"/></g><polygon fill="#181818" points="306.6455,79.7266,316.6455,83.7266,306.6455,87.7266,310.6455,83.7266" style="stroke:#181818;stroke-width:1;"/><line style="stroke:#181818;stroke-width:1;" x1="82.7344" x2="312.6455" y1="83.7266" y2="83.7266"/><text fill="#000000" font-family="sans-serif" font-size="13" font-weight="bold" lengthAdjust="spacing" textLength="9.0454" x="89.7344" y="78.6606">1</text><text fill="#000000" font-family="sans-serif" font-size="13" lengthAdjust="spacing" textLength="177.8232" x="102.7798" y="78.6606">subscribe_event(x, update)</text><polygon fill="#181818" points="680.8154,108.8594,690.8154,112.8594,680.8154,116.8594,684.8154,112.8594" style="stroke:#181818;stroke-width:1;"/><line style="stroke:#181818;stroke-width:1;" x1="328.6455" x2="686.8154" y1="112.8594" y2="112.8594"/><text fill="#000000" font-family="sans-serif" font-size="13" font-weight="bold" lengthAdjust="spacing" textLength="9.0454" x="335.6455" y="107.7935">2</text><text fill="#000000" font-family="sans-serif" font-size="13" lengthAdjust="spacing" textLength="296.6006" x="348.6909" y="107.7935">on_event_subscription_change(x, subscribed)</text><polygon fill="#181818" points="339.6455,137.9922,329.6455,141.9922,339.6455,145.9922,335.6455,141.9922" style="stroke:#181818;stroke-width:1;"/><line style="stroke:#181818;stroke-width:1;stroke-dasharray:2.0,2.0;" x1="333.6455" x2="686.8154" y1="141.9922" y2="141.9922"/><text fill="#000000" font-family="sans-serif" font-size="13" font-weight="bold" lengthAdjust="spacing" textLength="9.0454" x="345.6455" y="136.9263">3</text><text fill="#000000" font-family="sans-serif" font-size="13" lengthAdjust="spacing" textLength="4.1323" x="358.6909" y="136.9263">&#160;</text><polygon fill="#181818" points="93.7344,167.125,83.7344,171.125,93.7344,175.125,89.7344,171.125" style="stroke:#181818;stroke-width:1;"/><line style="stroke:#181818;stroke-width:1;stroke-dasharray:2.0,2.0;" x1="87.7344" x2="322.6455" y1="171.125" y2="171.125"/><text fill="#000000" font-family="sans-serif" font-size="13" font-weight="bold" lengthAdjust="spacing" textLength="9.0454" x="99.7344" y="166.0591">4</text><text fill="#000000" font-family="sans-serif" font-size="13" lengthAdjust="spacing" textLength="4.1323" x="112.7798" y="166.0591">&#160;</text><rect fill="#EEEEEE" height="3" style="stroke:#EEEEEE;stroke-width:1;" width="835.0757" x="0" y="199.6914"/><line style="stroke:#000000;stroke-width:1;" x1="0" x2="835.0757" y1="199.6914" y2="199.6914"/><line style="stroke:#000000;stroke-width:1;" x1="0" x2="835.0757" y1="202.6914" y2="202.6914"/><rect fill="#EEEEEE" height="23.1328" style="stroke:#000000;stroke-width:2;" width="33.3413" x="400.8672" y="189.125"/><text fill="#000000" font-family="sans-serif" font-size="13" font-weight="bold" lengthAdjust="spacing" textLength="14.8154" x="406.8672" y="205.1919">...</text><line style="stroke:#181818;stroke-width:1;" x1="697.8154" x2="739.8154" y1="243.3906" y2="243.3906"/><line style="stroke:#181818;stroke-width:1;" x1="739.8154" x2="739.8154" y1="243.3906" y2="256.3906"/><line style="stroke:#181818;stroke-width:1;" x1="698.8154" x2="739.8154" y1="256.3906" y2="256.3906"/><polygon fill="#181818" points="708.8154,252.3906,698.8154,256.3906,708.8154,260.3906,704.8154,256.3906" style="stroke:#181818;stroke-width:1;"/><text fill="#000000" font-family="sans-serif" font-size="13" font-weight="bold" lengthAdjust="spacing" textLength="9.0454" x="704.8154" y="238.3247">5</text><text fill="#000000" font-family="sans-serif" font-size="13" lengthAdjust="spacing" textLength="95.2148" x="717.8608" y="238.3247">updated event</text><polygon fill="#181818" points="339.6455,281.5234,329.6455,285.5234,339.6455,289.5234,335.6455,285.5234" style="stroke:#181818;stroke-width:1;"/><line style="stroke:#181818;stroke-width:1;" x1="333.6455" x2="686.8154" y1="285.5234" y2="285.5234"/><text fill="#000000" font-family="sans-serif" font-size="13" font-weight="bold" lengthAdjust="spacing" textLength="9.0454" x="345.6455" y="280.4575">6</text><text fill="#000000" font-family="sans-serif" font-size="13" lengthAdjust="spacing" textLength="170.9106" x="358.6909" y="280.4575">allocate_event_payload(x)</text><polygon fill="#181818" points="98.7344,310.6563,88.7344,314.6563,98.7344,318.6563,94.7344,314.6563" style="stroke:#181818;stroke-width:1;"/><line style="stroke:#181818;stroke-width:1;" x1="92.7344" x2="317.6455" y1="314.6563" y2="314.6563"/><text fill="#000000" font-family="sans-serif" font-size="13" font-weight="bold" lengthAdjust="spacing" textLength="9.0454" x="104.7344" y="309.5903">7</text><text fill="#000000" font-family="sans-serif" font-size="13" lengthAdjust="spacing" textLength="193.6035" x="117.7798" y="309.5903">on_event_payload_allocate(x)</text><polygon fill="#181818" points="306.6455,339.7891,316.6455,343.7891,306.6455,347.7891,310.6455,343.7891" style="stroke:#181818;stroke-width:1;"/><line style="stroke:#181818;stroke-width:1;stroke-dasharray:2.0,2.0;" x1="82.7344" x2="312.6455" y1="343.7891" y2="343.7891"/><text fill="#000000" font-family="sans-serif" font-size="13" font-weight="bold" lengthAdjust="spacing" textLength="9.0454" x="89.7344" y="338.7231">8</text><text fill="#000000" font-family="sans-serif" font-size="13" lengthAdjust="spacing" textLength="110.7095" x="102.7798" y="338.7231">writable_payload</text><polygon fill="#181818" points="675.8154,368.9219,685.8154,372.9219,675.8154,376.9219,679.8154,372.9219" style="stroke:#181818;stroke-width:1;"/><line style="stroke:#181818;stroke-width:1;stroke-dasharray:2.0,2.0;" x1="323.6455" x2="681.8154" y1="372.9219" y2="372.9219"/><text fill="#000000" font-family="sans-serif" font-size="13" font-weight="bold" lengthAdjust="spacing" textLength="9.0454" x="330.6455" y="367.856">9</text><text fill="#000000" font-family="sans-serif" font-size="13" lengthAdjust="spacing" textLength="110.7095" x="343.6909" y="367.856">writable_payload</text><polygon fill="#181818" points="339.6455,398.0547,329.6455,402.0547,339.6455,406.0547,335.6455,402.0547" style="stroke:#181818;stroke-width:1;"/><line style="stroke:#181818;stroke-width:1;" x1="333.6455" x2="686.8154" y1="402.0547" y2="402.0547"/><text fill="#000000" font-family="sans-serif" font-size="13" font-weight="bold" lengthAdjust="spacing" textLength="18.0908" x="345.6455" y="396.9888">10</text><text fill="#000000" font-family="sans-serif" font-size="13" lengthAdjust="spacing" textLength="167.1274" x="367.7363" y="396.9888">update_event(x, payload)</text><polygon fill="#181818" points="98.7344,427.1875,88.7344,431.1875,98.7344,435.1875,94.7344,431.1875" style="stroke:#181818;stroke-width:1;"/><line style="stroke:#181818;stroke-width:1;" x1="92.7344" x2="317.6455" y1="431.1875" y2="431.1875"/><text fill="#000000" font-family="sans-serif" font-size="13" font-weight="bold" lengthAdjust="spacing" textLength="18.0908" x="104.7344" y="426.1216">11</text><text fill="#000000" font-family="sans-serif" font-size="13" lengthAdjust="spacing" textLength="189.8203" x="126.8252" y="426.1216">on_event_update(x, payload)</text><polygon fill="#181818" points="306.6455,456.3203,316.6455,460.3203,306.6455,464.3203,310.6455,460.3203" style="stroke:#181818;stroke-width:1;"/><line style="stroke:#181818;stroke-width:1;stroke-dasharray:2.0,2.0;" x1="82.7344" x2="312.6455" y1="460.3203" y2="460.3203"/><text fill="#000000" font-family="sans-serif" font-size="13" font-weight="bold" lengthAdjust="spacing" textLength="18.0908" x="89.7344" y="455.2544">12</text><text fill="#000000" font-family="sans-serif" font-size="13" lengthAdjust="spacing" textLength="4.1323" x="111.8252" y="455.2544">&#160;</text><polygon fill="#181818" points="675.8154,485.4531,685.8154,489.4531,675.8154,493.4531,679.8154,489.4531" style="stroke:#181818;stroke-width:1;"/><line style="stroke:#181818;stroke-width:1;stroke-dasharray:2.0,2.0;" x1="323.6455" x2="681.8154" y1="489.4531" y2="489.4531"/><text fill="#000000" font-family="sans-serif" font-size="13" font-weight="bold" lengthAdjust="spacing" textLength="18.0908" x="330.6455" y="484.3872">13</text><text fill="#000000" font-family="sans-serif" font-size="13" lengthAdjust="spacing" textLength="4.1323" x="352.7363" y="484.3872">&#160;</text><rect fill="#EEEEEE" height="3" style="stroke:#EEEEEE;stroke-width:1;" width="835.0757" x="0" y="518.0195"/><line style="stroke:#000000;stroke-width:1;" x1="0" x2="835.0757" y1="518.0195" y2="518.0195"/><line style="stroke:#000000;stroke-width:1;" x1="0" x2="835.0757" y1="521.0195" y2="521.0195"/><rect fill="#EEEEEE" height="23.1328" style="stroke:#000000;stroke-width:2;" width="33.3413" x="400.8672" y="507.4531"/><text fill="#000000" font-family="sans-serif" font-size="13" font-weight="bold" lengthAdjust="spacing" textLength="14.8154" x="406.8672" y="523.52">...</text><polygon fill="#181818" points="306.6455,557.7188,316.6455,561.7188,306.6455,565.7188,310.6455,561.7188" style="stroke:#181818;stroke-width:1;"/><line style="stroke:#181818;stroke-width:1;" x1="82.7344" x2="312.6455" y1="561.7188" y2="561.7188"/><text fill="#000000" font-family="sans-serif" font-size="13" font-weight="bold" lengthAdjust="spacing" textLength="18.0908" x="89.7344" y="556.6528">14</text><text fill="#000000" font-family="sans-serif" font-size="13" lengthAdjust="spacing" textLength="140.2324" x="111.8252" y="556.6528">unsubscribe_event(x)</text><polygon fill="#181818" points="680.8154,586.8516,690.8154,590.8516,680.8154,594.8516,684.8154,590.8516" style="stroke:#181818;stroke-width:1;"/><line style="stroke:#181818;stroke-width:1;" x1="328.6455" x2="686.8154" y1="590.8516" y2="590.8516"/><text fill="#000000" font-family="sans-serif" font-size="13" font-weight="bold" lengthAdjust="spacing" textLength="18.0908" x="335.6455" y="585.7856">15</text><text fill="#000000" font-family="sans-serif" font-size="13" lengthAdjust="spacing" textLength="313.0791" x="357.7363" y="585.7856">on_event_subscription_change(x, unsubscribed)</text><polygon fill="#181818" points="339.6455,615.9844,329.6455,619.9844,339.6455,623.9844,335.6455,619.9844" style="stroke:#181818;stroke-width:1;"/><line style="stroke:#181818;stroke-width:1;stroke-dasharray:2.0,2.0;" x1="333.6455" x2="686.8154" y1="619.9844" y2="619.9844"/><text fill="#000000" font-family="sans-serif" font-size="13" font-weight="bold" lengthAdjust="spacing" textLength="18.0908" x="345.6455" y="614.9185">16</text><text fill="#000000" font-family="sans-serif" font-size="13" lengthAdjust="spacing" textLength="4.1323" x="367.7363" y="614.9185">&#160;</text><polygon fill="#181818" points="93.7344,645.1172,83.7344,649.1172,93.7344,653.1172,89.7344,649.1172" style="stroke:#181818;stroke-width:1;"/><line style="stroke:#181818;stroke-width:1;stroke-dasharray:2.0,2.0;" x1="87.7344" x2="322.6455" y1="649.1172" y2="649.1172"/><text fill="#000000" font-family="sans-serif" font-size="13" font-weight="bold" lengthAdjust="spacing" textLength="18.0908" x="99.7344" y="644.0513">17</text><text fill="#000000" font-family="sans-serif" font-size="13" lengthAdjust="spacing" textLength="4.1323" x="121.8252" y="644.0513">&#160;</text><!--SRC=[hP91ReCm44NtFiKi4wb5wZOAR7A0Bde0D9XHOidObh5fUliwiJ5GtAwwGepd__zcD0Qj4rmOL0ukKf1oxHkSprmFHglm1tuaspJChFe-tYzws5R8JcHBElHEApzqP1bo9oPqbBhPKfY36Si8hqsCWHEClXkv5HsrD8N7m_q5lEc3xhYoV2AnA7be8z09j8ggDhaO9qA9tr1TwU6KpVlZ7j2IyrOjtxg6gggWhaDI35X7HQWUddcRZZG8IgbvQ4b41h-anlvmtysHnyZhM0sIPEtijj7dJKPa-BJ2OITfLlrQB-36UPQbfzO_jbx2ZIvb_G_Qug9B5-7LxYR-unPMjeLhs39-0m00]--></g></svg>