<svg xmlns="http://www.w3.org/2000/svg" xmlns:xlink="http://www.w3.org/1999/xlink" contentStyleType="text/css" data-diagram-type="SEQUENCE" height="1131px" preserveAspectRatio="none" style="width:660px;height:1131px;background:#FFFFFF;" version="1.1" viewBox="0 0 660 1131" width="660px" zoomAndPan="magnify"><defs/><g><g><title>Client_callbacks</title><rect fill="#FFFFFF" height="29.1328" style="stroke:#181818;stroke-width:1;" width="10" x="63.0752" y="139.6953"/></g><g><title>Client_callbacks</title><rect fill="#FFFFFF" height="29.1328" style="stroke:#181818;stroke-width:1;" width="10" x="63.0752" y="303.3594"/></g><g><title>Client_callbacks</title><rect fill="#FFFFFF" height="29.1328" style="stroke:#181818;stroke-width:1;" width="10" x="63.0752" y="467.0234"/></g><g><title>Client_callbacks</title><rect fill="#FFFFFF" height="29.1328" style="stroke:#181818;stroke-width:1;" width="10" x="63.0752" y="630.6875"/></g><g><title>Client_callbacks</title><rect fill="#FFFFFF" height="29.1328" style="stroke:#181818;stroke-width:1;" width="10" x="63.0752" y="823.4844"/></g><g><title>Client_callbacks</title><rect fill="#FFFFFF" height="29.1328" style="stroke:#181818;stroke-width:1;" width="10" x="63.0752" y="1016.2813"/></g><g><title>Client_connector</title><rect fill="#FFFFFF" height="58.2656" style="stroke:#181818;stroke-width:1;" width="10" x="352.6528" y="110.5625"/></g><g><title>Client_connector</title><rect fill="#FFFFFF" height="58.2656" style="stroke:#181818;stroke-width:1;" width="10" x="352.6528" y="274.2266"/></g><g><title>Client_connector</title><rect fill="#FFFFFF" height="58.2656" style="stroke:#181818;stroke-width:1;" width="10" x="352.6528" y="437.8906"/></g><g><title>Client_connector</title><rect fill="#FFFFFF" height="58.2656" style="stroke:#181818;stroke-width:1;" width="10" x="352.6528" y="601.5547"/></g><g><title>Client_connector</title><rect fill="#FFFFFF" height="87.3984" style="stroke:#181818;stroke-width:1;" width="10" x="352.6528" y="765.2188"/></g><g><title>Client_connector</title><rect fill="#FFFFFF" height="87.3984" style="stroke:#181818;stroke-width:1;" width="10" x="352.6528" y="958.0156"/></g><g><title>Server_connector</title><rect fill="#FFFFFF" height="87.3984" style="stroke:#181818;stroke-width:1;" width="10" x="575.417" y="765.2188"/></g><g><title>Server_connector</title><rect fill="#FFFFFF" height="87.3984" style="stroke:#181818;stroke-width:1;" width="10" x="575.417" y="958.0156"/></g><g><title>Client_callbacks</title><rect fill="transparent" height="1060.25" width="8" x="64.0752" y="36.2969"/><line style="stroke:#181818;stroke-width:0.5;stroke-dasharray:5.0,5.0;" x1="68" x2="68" y1="36.2969" y2="1096.5469"/></g><g><title>Client_connector</title><rect fill="transparent" height="1060.25" width="8" x="353.6528" y="36.2969"/><line style="stroke:#181818;stroke-width:0.5;stroke-dasharray:5.0,5.0;" x1="356.8228" x2="356.8228" y1="36.2969" y2="1096.5469"/></g><g><title>Server_connector</title><rect fill="transparent" height="1060.25" width="8" x="576.417" y="36.2969"/><line style="stroke:#181818;stroke-width:0.5;stroke-dasharray:5.0,5.0;" x1="579.897" x2="579.897" y1="36.2969" y2="1096.5469"/></g><rect fill="#E2E2F0" height="30.2969" rx="2.5" ry="2.5" style="stroke:#181818;stroke-width:0.5;" width="126.1504" x="5" y="5"/><text fill="#000000" font-family="sans-serif" font-size="14" lengthAdjust="spacing" textLength="112.1504" x="12" y="24.9951">Client_callbacks</text><rect fill="#E2E2F0" height="30.2969" rx="2.5" ry="2.5" style="stroke:#181818;stroke-width:0.5;" width="126.1504" x="5" y="1095.5469"/><text fill="#000000" font-family="sans-serif" font-size="14" lengthAdjust="spacing" textLength="112.1504" x="12" y="1115.542">Client_callbacks</text><rect fill="#E2E2F0" height="30.2969" rx="2.5" ry="2.5" style="stroke:#181818;stroke-width:0.5;" width="131.6602" x="291.8228" y="5"/><text fill="#000000" font-family="sans-serif" font-size="14" lengthAdjust="spacing" textLength="117.6602" x="298.8228" y="24.9951">Client_connector</text><rect fill="#E2E2F0" height="30.2969" rx="2.5" ry="2.5" style="stroke:#181818;stroke-width:0.5;" width="131.6602" x="291.8228" y="1095.5469"/><text fill="#000000" font-family="sans-serif" font-size="14" lengthAdjust="spacing" textLength="117.6602" x="298.8228" y="1115.542">Client_connector</text><rect fill="#E2E2F0" height="30.2969" rx="2.5" ry="2.5" style="stroke:#181818;stroke-width:0.5;" width="137.04" x="511.897" y="5"/><text fill="#000000" font-family="sans-serif" font-size="14" lengthAdjust="spacing" textLength="123.04" x="518.897" y="24.9951">Server_connector</text><rect fill="#E2E2F0" height="30.2969" rx="2.5" ry="2.5" style="stroke:#181818;stroke-width:0.5;" width="137.04" x="511.897" y="1095.5469"/><text fill="#000000" font-family="sans-serif" font-size="14" lengthAdjust="spacing" textLength="123.04" x="518.897" y="1115.542">Server_connector</text><g><title>Client_callbacks</title><rect fill="#FFFFFF" height="29.1328" style="stroke:#181818;stroke-width:1;" width="10" x="63.0752" y="139.6953"/></g><g><title>Client_callbacks</title><rect fill="#FFFFFF" height="29.1328" style="stroke:#181818;stroke-width:1;" width="10" x="63.0752" y="303.3594"/></g><g><title>Client_callbacks</title><rect fill="#FFFFFF" height="29.1328" style="stroke:#181818;stroke-width:1;" width="10" x="63.0752" y="467.0234"/></g><g><title>Client_callbacks</title><rect fill="#FFFFFF" height="29.1328" style="stroke:#181818;stroke-width:1;" width="10" x="63.0752" y="630.6875"/></g><g><title>Client_callbacks</title><rect fill="#FFFFFF" height="29.1328" style="stroke:#181818;stroke-width:1;" width="10" x="63.0752" y="823.4844"/></g><g><title>Client_callbacks</title><rect fill="#FFFFFF" height="29.1328" style="stroke:#181818;stroke-width:1;" width="10" x="63.0752" y="1016.2813"/></g><g><title>Client_connector</title><rect fill="#FFFFFF" height="58.2656" style="stroke:#181818;stroke-width:1;" width="10" x="352.6528" y="110.5625"/></g><g><title>Client_connector</title><rect fill="#FFFFFF" height="58.2656" style="stroke:#181818;stroke-width:1;" width="10" x="352.6528" y="274.2266"/></g><g><title>Client_connector</title><rect fill="#FFFFFF" height="58.2656" style="stroke:#181818;stroke-width:1;" width="10" x="352.6528" y="437.8906"/></g><g><title>Client_connector</title><rect fill="#FFFFFF" height="58.2656" style="stroke:#181818;stroke-width:1;" width="10" x="352.6528" y="601.5547"/></g><g><title>Client_connector</title><rect fill="#FFFFFF" height="87.3984" style="stroke:#181818;stroke-width:1;" width="10" x="352.6528" y="765.2188"/></g><g><title>Client_connector</title><rect fill="#FFFFFF" height="87.3984" style="stroke:#181818;stroke-width:1;" width="10" x="352.6528" y="958.0156"/></g><g><title>Server_connector</title><rect fill="#FFFFFF" height="87.3984" style="stroke:#181818;stroke-width:1;" width="10" x="575.417" y="765.2188"/></g><g><title>Server_connector</title><rect fill="#FFFFFF" height="87.3984" style="stroke:#181818;stroke-width:1;" width="10" x="575.417" y="958.0156"/></g><rect fill="#EEEEEE" height="3" style="stroke:#EEEEEE;stroke-width:1;" width="653.937" x="0" y="66.8633"/><line style="stroke:#000000;stroke-width:1;" x1="0" x2="653.937" y1="66.8633" y2="66.8633"/><line style="stroke:#000000;stroke-width:1;" x1="0" x2="653.937" y1="69.8633" y2="69.8633"/><rect fill="#EEEEEE" height="23.1328" style="stroke:#000000;stroke-width:2;" width="293.7539" x="180.0916" y="56.2969"/><text fill="#000000" font-family="sans-serif" font-size="13" font-weight="bold" lengthAdjust="spacing" textLength="275.228" x="186.0916" y="72.3638">Deadlock by on_service_state_change</text><polygon fill="#181818" points="373.6528,106.5625,363.6528,110.5625,373.6528,114.5625,369.6528,110.5625" style="stroke:#181818;stroke-width:1;"/><line style="stroke:#181818;stroke-width:1;stroke-dasharray:2.0,2.0;" x1="367.6528" x2="579.417" y1="110.5625" y2="110.5625"/><text fill="#000000" font-family="sans-serif" font-size="13" lengthAdjust="spacing" textLength="105.6694" x="379.6528" y="105.4966">state_changed()</text><polygon fill="#181818" points="84.0752,135.6953,74.0752,139.6953,84.0752,143.6953,80.0752,139.6953" style="stroke:#181818;stroke-width:1;"/><line style="stroke:#181818;stroke-width:1;stroke-dasharray:2.0,2.0;" x1="78.0752" x2="351.6528" y1="139.6953" y2="139.6953"/><text fill="#000000" font-family="sans-serif" font-size="13" lengthAdjust="spacing" textLength="173.1768" x="90.0752" y="134.6294">on_service_state_change()</text><polygon fill="#181818" points="345.6528,164.8281,355.6528,168.8281,345.6528,172.8281,349.6528,168.8281" style="stroke:#181818;stroke-width:1;"/><line style="stroke:#181818;stroke-width:1;stroke-dasharray:2.0,2.0;" x1="68.0752" x2="351.6528" y1="168.8281" y2="168.8281"/><text fill="#000000" font-family="sans-serif" font-size="13" lengthAdjust="spacing" textLength="130.292" x="75.0752" y="163.7622">~Client_connector()</text><line style="stroke:#A80036;stroke-width:2;" x1="348.6528" x2="366.6528" y1="159.8281" y2="177.8281"/><line style="stroke:#A80036;stroke-width:2;" x1="348.6528" x2="366.6528" y1="177.8281" y2="159.8281"/><rect fill="#FEFFDD" height="23" style="stroke:#181818;stroke-width:0.5;" width="470" x="122" y="181.8281"/><text fill="#000000" font-family="sans-serif" font-size="13" lengthAdjust="spacing" textLength="462.0015" x="126" y="197.895">Deadlock happens here because destructor waits for callback to finish.</text><rect fill="#EEEEEE" height="3" style="stroke:#EEEEEE;stroke-width:1;" width="653.937" x="0" y="230.5273"/><line style="stroke:#000000;stroke-width:1;" x1="0" x2="653.937" y1="230.5273" y2="230.5273"/><line style="stroke:#000000;stroke-width:1;" x1="0" x2="653.937" y1="233.5273" y2="233.5273"/><rect fill="#EEEEEE" height="23.1328" style="stroke:#000000;stroke-width:2;" width="237.2153" x="208.3608" y="219.9609"/><text fill="#000000" font-family="sans-serif" font-size="13" font-weight="bold" lengthAdjust="spacing" textLength="218.6895" x="214.3608" y="236.0278">Deadlock by on_event_update</text><polygon fill="#181818" points="373.6528,270.2266,363.6528,274.2266,373.6528,278.2266,369.6528,274.2266" style="stroke:#181818;stroke-width:1;"/><line style="stroke:#181818;stroke-width:1;stroke-dasharray:2.0,2.0;" x1="367.6528" x2="579.417" y1="274.2266" y2="274.2266"/><text fill="#000000" font-family="sans-serif" font-size="13" lengthAdjust="spacing" textLength="99.4741" x="379.6528" y="269.1606">update_event()</text><polygon fill="#181818" points="84.0752,299.3594,74.0752,303.3594,84.0752,307.3594,80.0752,303.3594" style="stroke:#181818;stroke-width:1;"/><line style="stroke:#181818;stroke-width:1;stroke-dasharray:2.0,2.0;" x1="78.0752" x2="351.6528" y1="303.3594" y2="303.3594"/><text fill="#000000" font-family="sans-serif" font-size="13" lengthAdjust="spacing" textLength="122.167" x="90.0752" y="298.2935">on_event_update()</text><polygon fill="#181818" points="345.6528,328.4922,355.6528,332.4922,345.6528,336.4922,349.6528,332.4922" style="stroke:#181818;stroke-width:1;"/><line style="stroke:#181818;stroke-width:1;stroke-dasharray:2.0,2.0;" x1="68.0752" x2="351.6528" y1="332.4922" y2="332.4922"/><text fill="#000000" font-family="sans-serif" font-size="13" lengthAdjust="spacing" textLength="130.292" x="75.0752" y="327.4263">~Client_connector()</text><line style="stroke:#A80036;stroke-width:2;" x1="348.6528" x2="366.6528" y1="323.4922" y2="341.4922"/><line style="stroke:#A80036;stroke-width:2;" x1="348.6528" x2="366.6528" y1="341.4922" y2="323.4922"/><rect fill="#FEFFDD" height="23" style="stroke:#181818;stroke-width:0.5;" width="470" x="122" y="345.4922"/><text fill="#000000" font-family="sans-serif" font-size="13" lengthAdjust="spacing" textLength="462.0015" x="126" y="361.5591">Deadlock happens here because destructor waits for callback to finish.</text><rect fill="#EEEEEE" height="3" style="stroke:#EEEEEE;stroke-width:1;" width="653.937" x="0" y="394.1914"/><line style="stroke:#000000;stroke-width:1;" x1="0" x2="653.937" y1="394.1914" y2="394.1914"/><line style="stroke:#000000;stroke-width:1;" x1="0" x2="653.937" y1="397.1914" y2="397.1914"/><rect fill="#EEEEEE" height="23.1328" style="stroke:#000000;stroke-width:2;" width="318.3955" x="167.7708" y="383.625"/><text fill="#000000" font-family="sans-serif" font-size="13" font-weight="bold" lengthAdjust="spacing" textLength="299.8696" x="173.7708" y="399.6919">Deadlock by on_event_requested_update</text><polygon fill="#181818" points="373.6528,433.8906,363.6528,437.8906,373.6528,441.8906,369.6528,437.8906" style="stroke:#181818;stroke-width:1;"/><line style="stroke:#181818;stroke-width:1;stroke-dasharray:2.0,2.0;" x1="367.6528" x2="579.417" y1="437.8906" y2="437.8906"/><text fill="#000000" font-family="sans-serif" font-size="13" lengthAdjust="spacing" textLength="171.9263" x="379.6528" y="432.8247">update_requested_event()</text><polygon fill="#181818" points="84.0752,463.0234,74.0752,467.0234,84.0752,471.0234,80.0752,467.0234" style="stroke:#181818;stroke-width:1;"/><line style="stroke:#181818;stroke-width:1;stroke-dasharray:2.0,2.0;" x1="78.0752" x2="351.6528" y1="467.0234" y2="467.0234"/><text fill="#000000" font-family="sans-serif" font-size="13" lengthAdjust="spacing" textLength="194.6191" x="90.0752" y="461.9575">on_event_requested_update()</text><polygon fill="#181818" points="345.6528,492.1563,355.6528,496.1563,345.6528,500.1563,349.6528,496.1563" style="stroke:#181818;stroke-width:1;"/><line style="stroke:#181818;stroke-width:1;stroke-dasharray:2.0,2.0;" x1="68.0752" x2="351.6528" y1="496.1563" y2="496.1563"/><text fill="#000000" font-family="sans-serif" font-size="13" lengthAdjust="spacing" textLength="130.292" x="75.0752" y="491.0903">~Client_connector()</text><line style="stroke:#A80036;stroke-width:2;" x1="348.6528" x2="366.6528" y1="487.1563" y2="505.1563"/><line style="stroke:#A80036;stroke-width:2;" x1="348.6528" x2="366.6528" y1="505.1563" y2="487.1563"/><rect fill="#FEFFDD" height="23" style="stroke:#181818;stroke-width:0.5;" width="470" x="122" y="509.1563"/><text fill="#000000" font-family="sans-serif" font-size="13" lengthAdjust="spacing" textLength="462.0015" x="126" y="525.2231">Deadlock happens here because destructor waits for callback to finish.</text><rect fill="#EEEEEE" height="3" style="stroke:#EEEEEE;stroke-width:1;" width="653.937" x="0" y="557.8555"/><line style="stroke:#000000;stroke-width:1;" x1="0" x2="653.937" y1="557.8555" y2="557.8555"/><line style="stroke:#000000;stroke-width:1;" x1="0" x2="653.937" y1="560.8555" y2="560.8555"/><rect fill="#EEEEEE" height="23.1328" style="stroke:#000000;stroke-width:2;" width="388.3594" x="132.7888" y="547.2891"/><text fill="#000000" font-family="sans-serif" font-size="13" font-weight="bold" lengthAdjust="spacing" textLength="369.8335" x="138.7888" y="563.356">Deadlock by on_event_subscription_status_change</text><polygon fill="#181818" points="373.6528,597.5547,363.6528,601.5547,373.6528,605.5547,369.6528,601.5547" style="stroke:#181818;stroke-width:1;"/><line style="stroke:#181818;stroke-width:1;stroke-dasharray:2.0,2.0;" x1="367.6528" x2="579.417" y1="601.5547" y2="601.5547"/><text fill="#000000" font-family="sans-serif" font-size="13" lengthAdjust="spacing" textLength="198.7642" x="379.6528" y="596.4888">set_event_subscription_state()</text><polygon fill="#181818" points="84.0752,626.6875,74.0752,630.6875,84.0752,634.6875,80.0752,630.6875" style="stroke:#181818;stroke-width:1;"/><line style="stroke:#181818;stroke-width:1;stroke-dasharray:2.0,2.0;" x1="78.0752" x2="351.6528" y1="630.6875" y2="630.6875"/><text fill="#000000" font-family="sans-serif" font-size="13" lengthAdjust="spacing" textLength="260.5776" x="90.0752" y="625.6216">on_event_subscription_status_change ()</text><polygon fill="#181818" points="345.6528,655.8203,355.6528,659.8203,345.6528,663.8203,349.6528,659.8203" style="stroke:#181818;stroke-width:1;"/><line style="stroke:#181818;stroke-width:1;stroke-dasharray:2.0,2.0;" x1="68.0752" x2="351.6528" y1="659.8203" y2="659.8203"/><text fill="#000000" font-family="sans-serif" font-size="13" lengthAdjust="spacing" textLength="130.292" x="75.0752" y="654.7544">~Client_connector()</text><line style="stroke:#A80036;stroke-width:2;" x1="348.6528" x2="366.6528" y1="650.8203" y2="668.8203"/><line style="stroke:#A80036;stroke-width:2;" x1="348.6528" x2="366.6528" y1="668.8203" y2="650.8203"/><rect fill="#FEFFDD" height="23" style="stroke:#181818;stroke-width:0.5;" width="470" x="122" y="672.8203"/><text fill="#000000" font-family="sans-serif" font-size="13" lengthAdjust="spacing" textLength="462.0015" x="126" y="688.8872">Deadlock happens here because destructor waits for callback to finish.</text><rect fill="#EEEEEE" height="3" style="stroke:#EEEEEE;stroke-width:1;" width="653.937" x="0" y="721.5195"/><line style="stroke:#000000;stroke-width:1;" x1="0" x2="653.937" y1="721.5195" y2="721.5195"/><line style="stroke:#000000;stroke-width:1;" x1="0" x2="653.937" y1="724.5195" y2="724.5195"/><rect fill="#EEEEEE" height="23.1328" style="stroke:#000000;stroke-width:2;" width="302.4438" x="175.7466" y="710.9531"/><text fill="#000000" font-family="sans-serif" font-size="13" font-weight="bold" lengthAdjust="spacing" textLength="283.918" x="181.7466" y="727.02">Deadlock by on_method_reply at client</text><polygon fill="#181818" points="563.417,761.2188,573.417,765.2188,563.417,769.2188,567.417,765.2188" style="stroke:#181818;stroke-width:1;"/><line style="stroke:#181818;stroke-width:1;stroke-dasharray:2.0,2.0;" x1="362.6528" x2="569.417" y1="765.2188" y2="765.2188"/><text fill="#000000" font-family="sans-serif" font-size="13" lengthAdjust="spacing" textLength="89.1846" x="369.6528" y="760.1528">call_method()</text><polygon fill="#181818" points="373.6528,790.3516,363.6528,794.3516,373.6528,798.3516,369.6528,794.3516" style="stroke:#181818;stroke-width:1;"/><line style="stroke:#181818;stroke-width:1;stroke-dasharray:2.0,2.0;" x1="367.6528" x2="574.417" y1="794.3516" y2="794.3516"/><text fill="#000000" font-family="sans-serif" font-size="13" lengthAdjust="spacing" textLength="99.7471" x="379.6528" y="789.2856">method_reply()</text><polygon fill="#181818" points="84.0752,819.4844,74.0752,823.4844,84.0752,827.4844,80.0752,823.4844" style="stroke:#181818;stroke-width:1;"/><line style="stroke:#181818;stroke-width:1;stroke-dasharray:2.0,2.0;" x1="78.0752" x2="351.6528" y1="823.4844" y2="823.4844"/><text fill="#000000" font-family="sans-serif" font-size="13" lengthAdjust="spacing" textLength="122.4399" x="90.0752" y="818.4185">on_method_reply()</text><polygon fill="#181818" points="345.6528,848.6172,355.6528,852.6172,345.6528,856.6172,349.6528,852.6172" style="stroke:#181818;stroke-width:1;"/><line style="stroke:#181818;stroke-width:1;stroke-dasharray:2.0,2.0;" x1="68.0752" x2="351.6528" y1="852.6172" y2="852.6172"/><text fill="#000000" font-family="sans-serif" font-size="13" lengthAdjust="spacing" textLength="130.292" x="75.0752" y="847.5513">~Client_connector()</text><line style="stroke:#A80036;stroke-width:2;" x1="348.6528" x2="366.6528" y1="843.6172" y2="861.6172"/><line style="stroke:#A80036;stroke-width:2;" x1="348.6528" x2="366.6528" y1="861.6172" y2="843.6172"/><rect fill="#FEFFDD" height="23" style="stroke:#181818;stroke-width:0.5;" width="470" x="122" y="865.6172"/><text fill="#000000" font-family="sans-serif" font-size="13" lengthAdjust="spacing" textLength="462.0015" x="126" y="881.6841">Deadlock happens here because destructor waits for callback to finish.</text><rect fill="#EEEEEE" height="3" style="stroke:#EEEEEE;stroke-width:1;" width="653.937" x="0" y="914.3164"/><line style="stroke:#000000;stroke-width:1;" x1="0" x2="653.937" y1="914.3164" y2="914.3164"/><line style="stroke:#000000;stroke-width:1;" x1="0" x2="653.937" y1="917.3164" y2="917.3164"/><rect fill="#EEEEEE" height="23.1328" style="stroke:#000000;stroke-width:2;" width="308.2075" x="172.8647" y="903.75"/><text fill="#000000" font-family="sans-serif" font-size="13" font-weight="bold" lengthAdjust="spacing" textLength="289.6816" x="178.8647" y="919.8169">Deadlock by on_method_reply at server</text><polygon fill="#181818" points="563.417,954.0156,573.417,958.0156,563.417,962.0156,567.417,958.0156" style="stroke:#181818;stroke-width:1;"/><line style="stroke:#181818;stroke-width:1;stroke-dasharray:2.0,2.0;" x1="362.6528" x2="569.417" y1="958.0156" y2="958.0156"/><text fill="#000000" font-family="sans-serif" font-size="13" lengthAdjust="spacing" textLength="89.1846" x="369.6528" y="952.9497">call_method()</text><polygon fill="#181818" points="373.6528,983.1484,363.6528,987.1484,373.6528,991.1484,369.6528,987.1484" style="stroke:#181818;stroke-width:1;"/><line style="stroke:#181818;stroke-width:1;stroke-dasharray:2.0,2.0;" x1="367.6528" x2="574.417" y1="987.1484" y2="987.1484"/><text fill="#000000" font-family="sans-serif" font-size="13" lengthAdjust="spacing" textLength="99.7471" x="379.6528" y="982.0825">method_reply()</text><polygon fill="#181818" points="84.0752,1012.2813,74.0752,1016.2813,84.0752,1020.2813,80.0752,1016.2813" style="stroke:#181818;stroke-width:1;"/><line style="stroke:#181818;stroke-width:1;stroke-dasharray:2.0,2.0;" x1="78.0752" x2="351.6528" y1="1016.2813" y2="1016.2813"/><text fill="#000000" font-family="sans-serif" font-size="13" lengthAdjust="spacing" textLength="122.4399" x="90.0752" y="1011.2153">on_method_reply()</text><polygon fill="#181818" points="568.417,1041.4141,578.417,1045.4141,568.417,1049.4141,572.417,1045.4141" style="stroke:#181818;stroke-width:1;"/><line style="stroke:#181818;stroke-width:1;stroke-dasharray:2.0,2.0;" x1="68.0752" x2="574.417" y1="1045.4141" y2="1045.4141"/><text fill="#000000" font-family="sans-serif" font-size="13" lengthAdjust="spacing" textLength="135.2876" x="75.0752" y="1040.3481">~Server_connector()</text><line style="stroke:#A80036;stroke-width:2;" x1="571.417" x2="589.417" y1="1036.4141" y2="1054.4141"/><line style="stroke:#A80036;stroke-width:2;" x1="571.417" x2="589.417" y1="1054.4141" y2="1036.4141"/><rect fill="#FEFFDD" height="23" style="stroke:#181818;stroke-width:0.5;" width="470" x="122" y="1058.4141"/><text fill="#000000" font-family="sans-serif" font-size="13" lengthAdjust="spacing" textLength="462.0015" x="126" y="1074.481">Deadlock happens here because destructor waits for callback to finish.</text><!--SRC=[xLL1RiCW4BppYZssX_G1aTnB-uC-mCAmgL5SeB1EbKlUNaAQn0RRQg9KpS4tQzSxC-oCiUMEb52MQuANHg6cKl2cgRXOUsO7caPh56HSh_c6ReEkqsH50Q_8PMF46gej65twy8uIM7hYXAMekNv7A0h6qc5OB9upkYLqv-J38-E2r2QKScKihVGGZwTRZeaQmZwjXAML4RMxj1HG9NfoPfiBbZX1wBG9THDMb0-UTrnpQr5xgD4XL2Xuwn4YOHityCKLULY5foCqa86LqihNJmorZ3H3lk5cpzbQkPTtWL-7YSFuhUpgQfbj6h39uMSRq51URzWPuW-iI_ND9WwOwDlA2wSigVqD5MwcrbzpNoADuU5jJPtGE_lRy_S3gJOoV0MssG8d4554T7LmwQdLoyZu0pDfugcJ_vf_cP-kra1rGIgIoJiAGAUNx-NUmk6ZmZaSlN3aXzwbfHYEySDFv-CGglyDnpS0]--></g></svg>