<svg xmlns="http://www.w3.org/2000/svg" xmlns:xlink="http://www.w3.org/1999/xlink" contentStyleType="text/css" data-diagram-type="STATE" height="419px" preserveAspectRatio="none" style="width:658px;height:419px;background:#FFFFFF;" version="1.1" viewBox="0 0 658 419" width="658px" zoomAndPan="magnify"><defs/><g><rect fill="#F1F1F1" height="40" rx="12.5" ry="12.5" style="stroke:#181818;stroke-width:0.5;" width="104.7188" x="199.66" y="87"/><text fill="#000000" font-family="sans-serif" font-size="14" lengthAdjust="spacing" textLength="94.7188" x="204.66" y="111.8467">Not_available</text><rect fill="#F1F1F1" height="40" rx="12.5" ry="12.5" style="stroke:#181818;stroke-width:0.5;" width="74.1895" x="163.16" y="237.5"/><text fill="#000000" font-family="sans-serif" font-size="14" lengthAdjust="spacing" textLength="64.1895" x="168.16" y="262.3467">Available</text><rect fill="#F1F1F1" height="40" rx="12.5" ry="12.5" style="stroke:#181818;stroke-width:0.5;" width="133.1836" x="241.66" y="373"/><text fill="#000000" font-family="sans-serif" font-size="14" lengthAdjust="spacing" textLength="123.1836" x="246.66" y="397.8467">Event_subscribed</text><ellipse cx="252.16" cy="16" fill="#222222" rx="10" ry="10" style="stroke:#222222;stroke-width:1;"/><!--link *start* to Not_available--><g id="link_*start*_Not_available"><path d="M252.16,26.19 C252.16,40.4 252.16,62.02 252.16,80.74 " fill="transparent" id="*start*-to-Not_available" style="stroke:#181818;stroke-width:1;"/><polygon fill="#181818" points="252.16,86.74,256.16,77.74,252.16,81.74,248.16,77.74,252.16,86.74" style="stroke:#181818;stroke-width:1;"/></g><!--link Not_available to Available--><g id="link_Not_available_Available"><path d="M199.52,111.54 C137.91,116.91 41.43,129.56 19.16,157 C6,173.22 6.61,187.3 19.16,204 C36.4,226.96 109.1502,242.1322 156.9202,250.0222 " fill="transparent" id="Not_available-to-Available" style="stroke:#181818;stroke-width:1;"/><polygon fill="#181818" points="162.84,251,154.6121,245.5868,157.9068,250.1852,153.3085,253.4799,162.84,251" style="stroke:#181818;stroke-width:1;"/><text fill="#000000" font-family="sans-serif" font-size="13" lengthAdjust="spacing" textLength="188.7095" x="20.16" y="170.0669">Client_connector::Callbacks::</text><text fill="#000000" font-family="sans-serif" font-size="13" lengthAdjust="spacing" textLength="163.0332" x="32.9981" y="185.1997">on_service_state_change</text><text fill="#000000" font-family="sans-serif" font-size="13" lengthAdjust="spacing" textLength="165.0581" x="31.9857" y="200.3325">(Service_state::available)</text></g><!--link Available to Not_available--><g id="link_Available_Not_available"><path d="M206.83,237.46 C216.8,208.99 233.4959,161.2824 243.4859,132.7724 " fill="transparent" id="Available-to-Not_available" style="stroke:#181818;stroke-width:1;"/><polygon fill="#181818" points="245.47,127.11,238.7188,134.2809,243.8166,131.8287,246.2688,136.9264,245.47,127.11" style="stroke:#181818;stroke-width:1;"/><text fill="#000000" font-family="sans-serif" font-size="13" lengthAdjust="spacing" textLength="188.7095" x="235.16" y="170.0669">Client_connector::Callbacks::</text><text fill="#000000" font-family="sans-serif" font-size="13" lengthAdjust="spacing" textLength="163.0332" x="247.9981" y="185.1997">on_service_state_change</text><text fill="#000000" font-family="sans-serif" font-size="13" lengthAdjust="spacing" textLength="170.2695" x="244.38" y="200.3325">(!Service_state::available)</text></g><!--link Available to Event_subscribed--><g id="link_Available_Event_subscribed"><path d="M173.26,277.75 C152.25,295.18 129.07,321.37 145.16,343 C167.29,372.76 200.9482,384.2861 235.5782,389.1461 " fill="transparent" id="Available-to-Event_subscribed" style="stroke:#181818;stroke-width:1;"/><polygon fill="#181818" points="241.52,389.98,233.1633,384.768,236.5685,389.2851,232.0514,392.6904,241.52,389.98" style="stroke:#181818;stroke-width:1;"/><text fill="#000000" font-family="sans-serif" font-size="13" lengthAdjust="spacing" textLength="118.0156" x="146.16" y="324.0669">Client_connector::</text><text fill="#000000" font-family="sans-serif" font-size="13" lengthAdjust="spacing" textLength="116.0605" x="147.1375" y="339.1997">subscribe_event()</text></g><!--link Event_subscribed to Available--><g id="link_Event_subscribed_Available"><path d="M301.88,372.88 C295.53,355.48 284.46,329.74 269.16,311 C258.69,298.17 249.3985,290.1164 236.5885,281.1664 " fill="transparent" id="Event_subscribed-to-Available" style="stroke:#181818;stroke-width:1;"/><polygon fill="#181818" points="231.67,277.73,236.7568,286.1636,235.7687,280.5937,241.3386,279.6056,231.67,277.73" style="stroke:#181818;stroke-width:1;"/><text fill="#000000" font-family="sans-serif" font-size="13" lengthAdjust="spacing" textLength="118.0156" x="296.4217" y="324.0669">Client_connector::</text><text fill="#000000" font-family="sans-serif" font-size="13" lengthAdjust="spacing" textLength="132.5391" x="289.16" y="339.1997">unsubscribe_event()</text></g><!--link Event_subscribed to Not_available--><g id="link_Event_subscribed_Not_available"><path d="M374.78,380.44 C396.01,373.29 417.31,361.72 430.16,343 C487.3,259.78 452.48,183.59 432.16,157 C416.67,136.73 358.0327,123.8198 310.6427,116.1398 " fill="transparent" id="Event_subscribed-to-Not_available" style="stroke:#181818;stroke-width:1;"/><polygon fill="#181818" points="304.72,115.18,312.9642,120.5682,309.6556,115.9799,314.244,112.6713,304.72,115.18" style="stroke:#181818;stroke-width:1;"/><text fill="#000000" font-family="sans-serif" font-size="13" lengthAdjust="spacing" textLength="188.7095" x="462.16" y="247.0669">Client_connector::Callbacks::</text><text fill="#000000" font-family="sans-serif" font-size="13" lengthAdjust="spacing" textLength="163.0332" x="474.9981" y="262.1997">on_service_state_change</text><text fill="#000000" font-family="sans-serif" font-size="13" lengthAdjust="spacing" textLength="170.2695" x="471.38" y="277.3325">(!Service_state::available)</text></g><!--SRC=[lP312i8m44Jl-Ofugu8_i0UX5AzUF1e9IRhOODoK9YtuzzeYnOIA1y7ZpkxCMwQnDNAyjV7EQmocissqdXWBKKNa1n-b6fHrIZjyQMKsxmUaA4ElHxV6ch7JviotsrtcJgPfFoS1hvmTKumdGXDz1r0fvxGorm0Wo9CCs0tMe9oWqZIABYYeEBxB03DWpLYPm1By3y3LPs8Ap7jPOWgQznB7- -BvTsxytfMWVY5eCUSFDJm0]--></g></svg>