<svg xmlns="http://www.w3.org/2000/svg" xmlns:xlink="http://www.w3.org/1999/xlink" contentStyleType="text/css" data-diagram-type="DESCRIPTION" height="346px" preserveAspectRatio="none" style="width:1912px;height:346px;background:#FFFFFF;" version="1.1" viewBox="0 0 1912 346" width="1912px" zoomAndPan="magnify"><defs/><g><!--entity client--><g id="elem_client"><rect fill="#F1F1F1" height="52.5938" rx="2.5" ry="2.5" style="stroke:#181818;stroke-width:0.5;" width="213.9561" x="32" y="108"/><text fill="#000000" font-family="sans-serif" font-size="14" lengthAdjust="spacing" textLength="193.9561" x="42" y="130.9951">Gateway_ipc_binding_client</text><text fill="#000000" font-family="sans-serif" font-size="14" lengthAdjust="spacing" textLength="33.2363" x="42" y="147.292">C++</text></g><!--entity server--><g id="elem_server"><rect fill="#F1F1F1" height="52.5938" rx="2.5" ry="2.5" style="stroke:#181818;stroke-width:0.5;" width="219.8213" x="516" y="7"/><text fill="#000000" font-family="sans-serif" font-size="14" lengthAdjust="spacing" textLength="199.8213" x="526" y="29.9951">Gateway_ipc_binding_server</text><text fill="#000000" font-family="sans-serif" font-size="14" lengthAdjust="spacing" textLength="33.2363" x="526" y="46.292">C++</text></g><!--entity base--><g id="elem_base"><rect fill="#F1F1F1" height="52.5938" rx="2.5" ry="2.5" style="stroke:#181818;stroke-width:0.5;" width="208.877" x="1040" y="108"/><text fill="#000000" font-family="sans-serif" font-size="14" lengthAdjust="spacing" textLength="188.877" x="1050" y="130.9951">Gateway_ipc_binding_base</text><text fill="#000000" font-family="sans-serif" font-size="14" lengthAdjust="spacing" textLength="33.2363" x="1050" y="147.292">C++</text></g><!--entity shm--><g id="elem_shm"><rect fill="#F1F1F1" height="52.5938" rx="2.5" ry="2.5" style="stroke:#181818;stroke-width:0.5;" width="209.7588" x="1655" y="33"/><text fill="#000000" font-family="sans-serif" font-size="14" lengthAdjust="spacing" textLength="189.7588" x="1665" y="55.9951">Shared_memory managers</text><text fill="#000000" font-family="sans-serif" font-size="14" lengthAdjust="spacing" textLength="33.2363" x="1665" y="72.292">C++</text></g><!--entity runtime--><g id="elem_runtime"><rect fill="#F1F1F1" height="52.5938" rx="2.5" ry="2.5" style="stroke:#181818;stroke-width:0.5;" width="131.4668" x="1694.5" y="211"/><text fill="#000000" font-family="sans-serif" font-size="14" lengthAdjust="spacing" textLength="111.4668" x="1704.5" y="233.9951">SOCom runtime</text><text fill="#000000" font-family="sans-serif" font-size="14" lengthAdjust="spacing" textLength="33.2363" x="1704.5" y="250.292">C++</text></g><g id="elem_GMN7"><path d="M6,196 L6,251.3984 A0,0 0 0 0 6,251.3984 L271.8545,251.3984 A0,0 0 0 0 271.8545,251.3984 L271.8545,206 L261.8545,196 L143,196 L139,161.27 L135,196 L6,196 A0,0 0 0 0 6,196 " fill="#FEFFDD" style="stroke:#181818;stroke-width:0.5;"/><path d="M261.8545,196 L261.8545,206 L271.8545,206 L261.8545,196 " fill="#FEFFDD" style="stroke:#181818;stroke-width:0.5;"/><text fill="#000000" font-family="sans-serif" font-size="13" lengthAdjust="spacing" textLength="244.8545" x="12" y="213.0669">Owns one outgoing message_passing</text><text fill="#000000" font-family="sans-serif" font-size="13" lengthAdjust="spacing" textLength="234.2158" x="12" y="228.1997">connection and auto-sends Connect</text><text fill="#000000" font-family="sans-serif" font-size="13" lengthAdjust="spacing" textLength="80.6279" x="12" y="243.3325">when ready.</text></g><g id="elem_GMN10"><path d="M515,95.5 L515,135.7656 A0,0 0 0 0 515,135.7656 L737.4556,135.7656 A0,0 0 0 0 737.4556,135.7656 L737.4556,105.5 L727.4556,95.5 L630,95.5 L626,60.06 L622,95.5 L515,95.5 A0,0 0 0 0 515,95.5 " fill="#FEFFDD" style="stroke:#181818;stroke-width:0.5;"/><path d="M727.4556,95.5 L727.4556,105.5 L737.4556,105.5 L727.4556,95.5 " fill="#FEFFDD" style="stroke:#181818;stroke-width:0.5;"/><text fill="#000000" font-family="sans-serif" font-size="13" lengthAdjust="spacing" textLength="172.377" x="521" y="112.5669">Accepts multiple incoming</text><text fill="#000000" font-family="sans-serif" font-size="13" lengthAdjust="spacing" textLength="201.4556" x="521" y="127.6997">message_passing connections.</text></g><g id="elem_GMN13"><path d="M999,196 L999,251.3984 A0,0 0 0 0 999,251.3984 L1290.042,251.3984 A0,0 0 0 0 1290.042,251.3984 L1290.042,206 L1280.042,196 L1148.5,196 L1144.5,161.27 L1140.5,196 L999,196 A0,0 0 0 0 999,196 " fill="#FEFFDD" style="stroke:#181818;stroke-width:0.5;"/><path d="M1280.042,196 L1280.042,206 L1290.042,206 L1280.042,196 " fill="#FEFFDD" style="stroke:#181818;stroke-width:0.5;"/><text fill="#000000" font-family="sans-serif" font-size="13" lengthAdjust="spacing" textLength="270.042" x="1005" y="213.0669">Shared bridge logic for service discovery,</text><text fill="#000000" font-family="sans-serif" font-size="13" lengthAdjust="spacing" textLength="189.8076" x="1005" y="228.1997">per-service connection state,</text><text fill="#000000" font-family="sans-serif" font-size="13" lengthAdjust="spacing" textLength="144.0537" x="1005" y="243.3325">and event forwarding.</text></g><g id="elem_GMN16"><path d="M1615,121 L1615,176.3984 A0,0 0 0 0 1615,176.3984 L1905.0645,176.3984 A0,0 0 0 0 1905.0645,176.3984 L1905.0645,131 L1895.0645,121 L1764,121 L1760,86.27 L1756,121 L1615,121 A0,0 0 0 0 1615,121 " fill="#FEFFDD" style="stroke:#181818;stroke-width:0.5;"/><path d="M1895.0645,121 L1895.0645,131 L1905.0645,131 L1895.0645,121 " fill="#FEFFDD" style="stroke:#181818;stroke-width:0.5;"/><text fill="#000000" font-family="sans-serif" font-size="13" lengthAdjust="spacing" textLength="268.0679" x="1621" y="138.0669">Create one writable shared-memory pool</text><text fill="#000000" font-family="sans-serif" font-size="13" lengthAdjust="spacing" textLength="269.0645" x="1621" y="153.1997">per service instance and open peer pools</text><text fill="#000000" font-family="sans-serif" font-size="13" lengthAdjust="spacing" textLength="65.8823" x="1621" y="168.3325">read-only.</text></g><g id="elem_GMN19"><path d="M1629,299.5 L1629,339.7656 A0,0 0 0 0 1629,339.7656 L1890.8936,339.7656 A0,0 0 0 0 1890.8936,339.7656 L1890.8936,309.5 L1880.8936,299.5 L1764,299.5 L1760,264.06 L1756,299.5 L1629,299.5 A0,0 0 0 0 1629,299.5 " fill="#FEFFDD" style="stroke:#181818;stroke-width:0.5;"/><path d="M1880.8936,299.5 L1880.8936,309.5 L1890.8936,309.5 L1880.8936,299.5 " fill="#FEFFDD" style="stroke:#181818;stroke-width:0.5;"/><text fill="#000000" font-family="sans-serif" font-size="13" lengthAdjust="spacing" textLength="240.8936" x="1635" y="316.5669">Local service bridge registration plus</text><text fill="#000000" font-family="sans-serif" font-size="13" lengthAdjust="spacing" textLength="212.1133" x="1635" y="331.6997">client/server connector creation.</text></g><!--link client to server--><g id="link_client_server"><path d="M246.14,112.4 C326.01,95.76 429.246,74.2633 509.866,57.4733 " fill="transparent" id="client-to-server" style="stroke:#181818;stroke-width:1;"/><polygon fill="#181818" points="515.74,56.25,506.1135,54.169,510.845,57.2694,507.7446,62.001,515.74,56.25" style="stroke:#181818;stroke-width:1;"/><text fill="#000000" font-family="sans-serif" font-size="13" lengthAdjust="spacing" textLength="181.0732" x="303" y="59.5669">Connect / control messages</text></g><!--link client to base--><g id="link_client_base"><path d="M246.09,147.06 C321.09,155.28 424.05,165.26 515,169.5 C613.56,174.09 638.42,173.74 737,169.5 C840.15,165.07 951.6414,154.9526 1033.6814,146.5326 " fill="transparent" id="client-to-base" style="stroke:#181818;stroke-width:1;"/><polygon fill="#181818" points="1039.65,145.92,1030.2886,142.8598,1034.6761,146.4305,1031.1054,150.818,1039.65,145.92" style="stroke:#181818;stroke-width:1;"/><text fill="#000000" font-family="sans-serif" font-size="13" lengthAdjust="spacing" textLength="200.8779" x="526" y="165.5669">Delegates protocol handling to</text></g><!--link server to base--><g id="link_server_base"><path d="M736.22,54.86 C825.77,72.37 945.7916,95.8383 1033.8316,113.0583 " fill="transparent" id="server-to-base" style="stroke:#181818;stroke-width:1;"/><polygon fill="#181818" points="1039.72,114.21,1031.6552,108.5568,1034.813,113.2502,1030.1195,116.408,1039.72,114.21" style="stroke:#181818;stroke-width:1;"/><text fill="#000000" font-family="sans-serif" font-size="13" lengthAdjust="spacing" textLength="200.8779" x="768" y="59.5669">Delegates protocol handling to</text></g><!--link base to shm--><g id="link_base_shm"><path d="M1249.22,121.82 C1362.15,108.01 1535.7443,86.7877 1648.8543,72.9677 " fill="transparent" id="base-to-shm" style="stroke:#181818;stroke-width:1;"/><polygon fill="#181818" points="1654.81,72.24,1645.3913,69.361,1649.8469,72.8464,1646.3616,77.302,1654.81,72.24" style="stroke:#181818;stroke-width:1;"/><text fill="#000000" font-family="sans-serif" font-size="13" lengthAdjust="spacing" textLength="245.2671" x="1330" y="78.5669">Allocates and opens payload memory</text></g><!--link base to runtime--><g id="link_base_runtime"><path d="M1249.22,151.91 C1376.5,173.28 1582.4928,207.8666 1688.5228,225.6666 " fill="transparent" id="base-to-runtime" style="stroke:#181818;stroke-width:1;"/><polygon fill="#181818" points="1694.44,226.66,1686.2264,221.2252,1689.509,225.8322,1684.902,229.1148,1694.44,226.66" style="stroke:#181818;stroke-width:1;"/><text fill="#000000" font-family="sans-serif" font-size="13" lengthAdjust="spacing" textLength="263.7959" x="1321" y="161.5669">Registers bridge and creates connectors</text></g><!--SRC=[ZLF1Qjqm4BpxAvPSKpVt7WhX5Nef199hmUZ9-snHIIkqwnZ_VLUM_PxRmajlbdTcHpDZUxm8245smoZGkunM7CM6VxcOJ3O1B8L44QEyoU8H2i34mMFJN2VmyDq8pcRfNBBTsSNUnQ6ptkdiPpmzFZw0OQZdZrYC-HtpZLNF7x7EXl76AQSZusqq6VikOA2yG33H39Zve366F-0l9mgGfoWk7BPkBvecaY2SIKHHTDbz0RpCaK5t04qoa5uB0ZAhLfSCivuLOod66Z6Os8EPX5h6s3ESwaGnyuXHSpRzyhdH4HIzVrItN02UhSKa367ouf8svA9wgMf_wH_K-SxgDJw0cXgSi-i714-3it2Xl2exY_gni2Mzm_99mGbpkmyE7bcqh38lPl6znAihPfDBQ_VSQIC09mr1NvT8v-p4dDKThxTgjouJaQ_grskvgA9H7uea9OqoeOuBaXLQScqf-dlPxaq3_21h_7Nr5aN6mR5aipfCVYfhwqVmL5lP4z2mRB6WkADQnKBRVjrQX2zx-_1Kk9B9xztn4LwQKV0tz3XeCWmfav1LzAXkVQbOgDcM_ZzXHQtN6OEYdxrNsmMzHwWyitWoFTJSRumjAcMzhgdeVxN7LCYhVLrq3OH_0m00]--></g></svg>