<svg xmlns="http://www.w3.org/2000/svg" xmlns:xlink="http://www.w3.org/1999/xlink" contentStyleType="text/css" data-diagram-type="STATE" height="250px" preserveAspectRatio="none" style="width:893px;height:250px;background:#FFFFFF;" version="1.1" viewBox="0 0 893 250" width="893px" zoomAndPan="magnify"><defs/><g><rect fill="#F1F1F1" height="40" rx="12.5" ry="12.5" style="stroke:#181818;stroke-width:0.5;" width="206.7588" x="190.37" y="87"/><text fill="#000000" font-family="sans-serif" font-size="14" lengthAdjust="spacing" textLength="196.7588" x="195.37" y="111.8467">Service_state::not_available</text><rect fill="#F1F1F1" height="40" rx="12.5" ry="12.5" style="stroke:#181818;stroke-width:0.5;" width="176.8311" x="205.37" y="204"/><text fill="#000000" font-family="sans-serif" font-size="14" lengthAdjust="spacing" textLength="166.8311" x="210.37" y="228.8467">Service_state::available</text><ellipse cx="293.87" cy="16" fill="#222222" rx="10" ry="10" style="stroke:#222222;stroke-width:1;"/><!--link *start* to not_available--><g id="link_*start*_not_available"><path d="M293.87,26.19 C293.87,40.4 293.87,62.02 293.87,80.74 " fill="transparent" id="*start*-to-not_available" style="stroke:#181818;stroke-width:1;"/><polygon fill="#181818" points="293.87,86.74,297.87,77.74,293.87,81.74,289.87,77.74,293.87,86.74" style="stroke:#181818;stroke-width:1;"/></g><!--link not_available to not_available--><g id="link_not_available_not_available"><path d="M397.46,102.51 C417.85,103.03 432.37,104.52 432.37,107 C432.37,109.48 423.848,110.817 403.458,111.337 " fill="transparent" id="not_available-to-not_available" style="stroke:#181818;stroke-width:1;"/><polygon fill="#181818" points="397.46,111.49,406.5591,115.2593,402.4584,111.3625,406.3551,107.2619,397.46,111.49" style="stroke:#181818;stroke-width:1;"/><text fill="#000000" font-family="sans-serif" font-size="13" lengthAdjust="spacing" textLength="229.2139" x="438.37" y="111.5669">Runtime::make_server_connector()</text></g><!--link not_available to not_available--><g id="link_not_available_not_available"><path d="M397.44,99.25 C512.13,95.57 673.37,98.15 673.37,107 C673.37,115.85 518.1269,118.6224 403.4369,114.9424 " fill="transparent" id="not_available-to-not_available-1" style="stroke:#181818;stroke-width:1;"/><polygon fill="#181818" points="397.44,114.75,406.3071,119.0366,402.4374,114.9103,406.5637,111.0407,397.44,114.75" style="stroke:#181818;stroke-width:1;"/><text fill="#000000" font-family="sans-serif" font-size="13" lengthAdjust="spacing" textLength="201.1636" x="679.37" y="111.5669">~Disabled_server_connector():</text></g><!--link not_available to available--><g id="link_not_available_available"><path d="M190.18,112.3 C119.14,117.67 33.79,129.77 10.87,157 C6,162.78 6,168.22 10.87,174 C35.43,203.18 125.7326,214.6015 199.2426,219.3715 " fill="transparent" id="not_available-to-available" style="stroke:#181818;stroke-width:1;"/><polygon fill="#181818" points="205.23,219.76,196.5079,215.1856,200.2405,219.4362,195.9899,223.1688,205.23,219.76" style="stroke:#181818;stroke-width:1;"/><text fill="#000000" font-family="sans-serif" font-size="13" lengthAdjust="spacing" textLength="238.7163" x="11.87" y="170.0669">Disabled_server_connector::enable()</text></g><!--link available to not_available--><g id="link_available_not_available"><path d="M292.43,203.93 C291.82,194.87 291.17,183.88 290.87,174 C290.39,158.18 290.8586,146.2245 291.8086,133.0445 " fill="transparent" id="available-to-not_available" style="stroke:#181818;stroke-width:1;"/><polygon fill="#181818" points="292.24,127.06,287.6033,135.7491,291.8805,132.0471,295.5826,136.3243,292.24,127.06" style="stroke:#181818;stroke-width:1;"/><text fill="#000000" font-family="sans-serif" font-size="13" lengthAdjust="spacing" textLength="237.1738" x="291.87" y="170.0669">Enabled_server_connector::disable()</text></g><!--link available to not_available--><g id="link_available_not_available"><path d="M382.58,216.45 C442.77,209.95 514.74,197.43 533.87,174 C538.65,168.15 538.65,162.85 533.87,157 C516.29,135.46 460.016,123.8751 403.336,116.9751 " fill="transparent" id="available-to-not_available-1" style="stroke:#181818;stroke-width:1;"/><polygon fill="#181818" points="397.38,116.25,405.8307,121.3083,402.3434,116.8542,406.7974,113.3669,397.38,116.25" style="stroke:#181818;stroke-width:1;"/><text fill="#000000" font-family="sans-serif" font-size="13" lengthAdjust="spacing" textLength="192.8418" x="537.87" y="170.0669">~Enabled_server_connector()</text></g><!--SRC=[XOyn3i8m34NtdCBgr2Br0XcOu08mqgeAYIKisgHAJ2MMdfqK1YWbPVEt_tzVlf11mAxdEnWCsbFFvAmGWHKZP4Vq0sbidb9AwxXHWw9MdLlCG0MORHAfUUBj5gTD3MMv_OA8cLmQ91nkbgcBv4vTOqjiGzzePorgTZulVX0-qZiAqs0MGIdHJfS84AlzUvi2c1Sx4bO1rPX2JDr__w_6v0zv8Hy0]--></g></svg>