<svg xmlns="http://www.w3.org/2000/svg" xmlns:xlink="http://www.w3.org/1999/xlink" contentStyleType="text/css" data-diagram-type="DESCRIPTION" height="331px" preserveAspectRatio="none" style="width:802px;height:331px;background:#FFFFFF;" version="1.1" viewBox="0 0 802 331" width="802px" zoomAndPan="magnify"><defs/><g><!--cluster SOCom--><g id="cluster_SOCom"><path d="M252.1333,14 L309.5981,14 A3.75,3.75 0 0 1 312.0981,16.5 L319.0981,36.2969 L793.1333,36.2969 A2.5,2.5 0 0 1 795.6333,38.7969 L795.6333,270.5 A2.5,2.5 0 0 1 793.1333,273 L252.1333,273 A2.5,2.5 0 0 1 249.6333,270.5 L249.6333,16.5 A2.5,2.5 0 0 1 252.1333,14 " fill="transparent" style="stroke:#000000;stroke-width:1.5;"/><line style="stroke:#000000;stroke-width:1.5;" x1="249.6333" x2="319.0981" y1="36.2969" y2="36.2969"/><text fill="#000000" font-family="sans-serif" font-size="14" font-weight="bold" lengthAdjust="spacing" textLength="56.4648" x="253.6333" y="28.9951">SOCom</text></g><!--entity Client_connector--><g id="elem_Client_connector"><rect fill="#F1F1F1" height="46.2969" rx="2.5" ry="2.5" style="stroke:#181818;stroke-width:0.5;" width="157.6602" x="268.1333" y="49"/><rect fill="#F1F1F1" height="10" style="stroke:#181818;stroke-width:0.5;" width="15" x="405.7935" y="54"/><rect fill="#F1F1F1" height="2" style="stroke:#181818;stroke-width:0.5;" width="4" x="403.7935" y="56"/><rect fill="#F1F1F1" height="2" style="stroke:#181818;stroke-width:0.5;" width="4" x="403.7935" y="60"/><text fill="#000000" font-family="sans-serif" font-size="14" lengthAdjust="spacing" textLength="117.6602" x="283.1333" y="81.9951">Client_connector</text></g><!--entity Server_connector--><g id="elem_Server_connector"><rect fill="#F1F1F1" height="46.2969" rx="2.5" ry="2.5" style="stroke:#181818;stroke-width:0.5;" width="163.04" x="265.6333" y="130"/><rect fill="#F1F1F1" height="10" style="stroke:#181818;stroke-width:0.5;" width="15" x="408.6733" y="135"/><rect fill="#F1F1F1" height="2" style="stroke:#181818;stroke-width:0.5;" width="4" x="406.6733" y="137"/><rect fill="#F1F1F1" height="2" style="stroke:#181818;stroke-width:0.5;" width="4" x="406.6733" y="141"/><text fill="#000000" font-family="sans-serif" font-size="14" lengthAdjust="spacing" textLength="123.04" x="280.6333" y="162.9951">Server_connector</text></g><!--entity Runtime--><g id="elem_Runtime"><rect fill="#F1F1F1" height="46.2969" rx="2.5" ry="2.5" style="stroke:#181818;stroke-width:0.5;" width="99.1035" x="297.6333" y="211"/><rect fill="#F1F1F1" height="10" style="stroke:#181818;stroke-width:0.5;" width="15" x="376.7368" y="216"/><rect fill="#F1F1F1" height="2" style="stroke:#181818;stroke-width:0.5;" width="4" x="374.7368" y="218"/><rect fill="#F1F1F1" height="2" style="stroke:#181818;stroke-width:0.5;" width="4" x="374.7368" y="222"/><text fill="#000000" font-family="sans-serif" font-size="14" lengthAdjust="spacing" textLength="59.1035" x="312.6333" y="243.9951">Runtime</text></g><!--entity Service_interface_definition--><g id="elem_Service_interface_definition"><rect fill="#F1F1F1" height="46.2969" rx="2.5" ry="2.5" style="stroke:#181818;stroke-width:0.5;" width="234.0791" x="545.6333" y="130"/><rect fill="#F1F1F1" height="10" style="stroke:#181818;stroke-width:0.5;" width="15" x="759.7124" y="135"/><rect fill="#F1F1F1" height="2" style="stroke:#181818;stroke-width:0.5;" width="4" x="757.7124" y="137"/><rect fill="#F1F1F1" height="2" style="stroke:#181818;stroke-width:0.5;" width="4" x="757.7124" y="141"/><text fill="#000000" font-family="sans-serif" font-size="14" lengthAdjust="spacing" textLength="194.0791" x="560.6333" y="162.9951">Service_interface_definition</text></g><!--entity Client_connector_if--><g id="elem_Client_connector_if"><ellipse cx="100.6333" cy="14" fill="#F1F1F1" rx="8" ry="8" style="stroke:#181818;stroke-width:0.5;"/><text fill="#000000" font-family="sans-serif" font-size="14" lengthAdjust="spacing" textLength="117.6602" x="41.8032" y="43.9951">Client_connector</text></g><!--entity Disabled_server_connector_if--><g id="elem_Disabled_server_connector_if"><ellipse cx="100.6333" cy="107" fill="#F1F1F1" rx="8" ry="8" style="stroke:#181818;stroke-width:0.5;"/><text fill="#000000" font-family="sans-serif" font-size="14" lengthAdjust="spacing" textLength="189.2666" x="6" y="136.9951">Disabled_server_connector</text></g><!--entity Enabled_server_connector_if--><g id="elem_Enabled_server_connector_if"><ellipse cx="100.6333" cy="200" fill="#F1F1F1" rx="8" ry="8" style="stroke:#181818;stroke-width:0.5;"/><text fill="#000000" font-family="sans-serif" font-size="14" lengthAdjust="spacing" textLength="185.0215" x="8.1226" y="229.9951">Enabled_server_connector</text></g><!--entity Runtime_if--><g id="elem_Runtime_if"><ellipse cx="100.6333" cy="293" fill="#F1F1F1" rx="8" ry="8" style="stroke:#181818;stroke-width:0.5;"/><text fill="#000000" font-family="sans-serif" font-size="14" lengthAdjust="spacing" textLength="59.1035" x="71.0815" y="322.9951">Runtime</text></g><!--link Client_connector_if to Client_connector--><g id="link_Client_connector_if_Client_connector"><path d="M109.7633,15.93 C134.2133,21.73 208.9533,39.46 267.9233,53.45 " fill="transparent" id="Client_connector_if-Client_connector" style="stroke:#181818;stroke-width:1;"/></g><!--link Disabled_server_connector_if to Server_connector--><g id="link_Disabled_server_connector_if_Server_connector"><path d="M109.7633,108.53 C133.8833,113.07 206.9333,126.81 265.5133,137.83 " fill="transparent" id="Disabled_server_connector_if-Server_connector" style="stroke:#181818;stroke-width:1;"/></g><!--link Enabled_server_connector_if to Server_connector--><g id="link_Enabled_server_connector_if_Server_connector"><path d="M109.7633,198.44 C133.8833,193.8 206.9333,179.76 265.5133,168.5 " fill="transparent" id="Enabled_server_connector_if-Server_connector" style="stroke:#181818;stroke-width:1;"/></g><!--link Runtime_if to Runtime--><g id="link_Runtime_if_Runtime"><path d="M109.7633,291.04 C138.5633,284.09 237.1533,260.3 297.5333,245.73 " fill="transparent" id="Runtime_if-Runtime" style="stroke:#181818;stroke-width:1;"/></g><!--link Client_connector to Service_interface_definition--><g id="link_Client_connector_Service_interface_definition"><path d="M426.4333,92.23 C470.7733,103.69 520.5941,116.5591 566.6141,128.4491 " fill="transparent" id="Client_connector-to-Service_interface_definition" style="stroke:#181818;stroke-width:1;"/><polygon fill="#181818" points="572.4233,129.95,564.71,123.8258,567.5823,128.6992,562.7088,131.5715,572.4233,129.95" style="stroke:#181818;stroke-width:1;"/><text fill="#000000" font-family="sans-serif" font-size="13" lengthAdjust="spacing" textLength="55.7642" x="459.6333" y="99.0669">depends</text></g><!--link Server_connector to Service_interface_definition--><g id="link_Server_connector_Service_interface_definition"><path d="M428.8633,153 C464.3333,153 500.6533,153 539.4233,153 " fill="transparent" id="Server_connector-to-Service_interface_definition" style="stroke:#181818;stroke-width:1;"/><polygon fill="#181818" points="545.4233,153,536.4233,149,540.4233,153,536.4233,157,545.4233,153" style="stroke:#181818;stroke-width:1;"/><text fill="#000000" font-family="sans-serif" font-size="13" lengthAdjust="spacing" textLength="55.7642" x="459.6333" y="149.0669">depends</text></g><!--link Runtime to Service_interface_definition--><g id="link_Runtime_Service_interface_definition"><path d="M396.7733,221.43 C443.5533,209.35 509.574,192.2907 566.634,177.5507 " fill="transparent" id="Runtime-to-Service_interface_definition" style="stroke:#181818;stroke-width:1;"/><polygon fill="#181818" points="572.4433,176.05,562.7289,174.4282,567.6022,177.3006,564.7298,182.1739,572.4433,176.05" style="stroke:#181818;stroke-width:1;"/><text fill="#000000" font-family="sans-serif" font-size="13" lengthAdjust="spacing" textLength="55.7642" x="459.6333" y="188.0669">depends</text></g><!--SRC=[bP4z3i8m34RtdC9YWg4NO60fp4Zq05L8d6BHEbKQM11t9urQ8QK_KhF4qkUdlDWr6W_UWgFguK6JG-N9icYbUieAeRZcje6FW712rLf6zf3N5AvIMURGRrqI5-ZUw1RZsuizDJW3aSAIsACpCbGQ3J55dQyG-mFiqdTt8Bk9J4acDf-fa_SQTTabEf5QJ4VymYlqKZZ2mnTZxr3taPXnXIoRpdFDhWSc4ruHckt_I_Nnk969NmXFgvk18sXiaNKdqZUsi8F01kG7]--></g></svg>