<svg xmlns="http://www.w3.org/2000/svg" xmlns:xlink="http://www.w3.org/1999/xlink" contentStyleType="text/css" data-diagram-type="SEQUENCE" height="582px" preserveAspectRatio="none" style="width:567px;height:582px;background:#FFFFFF;" version="1.1" viewBox="0 0 567 582" width="567px" zoomAndPan="magnify"><defs/><g><g><title>Server_callbacks</title><rect fill="#FFFFFF" height="29.1328" style="stroke:#181818;stroke-width:1;" width="10" x="65.7651" y="139.6953"/></g><g><title>Server_callbacks</title><rect fill="#FFFFFF" height="29.1328" style="stroke:#181818;stroke-width:1;" width="10" x="65.7651" y="303.3594"/></g><g><title>Server_callbacks</title><rect fill="#FFFFFF" height="29.1328" style="stroke:#181818;stroke-width:1;" width="10" x="65.7651" y="467.0234"/></g><g><title>Server_connector</title><rect fill="#FFFFFF" height="58.2656" style="stroke:#181818;stroke-width:1;" width="10" x="304.7646" y="110.5625"/></g><g><title>Server_connector</title><rect fill="#FFFFFF" height="58.2656" style="stroke:#181818;stroke-width:1;" width="10" x="304.7646" y="274.2266"/></g><g><title>Server_connector</title><rect fill="#FFFFFF" height="58.2656" style="stroke:#181818;stroke-width:1;" width="10" x="304.7646" y="437.8906"/></g><g><title>Server_callbacks</title><rect fill="transparent" height="510.9922" width="8" x="66.7651" y="36.2969"/><line style="stroke:#181818;stroke-width:0.5;stroke-dasharray:5.0,5.0;" x1="70" x2="70" y1="36.2969" y2="547.2891"/></g><g><title>Server_connector</title><rect fill="transparent" height="510.9922" width="8" x="305.7646" y="36.2969"/><line style="stroke:#181818;stroke-width:0.5;stroke-dasharray:5.0,5.0;" x1="309.2446" x2="309.2446" y1="36.2969" y2="547.2891"/></g><g><title>Client_connector</title><rect fill="transparent" height="510.9922" width="8" x="485.4409" y="36.2969"/><line style="stroke:#181818;stroke-width:0.5;stroke-dasharray:5.0,5.0;" x1="488.6108" x2="488.6108" y1="36.2969" y2="547.2891"/></g><rect fill="#E2E2F0" height="30.2969" rx="2.5" ry="2.5" style="stroke:#181818;stroke-width:0.5;" width="131.5303" x="5" y="5"/><text fill="#000000" font-family="sans-serif" font-size="14" lengthAdjust="spacing" textLength="117.5303" x="12" y="24.9951">Server_callbacks</text><rect fill="#E2E2F0" height="30.2969" rx="2.5" ry="2.5" style="stroke:#181818;stroke-width:0.5;" width="131.5303" x="5" y="546.2891"/><text fill="#000000" font-family="sans-serif" font-size="14" lengthAdjust="spacing" textLength="117.5303" x="12" y="566.2842">Server_callbacks</text><rect fill="#E2E2F0" height="30.2969" rx="2.5" ry="2.5" style="stroke:#181818;stroke-width:0.5;" width="137.04" x="241.2446" y="5"/><text fill="#000000" font-family="sans-serif" font-size="14" lengthAdjust="spacing" textLength="123.04" x="248.2446" y="24.9951">Server_connector</text><rect fill="#E2E2F0" height="30.2969" rx="2.5" ry="2.5" style="stroke:#181818;stroke-width:0.5;" width="137.04" x="241.2446" y="546.2891"/><text fill="#000000" font-family="sans-serif" font-size="14" lengthAdjust="spacing" textLength="123.04" x="248.2446" y="566.2842">Server_connector</text><rect fill="#E2E2F0" height="30.2969" rx="2.5" ry="2.5" style="stroke:#181818;stroke-width:0.5;" width="131.6602" x="423.6108" y="5"/><text fill="#000000" font-family="sans-serif" font-size="14" lengthAdjust="spacing" textLength="117.6602" x="430.6108" y="24.9951">Client_connector</text><rect fill="#E2E2F0" height="30.2969" rx="2.5" ry="2.5" style="stroke:#181818;stroke-width:0.5;" width="131.6602" x="423.6108" y="546.2891"/><text fill="#000000" font-family="sans-serif" font-size="14" lengthAdjust="spacing" textLength="117.6602" x="430.6108" y="566.2842">Client_connector</text><g><title>Server_callbacks</title><rect fill="#FFFFFF" height="29.1328" style="stroke:#181818;stroke-width:1;" width="10" x="65.7651" y="139.6953"/></g><g><title>Server_callbacks</title><rect fill="#FFFFFF" height="29.1328" style="stroke:#181818;stroke-width:1;" width="10" x="65.7651" y="303.3594"/></g><g><title>Server_callbacks</title><rect fill="#FFFFFF" height="29.1328" style="stroke:#181818;stroke-width:1;" width="10" x="65.7651" y="467.0234"/></g><g><title>Server_connector</title><rect fill="#FFFFFF" height="58.2656" style="stroke:#181818;stroke-width:1;" width="10" x="304.7646" y="110.5625"/></g><g><title>Server_connector</title><rect fill="#FFFFFF" height="58.2656" style="stroke:#181818;stroke-width:1;" width="10" x="304.7646" y="274.2266"/></g><g><title>Server_connector</title><rect fill="#FFFFFF" height="58.2656" style="stroke:#181818;stroke-width:1;" width="10" x="304.7646" y="437.8906"/></g><rect fill="#EEEEEE" height="3" style="stroke:#EEEEEE;stroke-width:1;" width="560.271" x="0" y="66.8633"/><line style="stroke:#000000;stroke-width:1;" x1="0" x2="560.271" y1="66.8633" y2="66.8633"/><line style="stroke:#000000;stroke-width:1;" x1="0" x2="560.271" y1="69.8633" y2="69.8633"/><rect fill="#EEEEEE" height="23.1328" style="stroke:#000000;stroke-width:2;" width="225.4277" x="167.4216" y="56.2969"/><text fill="#000000" font-family="sans-serif" font-size="13" font-weight="bold" lengthAdjust="spacing" textLength="206.9019" x="173.4216" y="72.3638">Deadlock by on_method_call</text><polygon fill="#181818" points="325.7646,106.5625,315.7646,110.5625,325.7646,114.5625,321.7646,110.5625" style="stroke:#181818;stroke-width:1;"/><line style="stroke:#181818;stroke-width:1;stroke-dasharray:2.0,2.0;" x1="319.7646" x2="488.4409" y1="110.5625" y2="110.5625"/><text fill="#000000" font-family="sans-serif" font-size="13" lengthAdjust="spacing" textLength="89.1846" x="331.7646" y="105.4966">call_method()</text><polygon fill="#181818" points="86.7651,135.6953,76.7651,139.6953,86.7651,143.6953,82.7651,139.6953" style="stroke:#181818;stroke-width:1;"/><line style="stroke:#181818;stroke-width:1;stroke-dasharray:2.0,2.0;" x1="80.7651" x2="303.7646" y1="139.6953" y2="139.6953"/><text fill="#000000" font-family="sans-serif" font-size="13" lengthAdjust="spacing" textLength="111.8774" x="92.7651" y="134.6294">on_method_call()</text><polygon fill="#181818" points="297.7646,164.8281,307.7646,168.8281,297.7646,172.8281,301.7646,168.8281" style="stroke:#181818;stroke-width:1;"/><line style="stroke:#181818;stroke-width:1;stroke-dasharray:2.0,2.0;" x1="70.7651" x2="303.7646" y1="168.8281" y2="168.8281"/><text fill="#000000" font-family="sans-serif" font-size="13" lengthAdjust="spacing" textLength="135.2876" x="77.7651" y="163.7622">~Server_connector()</text><line style="stroke:#A80036;stroke-width:2;" x1="300.7646" x2="318.7646" y1="159.8281" y2="177.8281"/><line style="stroke:#A80036;stroke-width:2;" x1="300.7646" x2="318.7646" y1="177.8281" y2="159.8281"/><rect fill="#FEFFDD" height="23" style="stroke:#181818;stroke-width:0.5;" width="470" x="74" y="181.8281"/><text fill="#000000" font-family="sans-serif" font-size="13" lengthAdjust="spacing" textLength="462.0015" x="78" y="197.895">Deadlock happens here because destructor waits for callback to finish.</text><rect fill="#EEEEEE" height="3" style="stroke:#EEEEEE;stroke-width:1;" width="560.271" x="0" y="230.5273"/><line style="stroke:#000000;stroke-width:1;" x1="0" x2="560.271" y1="230.5273" y2="230.5273"/><line style="stroke:#000000;stroke-width:1;" x1="0" x2="560.271" y1="233.5273" y2="233.5273"/><rect fill="#EEEEEE" height="23.1328" style="stroke:#000000;stroke-width:2;" width="335.9277" x="112.1716" y="219.9609"/><text fill="#000000" font-family="sans-serif" font-size="13" font-weight="bold" lengthAdjust="spacing" textLength="317.4019" x="118.1716" y="236.0278">Deadlock by on_event_subscription_change</text><polygon fill="#181818" points="325.7646,270.2266,315.7646,274.2266,325.7646,278.2266,321.7646,274.2266" style="stroke:#181818;stroke-width:1;"/><line style="stroke:#181818;stroke-width:1;stroke-dasharray:2.0,2.0;" x1="319.7646" x2="488.4409" y1="274.2266" y2="274.2266"/><text fill="#000000" font-family="sans-serif" font-size="13" lengthAdjust="spacing" textLength="116.0605" x="331.7646" y="269.1606">subscribe_event()</text><polygon fill="#181818" points="86.7651,299.3594,76.7651,303.3594,86.7651,307.3594,82.7651,303.3594" style="stroke:#181818;stroke-width:1;"/><line style="stroke:#181818;stroke-width:1;stroke-dasharray:2.0,2.0;" x1="80.7651" x2="303.7646" y1="303.3594" y2="303.3594"/><text fill="#000000" font-family="sans-serif" font-size="13" lengthAdjust="spacing" textLength="209.9995" x="92.7651" y="298.2935">on_event_subscription_change()</text><polygon fill="#181818" points="297.7646,328.4922,307.7646,332.4922,297.7646,336.4922,301.7646,332.4922" style="stroke:#181818;stroke-width:1;"/><line style="stroke:#181818;stroke-width:1;stroke-dasharray:2.0,2.0;" x1="70.7651" x2="303.7646" y1="332.4922" y2="332.4922"/><text fill="#000000" font-family="sans-serif" font-size="13" lengthAdjust="spacing" textLength="135.2876" x="77.7651" y="327.4263">~Server_connector()</text><line style="stroke:#A80036;stroke-width:2;" x1="300.7646" x2="318.7646" y1="323.4922" y2="341.4922"/><line style="stroke:#A80036;stroke-width:2;" x1="300.7646" x2="318.7646" y1="341.4922" y2="323.4922"/><rect fill="#FEFFDD" height="23" style="stroke:#181818;stroke-width:0.5;" width="470" x="74" y="345.4922"/><text fill="#000000" font-family="sans-serif" font-size="13" lengthAdjust="spacing" textLength="462.0015" x="78" y="361.5591">Deadlock happens here because destructor waits for callback to finish.</text><rect fill="#EEEEEE" height="3" style="stroke:#EEEEEE;stroke-width:1;" width="560.271" x="0" y="394.1914"/><line style="stroke:#000000;stroke-width:1;" x1="0" x2="560.271" y1="394.1914" y2="394.1914"/><line style="stroke:#000000;stroke-width:1;" x1="0" x2="560.271" y1="397.1914" y2="397.1914"/><rect fill="#EEEEEE" height="23.1328" style="stroke:#000000;stroke-width:2;" width="300.2729" x="129.999" y="383.625"/><text fill="#000000" font-family="sans-serif" font-size="13" font-weight="bold" lengthAdjust="spacing" textLength="281.7471" x="135.999" y="399.6919">Deadlock by on_event_update_request</text><polygon fill="#181818" points="325.7646,433.8906,315.7646,437.8906,325.7646,441.8906,321.7646,437.8906" style="stroke:#181818;stroke-width:1;"/><line style="stroke:#181818;stroke-width:1;stroke-dasharray:2.0,2.0;" x1="319.7646" x2="488.4409" y1="437.8906" y2="437.8906"/><text fill="#000000" font-family="sans-serif" font-size="13" lengthAdjust="spacing" textLength="155.6763" x="331.7646" y="432.8247">request_event_update()</text><polygon fill="#181818" points="86.7651,463.0234,76.7651,467.0234,86.7651,471.0234,82.7651,467.0234" style="stroke:#181818;stroke-width:1;"/><line style="stroke:#181818;stroke-width:1;stroke-dasharray:2.0,2.0;" x1="80.7651" x2="303.7646" y1="467.0234" y2="467.0234"/><text fill="#000000" font-family="sans-serif" font-size="13" lengthAdjust="spacing" textLength="178.3691" x="92.7651" y="461.9575">on_event_update_request()</text><polygon fill="#181818" points="297.7646,492.1563,307.7646,496.1563,297.7646,500.1563,301.7646,496.1563" style="stroke:#181818;stroke-width:1;"/><line style="stroke:#181818;stroke-width:1;stroke-dasharray:2.0,2.0;" x1="70.7651" x2="303.7646" y1="496.1563" y2="496.1563"/><text fill="#000000" font-family="sans-serif" font-size="13" lengthAdjust="spacing" textLength="135.2876" x="77.7651" y="491.0903">~Server_connector()</text><line style="stroke:#A80036;stroke-width:2;" x1="300.7646" x2="318.7646" y1="487.1563" y2="505.1563"/><line style="stroke:#A80036;stroke-width:2;" x1="300.7646" x2="318.7646" y1="505.1563" y2="487.1563"/><rect fill="#FEFFDD" height="23" style="stroke:#181818;stroke-width:0.5;" width="470" x="74" y="509.1563"/><text fill="#000000" font-family="sans-serif" font-size="13" lengthAdjust="spacing" textLength="462.0015" x="78" y="525.2231">Deadlock happens here because destructor waits for callback to finish.</text><!--SRC=[xLCnRiCm3Dpr2cvDX_G12TobxTYf3p1eYQc5kf8YqIwovErL7SUEPRj0W6pjPXnvnoFFSkXPI-tGCBoHRyZd4gkgGFaHX9ifMcD8ilMZubEboV15KTp1At5fLQlMIu8r-UU0RsFRI_F337KHfDUETUoG9Pft6f5egMkGyBIlAN1UEuKyn-uANTzMY2o3Pq9LsTXL719la6L2f7l1UlqukSG6sXrFtDMzGCcwYPEc9nCfCj8xdtsJE9cJx2CIAR9WyPX2KLN5CtXxcFfKzCj0Rsp4RKIdnE6U9Jf79a19dg0WYNKWQ0VMxU9Vg3d0BdxrGR65dJOwb0-2Z6h7p6Mq-2jSarX7B-WaTwlK5htzPpYJuVX1NXFV-QrVwjmsmx6tFnpVDm00]--></g></svg>